<svg xmlns="http://www.w3.org/2000/svg" viewBox="0 0 500 500">
    <g id="freepik--background-simple--inject-34">
        <path d="M415.73,110.92l-2.12-3.45C395.75,78.41,363.46,60.89,329.42,63a91,91,0,0,0-13,1.77c-30.95,6.54-57.88,29.66-69,59.26-6.56,17.41-8.4,37.45-20.86,51.27-16.21,18-43.74,18.55-67.94,17.81s-51.75-.11-67.89,17.94c-10.11,11.31-13.32,27.39-12.5,42.53,2.16,40.09,30.45,75.94,66.43,93.76s78.34,19.42,117.72,11.58c55.16-11,107.62-41.14,139.15-87.71S441,161.19,415.73,110.92Z"
              style="fill:#ebebeb"></path>
    </g>
    <g id="freepik--Floor--inject-34">
        <path d="M464.66,459.35c0,.15-96.12.26-214.65.26s-214.67-.11-214.67-.26,96.1-.26,214.67-.26S464.66,459.21,464.66,459.35Z"
              style="fill:#263238"></path>
    </g>
    <g id="freepik--Boxes--inject-34">
        <path d="M337.57,126.54s-.27,0-.79,0a19.23,19.23,0,0,0-2.28,0,25.62,25.62,0,0,0-8.53,2,26.19,26.19,0,0,0-10.82,8.43,23.63,23.63,0,0,0-3.78,7.73A26,26,0,0,0,314,164.34a22.22,22.22,0,0,0,3.4,4.52,18.48,18.48,0,0,0,4.6,3.6,11.3,11.3,0,0,0,5.77,1.45,8.29,8.29,0,0,0,5.59-2.26,8.07,8.07,0,0,0,2.23-5.76,10.62,10.62,0,0,0-2-6.13c-2.59-3.65-6.79-6.1-11.26-7.42a27.65,27.65,0,0,0-14.2-.2,29.76,29.76,0,0,0-6.84,2.72,24.65,24.65,0,0,0-5.87,4.61c-.41.47-.88.9-1.25,1.42l-1.13,1.52a28.55,28.55,0,0,0-1.84,3.34,27.1,27.1,0,0,0-2.17,7.37,27.94,27.94,0,0,0,2,15,23.17,23.17,0,0,0,9.65,11,16,16,0,0,0,6.84,2.07,12.08,12.08,0,0,0,6.75-1.62,10.55,10.55,0,0,0,4.56-5A9.06,9.06,0,0,0,319,188a13.23,13.23,0,0,0-3.76-5.32,17.22,17.22,0,0,0-5.53-3.21,21.43,21.43,0,0,0-12.18-.21,23.73,23.73,0,0,0-10,5.57,22.84,22.84,0,0,0-5.73,8.87,25.7,25.7,0,0,0,.27,18,27.29,27.29,0,0,0,8.23,11,29.61,29.61,0,0,0,7.57,4.41c.94.35,1.67.61,2.17.75l.74.24s-.26-.05-.76-.19a21.51,21.51,0,0,1-2.18-.71,28.33,28.33,0,0,1-7.66-4.34,27.41,27.41,0,0,1-8.39-11.05,26,26,0,0,1-.33-18.19,22.93,22.93,0,0,1,5.79-9,24.19,24.19,0,0,1,10.15-5.7,21.89,21.89,0,0,1,12.44.2,17.52,17.52,0,0,1,5.69,3.29,13.58,13.58,0,0,1,3.9,5.51,9.58,9.58,0,0,1-.1,6.89,11.2,11.2,0,0,1-4.77,5.21,12.62,12.62,0,0,1-7,1.7,16.26,16.26,0,0,1-7-2.14,23.64,23.64,0,0,1-9.89-11.19,28.5,28.5,0,0,1-2.06-15.28,27.86,27.86,0,0,1,2.22-7.52,28.94,28.94,0,0,1,1.88-3.41l1.16-1.55c.37-.53.85-1,1.27-1.46a25.33,25.33,0,0,1,6-4.7,30.13,30.13,0,0,1,7-2.76,28.14,28.14,0,0,1,14.47.21c4.56,1.36,8.83,3.85,11.52,7.63a11,11,0,0,1,2.1,6.4,8.54,8.54,0,0,1-2.37,6.09,8.75,8.75,0,0,1-5.9,2.37,11.63,11.63,0,0,1-6-1.51,18.59,18.59,0,0,1-4.7-3.69,23,23,0,0,1-3.45-4.61,26.37,26.37,0,0,1-2.64-20,23.9,23.9,0,0,1,3.87-7.81,26.32,26.32,0,0,1,11-8.45,25,25,0,0,1,8.59-1.88,17.47,17.47,0,0,1,2.3,0Z"
              style="fill:#263238"></path>
        <rect x="230.75" y="226.6" width="140.21" height="108.14" style="fill:#FFA113"></rect>
        <polygon points="230.75 226.6 256.65 250.76 394.48 250.76 370.96 226.6 230.75 226.6"
                 style="fill:#FFA113"></polygon>
        <path d="M230.75,226.6,371,226.35h.11l.08.07,23.28,23.91.24.25.43.44h-.62l-137.83-.11h-.06l0,0L230.75,226.6l26,24-.11,0,137.83-.1-.18.44-.25-.25-23.27-23.91.18.08Z"
              style="fill:#263238"></path>
        <path d="M272.87,276.47a2.9,2.9,0,1,0,.21,0" style="fill:#263238"></path>
        <path d="M306,276.47a2.89,2.89,0,1,0,.22,0" style="fill:#263238"></path>
        <path d="M306.19,302.35a20.72,20.72,0,0,0-2.78-6.21,18.25,18.25,0,0,0-5.3-5.08,16.17,16.17,0,0,0-17.13-.47,18.47,18.47,0,0,0-5.57,4.78,20.5,20.5,0,0,0-3.11,6.06,2.07,2.07,0,0,1,.08-.48,11.17,11.17,0,0,1,.37-1.33,16,16,0,0,1,2.37-4.47,18.19,18.19,0,0,1,5.63-5,16.45,16.45,0,0,1,17.62.48,18.14,18.14,0,0,1,5.34,5.28,16,16,0,0,1,2.13,4.6,11.74,11.74,0,0,1,.29,1.35A2.78,2.78,0,0,1,306.19,302.35Z"
              style="fill:#263238"></path>
        <polygon points="231.07 227.79 255.87 259.23 370.96 259.23 370.96 250.76 256.65 250.76 231.07 227.79"
                 style="opacity:0.5"></polygon>
        <path d="M343.31,334.5c-.14,0-.26-18.81-.26-42s.12-42,.26-42,.27,18.8.27,42S343.46,334.5,343.31,334.5Z"
              style="fill:#263238"></path>
        <rect x="352.97" y="309.98" width="12.36" height="13.97" style="fill:#f5f5f5"></rect>
        <polygon points="230.75 226.6 201.97 250.76 230.75 250.76 230.75 226.6" style="fill:#FFA113"></polygon>
        <g style="opacity:0.4">
            <polygon points="230.75 226.6 201.97 250.76 230.75 250.76 230.75 226.6"></polygon>
        </g>
        <rect x="213.89" y="334.74" width="161.21" height="124.34" style="fill:#FFA113"></rect>
        <rect x="213.89" y="334.74" width="161.21" height="124.34" style="opacity:0.30000000000000004"></rect>
        <path d="M334.71,458.2c-.14,0-.26-27.71-.26-61.89s.12-61.9.26-61.9.26,27.71.26,61.9S334.85,458.2,334.71,458.2Z"
              style="fill:#263238"></path>
        <rect x="349.07" y="430.78" width="12.36" height="13.97" style="fill:#f5f5f5"></rect>
        <rect x="263.07" y="335.07" width="18.31" height="26.53" style="fill:#263238"></rect>
        <rect x="263.07" y="432.18" width="18.31" height="26.53" style="fill:#263238"></rect>
        <path d="M373.7,334.74l-.42,0-1.21,0-4.65.05-17.13.08L293.8,335l-56.51-.07-17.12-.08-4.65-.05-1.22,0-.41,0,.41,0,1.22,0,4.65-.05,17.12-.08,56.51-.08,56.49.08,17.13.08,4.65.05,1.21,0Z"
              style="fill:#263238"></path>
    </g>
    <g id="freepik--speech-bubble--inject-34">
        <path d="M97.42,119.47l-17.56-4.32.13,0a29.15,29.15,0,0,1-15.15,4.55,31.87,31.87,0,0,1-9.39-1.37A29.44,29.44,0,0,1,35.23,93.89a29,29,0,0,1,7.54-23.43A30.08,30.08,0,0,1,47.86,66c.94-.59,1.88-1.2,2.86-1.71l1.49-.72.74-.36.78-.28A29.51,29.51,0,0,1,66.35,61,29.23,29.23,0,0,1,92.11,80.7a30.46,30.46,0,0,1,1.62,9.48,29.09,29.09,0,0,1-4.21,15.21v-.16c4.88,8.81,7.34,13.26,7.89,14.24-.57-1-3.12-5.37-8.17-14.09l0-.08,0-.08a28.86,28.86,0,0,0,4-15,29.78,29.78,0,0,0-1.64-9.32A28.76,28.76,0,0,0,66.31,61.6a29,29,0,0,0-12.37,1.9l-.76.27-.73.36-1.46.7c-1,.51-1.88,1.1-2.81,1.68a29.71,29.71,0,0,0-5,4.34,28.49,28.49,0,0,0-7.41,23,28.93,28.93,0,0,0,10.83,19.23,28.47,28.47,0,0,0,9,4.8,31.16,31.16,0,0,0,9.23,1.39,28.88,28.88,0,0,0,15-4.39l.06,0H80Z"
              style="fill:#263238"></path>
        <path d="M62,77.3,62.89,92a2.38,2.38,0,0,0,2.23,2.23h0a2.39,2.39,0,0,0,2.51-2.12l1.63-14.73a1.87,1.87,0,0,0-1.89-2.07l-3.57,0A1.86,1.86,0,0,0,62,77.3Z"
              style="fill:#FFA113"></path>
        <path d="M69,102.44a3.58,3.58,0,1,1-2.27-4.53A3.58,3.58,0,0,1,69,102.44Z" style="fill:#FFA113"></path>
    </g>
</svg>