<svg xmlns="http://www.w3.org/2000/svg" viewBox="0 0 500 500">
    <g id="freepik--background-simple--inject-257">
        <path d="M72.66,183.39C69.56,266.47,141.13,361,229.76,341.3c19.7-4.36,36.37-18.09,57.64-17,17.43.86,33.77,21.68,57.72,28.46,45.87,13,106.46-24.13,84.51-80.47-15.78-40.49-73.08-54.6-105-75.29-38.54-25-48.56-65.1-82.65-93.28C175.15,48.43,75.86,97.44,72.66,183.39Z"
              style="fill:#FFA113"></path>
        <path d="M72.66,183.39C69.56,266.47,141.13,361,229.76,341.3c19.7-4.36,36.37-18.09,57.64-17,17.43.86,33.77,21.68,57.72,28.46,45.87,13,106.46-24.13,84.51-80.47-15.78-40.49-73.08-54.6-105-75.29-38.54-25-48.56-65.1-82.65-93.28C175.15,48.43,75.86,97.44,72.66,183.39Z"
              style="fill:#fff;opacity:0.9"></path>
    </g>
    <g id="freepik--Shadow--inject-257">
        <ellipse id="freepik--path--inject-257" cx="250" cy="416.24" rx="193.89" ry="11.32"
                 style="fill:#f5f5f5"></ellipse>
    </g>
    <g id="freepik--Boxes--inject-257">
        <path d="M168.3,153.57c.29,1.14,0,2.09-.56,2.13s-1.34-.84-1.63-2-.05-2.08.56-2.13S168,152.44,168.3,153.57Z"
              style="fill:#fff"></path>
        <ellipse cx="168.66" cy="159.87" rx="1.07" ry="2.13" transform="translate(-32.12 42.86) rotate(-13.23)"
                 style="fill:#fff"></ellipse>
        <rect x="89.21" y="355.33" width="98.51" height="58.03" style="fill:#FFA113"></rect>
        <rect x="89.21" y="355.33" width="98.51" height="58.03" style="fill:#fff;opacity:0.7000000000000001"></rect>
        <rect x="89.21" y="355.33" width="25.33" height="58.03" style="fill:#FFA113;opacity:0.30000000000000004"></rect>
        <rect x="140.66" y="355.33" width="20.95" height="10.63" style="fill:#fff;opacity:0.7000000000000001"></rect>
        <rect x="97.81" y="355.33" width="8.13" height="10.63" style="fill:#fff;opacity:0.7000000000000001"></rect>
        <rect x="170.62" y="396.27" width="11.58" height="11.58"
              style="fill:#FFA113;opacity:0.30000000000000004"></rect>
        <rect x="155.63" y="396.27" width="11.58" height="11.58"
              style="fill:#FFA113;opacity:0.30000000000000004"></rect>
        <rect x="96.68" y="315.91" width="66.92" height="39.43" transform="translate(260.28 671.24) rotate(180)"
              style="fill:#FFA113"></rect>
        <rect x="96.68" y="315.91" width="66.92" height="39.43" transform="translate(260.28 671.24) rotate(180)"
              style="fill:#fff;opacity:0.7000000000000001"></rect>
        <rect x="96.68" y="315.91" width="49.71" height="39.43" style="fill:#FFA113;opacity:0.30000000000000004"></rect>
        <rect x="114.42" y="315.91" width="14.23" height="7.22" transform="translate(243.07 639.04) rotate(180)"
              style="fill:#fff;opacity:0.7000000000000001"></rect>
        <rect x="152.24" y="315.91" width="5.52" height="7.22" transform="translate(310 639.04) rotate(180)"
              style="fill:#fff;opacity:0.7000000000000001"></rect>
        <rect x="100.43" y="343.72" width="7.87" height="7.87" transform="translate(208.72 695.31) rotate(180)"
              style="fill:#FFA113;opacity:0.30000000000000004"></rect>
        <rect x="110.61" y="343.72" width="7.87" height="7.87" transform="translate(229.09 695.31) rotate(180)"
              style="fill:#FFA113;opacity:0.30000000000000004"></rect>
        <rect x="212.77" y="369.5" width="67.07" height="39.51" transform="translate(492.6 778.51) rotate(180)"
              style="fill:#FFA113"></rect>
        <rect x="212.77" y="369.5" width="67.07" height="39.51" transform="translate(492.6 778.51) rotate(180)"
              style="fill:#fff;opacity:0.7000000000000001"></rect>
        <rect x="212.77" y="369.5" width="49.82" height="39.51" style="fill:#FFA113;opacity:0.30000000000000004"></rect>
        <rect x="212.77" y="383.67" width="3.75" height="11.25" transform="translate(429.29 778.58) rotate(180)"
              style="fill:#fff;opacity:0.7000000000000001"></rect>
        <rect x="257.84" y="383.68" width="9.49" height="11.25" transform="translate(525.17 778.6) rotate(180)"
              style="fill:#fff;opacity:0.7000000000000001"></rect>
        <rect x="270.61" y="397.01" width="3.16" height="7.89" transform="translate(544.38 801.91) rotate(180)"
              style="fill:#FFA113;opacity:0.30000000000000004"></rect>
        <rect x="274.7" y="397.01" width="3.16" height="7.89" transform="translate(552.56 801.91) rotate(180)"
              style="fill:#FFA113;opacity:0.30000000000000004"></rect>
    </g>
    <g id="freepik--character-1--inject-257">
        <polygon points="240.75 389.29 224.64 392.87 230.8 410.27 244.26 407.3 240.75 389.29"
                 style="fill:#ffb573"></polygon>
        <polygon points="240.75 389.3 224.63 392.88 228.08 402.62 242.72 399.38 240.75 389.3"
                 style="opacity:0.2"></polygon>
        <path d="M202.72,321.84c-6.77-23.25-23.65-47.51-14.34-69.65l46.55-.13s3.75,50.58,4.91,72.08c1.21,22.36,3.65,71.82,3.65,71.82l-18.37,4S207.33,363,202.72,321.84Z"
              style="fill:#263238"></path>
        <path d="M186.52,275.29c2.27,12.36,8.48,25,13.15,37.51C205.29,289.18,204.6,261.41,186.52,275.29Z"
              style="opacity:0.2"></path>
        <path d="M255.43,405.74s-4.29,1.93-9.54-1.12a2.33,2.33,0,0,0-2,.06c-2.7,1.12-9.91,3.86-14.57,3.28a.63.63,0,0,0-.71.77,44.55,44.55,0,0,1,1.35,7.51l4.27-.91.55-1.51,2.25.93a103.69,103.69,0,0,0,20.66-5.4C258.31,406.62,255.43,405.74,255.43,405.74Z"
              style="fill:#FFA113"></path>
        <polygon points="172.53 392.36 157.17 392.51 156.5 410.62 169.33 410.52 172.53 392.36"
                 style="fill:#ffb573"></polygon>
        <polygon points="172.53 392.37 157.16 392.51 156.79 402.66 170.74 402.54 172.53 392.37"
                 style="opacity:0.2"></polygon>
        <path d="M155.83,321.84c-1.24-23.25-2.93-58,4.86-68.71l47.83-1.07S195.22,303,190.26,324.4c-5.16,22.3-17.81,75-17.81,75l-16.6,0S149.58,348.37,155.83,321.84Z"
              style="fill:#263238"></path>
        <path d="M228.18,176.06l.73,1.74.86,2c.6,1.31,1.2,2.64,1.85,3.92a77.6,77.6,0,0,0,4.17,7.37c.74,1.14,1.51,2.25,2.31,3.26a33.18,33.18,0,0,0,2.41,2.87,22.57,22.57,0,0,0,5,4l-3.49-.77a36.07,36.07,0,0,0,5.22.42,42.84,42.84,0,0,0,5.69-.3c2-.21,4-.55,6-1,1-.21,2-.43,3.06-.69l1.53-.37.75-.19a2.88,2.88,0,0,1,.64-.13l3.63.65a5,5,0,0,1,2.66,8.5l-.83.82-.74.71c-.5.46-1,.91-1.52,1.34-1,.85-2.09,1.67-3.2,2.43a48.14,48.14,0,0,1-7.05,4,46.41,46.41,0,0,1-7.93,2.77,40.83,40.83,0,0,1-8.72,1.2,6.58,6.58,0,0,1-2.52-.41l-1-.36a38.67,38.67,0,0,1-6.33-3.08,42.52,42.52,0,0,1-5.36-3.93,55.43,55.43,0,0,1-4.53-4.38c-1.39-1.52-2.63-3.09-3.83-4.68s-2.28-3.21-3.29-4.86-2-3.3-2.85-5-1.7-3.4-2.44-5.15c-.37-.88-.74-1.76-1.08-2.66l-.51-1.39-.25-.71-.28-.87a11.19,11.19,0,0,1,20.94-7.84Z"
              style="fill:#ffb573"></path>
        <path d="M263.66,208.84l-2.23-6.07c.07-6.8,8.79-5.19,8.79-5.19l6.51-1.45a3.44,3.44,0,0,1,3.74,2.38l1.59,4.23a3.58,3.58,0,0,1-1.72,4.68l-5.74,2a7,7,0,0,1-3.42.41Z"
              style="fill:#ffb573"></path>
        <path d="M214.78,158.35c9.59,4,18,21.39,18,21.39-.44,4.2-10.1,15.93-18.62,18.94,0,0-6.64-2.76-10.82-11.83C198,175.11,204.61,154.11,214.78,158.35Z"
              style="fill:#FFA113"></path>
        <path d="M209.38,157.12a193.16,193.16,0,0,0-42.67.68,14.4,14.4,0,0,0-12,17.15c6.64,33.41-.32,70.89,4,78.36,0,0,49.33.65,76.91-1.25,7.56-36.27-7.3-58.47-14.77-86.8C219.56,160.42,214.36,157.64,209.38,157.12Z"
              style="fill:#FFA113"></path>
        <path d="M170.93,184.71c-1.46,2.59-3.08,5.33-4.63,8l-4.61,8c-.75,1.32-1.49,2.64-2.19,3.94s-1.41,2.59-2,3.84-1.19,2.49-1.66,3.54c-.23.52-.43,1-.56,1.34l-.09.23,0,.09c-.06.13,0-.13-.09-.26l-.05-1a35.1,35.1,0,0,0,.84,6.63c.52,2.5,1.16,5.13,1.91,7.76s1.52,5.34,2.33,8.06,1.67,5.49,2.4,8.18l.07.24a5.67,5.67,0,0,1-9.74,5.21,87,87,0,0,1-5.64-7.31c-.86-1.26-1.73-2.52-2.55-3.83s-1.61-2.62-2.39-4a87.49,87.49,0,0,1-4.26-8.56,44.38,44.38,0,0,1-3.09-10.33,4,4,0,0,1,0-.6v-.43a20.82,20.82,0,0,1,.13-2.66c0-.36.09-.77.14-1.1l.17-.94c.23-1.25.5-2.29.77-3.3.55-2,1.2-3.74,1.84-5.45s1.32-3.32,2-4.91,1.44-3.13,2.17-4.66c1.46-3.07,3-6,4.67-8.93s3.29-5.71,5.21-8.59A11.21,11.21,0,0,1,171,184.54Z"
              style="fill:#ffb573"></path>
        <path d="M161.58,159.73c-9.49,4.26-17.41,21.49-17.41,21.49.93,6,14.36,18.84,21.38,21.26,0,0,5.86-5.16,8.59-17.18C177.27,171.49,166.71,160.83,161.58,159.73Z"
              style="fill:#FFA113"></path>
        <path d="M202.66,159.59a9,9,0,0,0-4.3-4.08,8.33,8.33,0,0,1-.15-5.61l-21-6.7c1.7,7,3,12.44.44,15.82,4.13,2.52,11.71,7,20,6.82S204,162.5,202.66,159.59Z"
              style="fill:#ffb573"></path>
        <path d="M198,150.55l-15.78-.93c4.94,5.27,12.42,7.26,15.83,5.11A8.4,8.4,0,0,1,198,150.55Z"
              style="opacity:0.2"></path>
        <path d="M198.09,165.82,194.68,163l-4.59,2.3S193,168,198.09,165.82Z" style="fill:#FFA113"></path>
        <path d="M198.09,165.82,194.68,163l-4.59,2.3S193,168,198.09,165.82Z" style="opacity:0.30000000000000004"></path>
        <path d="M202.48,125.63c.27,4.24-2.46,7.87-6.1,8.1s-6.8-3-7.07-7.27,2.46-7.87,6.1-8.1S202.21,121.39,202.48,125.63Z"
              style="fill:#263238"></path>
        <path d="M205.45,140.78c.27,4.24-2.46,7.87-6.1,8.1s-6.8-3-7.07-7.27,2.47-7.87,6.1-8.1S205.18,136.53,205.45,140.78Z"
              style="fill:#263238"></path>
        <path d="M173.71,131.85c1.78,9.22,3.21,15.45,9.49,18.86,12.49,6.79,18.76,1.13,20-8.35,1.09-8.54-2-22.18-12.26-24.94C180.83,114.7,171.92,122.63,173.71,131.85Z"
              style="fill:#ffb573"></path>
        <path d="M198.08,139c10.76-2.23,9.26,8.26,6.67,12-2.28,3.33-7.22,6.21-15.8,2.64-8.92-3.7-6.54-10.08-9.39-13.93-1-1.4,1.24-7.14,2.7-4.13C185.41,142.1,193.62,137.27,198.08,139Z"
              style="fill:#263238"></path>
        <path d="M177.75,139.87c5,3,5.74-2.07,4.51-4.24,2-2.33,3.71-10.25-1.84-11,2.67.71,11.15-.06,9.76-5.15,3.22,2.9,12.91,4.63,12.3-.52-.88-7.53-12.39-14-20.22-7.53-9.44-5.09-20.45,5.45-14.84,10.28-7.2,1.52-5.61,12.22-1.48,13.58C162.75,140.85,175.44,148.12,177.75,139.87Z"
              style="fill:#263238"></path>
        <path d="M188.48,131.92a4.67,4.67,0,0,0-3.54.2A9.1,9.1,0,0,0,188.48,131.92Z" style="opacity:0.2"></path>
        <path d="M188.47,132.77a3.79,3.79,0,0,0-3.06,1A7.6,7.6,0,0,0,188.47,132.77Z" style="opacity:0.2"></path>
        <path d="M197.12,123a42.93,42.93,0,0,0-8.88.19C193.19,123.27,197.12,123,197.12,123Z" style="opacity:0.2"></path>
        <path d="M198.41,123.92s-6.79.2-10,1.41A80.33,80.33,0,0,0,198.41,123.92Z" style="opacity:0.2"></path>
        <path d="M171,142.27a9.49,9.49,0,0,0,6.38,3.54c3.34.35,4.09-2.36,3-5.34-1-2.68-4.34-6.17-7.48-5.19S169.12,139.82,171,142.27Z"
              style="fill:#ffb573"></path>
        <path d="M191.39,132.05c.08.81.58,1.42,1.12,1.36s.89-.77.81-1.58-.59-1.43-1.13-1.37S191.3,131.23,191.39,132.05Z"
              style="fill:#263238"></path>
        <path d="M199.84,131.37c.08.81.58,1.43,1.12,1.36s.89-.77.81-1.58-.59-1.43-1.13-1.37S199.75,130.55,199.84,131.37Z"
              style="fill:#263238"></path>
        <path d="M197.12,132.21l1,6.82a7.52,7.52,0,0,0,2.41-.25.9.9,0,0,0,.27-1.57C198.75,135.7,197.12,132.21,197.12,132.21Z"
              style="fill:#ed893e"></path>
        <path d="M187,129.91a.51.51,0,0,1-.23-.07.48.48,0,0,1-.13-.67,4.84,4.84,0,0,1,3.79-2.26.48.48,0,0,1,0,1h0a3.85,3.85,0,0,0-3,1.83A.49.49,0,0,1,187,129.91Z"
              style="fill:#263238"></path>
        <path d="M202.93,129a.48.48,0,0,1-.41-.18,3.84,3.84,0,0,0-3.13-1.51.47.47,0,0,1-.52-.43.5.5,0,0,1,.43-.53,4.78,4.78,0,0,1,4,1.86.49.49,0,0,1-.08.68A.54.54,0,0,1,202.93,129Z"
              style="fill:#263238"></path>
        <path d="M178.66,154.52s7.19,8,16,8.46c-5.14,2.43-8.85,7.65-8.85,7.65s-9.37-2.29-11.45-14C175.75,155,178.66,154.52,178.66,154.52Z"
              style="fill:#ebebeb"></path>
        <path d="M198.09,165.82l3.87-3.46,4.92,1.46S203.16,168,198.09,165.82Z" style="fill:#FFA113"></path>
        <path d="M198.09,165.82l3.87-3.46,4.92,1.46S203.16,168,198.09,165.82Z"
              style="opacity:0.30000000000000004"></path>
        <path d="M198.36,155.51s3.43,4,3.6,6.85c4.08,1.58,7.85,6.76,7.85,6.76s-1-8.2-7.46-12.86A6.91,6.91,0,0,0,198.36,155.51Z"
              style="fill:#ebebeb"></path>
        <path d="M154.33,416.23h3.34l.9-1.36,1.75,1.37h20.15a9,9,0,0,0-.86-4.61s-6-.55-8.34-3.55a.74.74,0,0,0-.75-.3c-2,.42-10,1.93-14.36.35a.72.72,0,0,0-1,.65A49.53,49.53,0,0,1,154.33,416.23Z"
              style="fill:#FFA113"></path>
        <path d="M262.08,200.25c2.35-5,7.34-5.13,11.18-6.42.65-.22,1.81,1.2,1.07,2.2a5.73,5.73,0,0,1-3.63,2.59c-.05,1.73-1.91,6.4-6.81,6.29A7.06,7.06,0,0,1,262.08,200.25Z"
              style="fill:#ffb573"></path>
        <path d="M199.69,142.11s-2.79-.64-10.66-.74c.78,1.67,2.8,2.92,6.83,3C199.1,144.52,199.69,142.11,199.69,142.11Z"
              style="fill:#fff"></path>
        <path d="M160.41,240.91l-5.94,2.55c-4.89,4.72,2.27,9.95,2.27,9.95l2.43,3.91a3.43,3.43,0,0,0,4.3,1.08l4.16-1.75a3.58,3.58,0,0,0,2.22-4.47l-1.53-3.7a7.05,7.05,0,0,0-2.06-2.77Z"
              style="fill:#ffb573"></path>
    </g>
    <g id="freepik--character-2--inject-257">
        <path d="M354.6,149.57c-6.09-9.81-3.68-15.59,3-16.75l26.71,10.05c9.5,11.47-9,10.8,1.26,19.94s-19.36,20.76-33.92,8.82S360.68,159.38,354.6,149.57Z"
              style="fill:#263238"></path>
        <path d="M395.44,408.22l8.39-1.86c-1.17-8-1.6-17.3-2.58-22.24l-9.69,1.35Z" style="fill:#ffc3bd"></path>
        <path d="M333.81,409.58l7.9-.07c.73-8,3.55-17.54,3.82-22.58l-9.76-.24Z" style="fill:#ffc3bd"></path>
        <path d="M389.73,416.23c6.68-1.41,6.18-1.41,9.9-2.34,3.19-.79,4.05-.56,6.62-1.16,2.15-.51,1.63-2.55.46-4.79-.51-1-1.2-2.11-1.93-3.59a1,1,0,0,0-1.13-.55l-8.8,1.87a1,1,0,0,0-.75.68,10.44,10.44,0,0,1-6.62,6.22C384,413.82,387.07,416.8,389.73,416.23Z"
              style="fill:#263238"></path>
        <path d="M323.49,416.23c4.88,0,8.11-.44,11.9-.57,3.25-.11,3.69.57,7,.57,2.17,0,2.78-2.44,2.23-4.28a39.34,39.34,0,0,1-1.36-4.27.9.9,0,0,0-.91-.72h-9.08a1.16,1.16,0,0,0-.88.45,12.32,12.32,0,0,1-9.61,5C319.08,412.7,320.81,416.23,323.49,416.23Z"
              style="fill:#263238"></path>
        <path d="M340.18,233.28s-3.6,48.29-2.17,79c-1.53,28.79-3.73,86.9-3.73,86.9.16,1.47,7.91.89,9.26,0,0,0,16.7-40.2,12.47-86.9,18.35-48.71,16.3-79,16.3-79Z"
              style="fill:#FFA113"></path>
        <path d="M358.38,252.66c2.86.47,10.53,5.92,11.53,9.36a256,256,0,0,1-8.44,34.47C356.85,283.65,356.09,265.12,358.38,252.66Z"
              style="opacity:0.2"></path>
        <path d="M349.82,233.28s13.28,54.51,19.65,81.27c6.68,28.11,20.38,65.1,23.19,83.59,1.75.58,7.27-.53,10.14-2.15,0,0,2.42-53.13-13.73-80.19,3.65-66.59-12-82.52-12-82.52Z"
              style="fill:#FFA113"></path>
        <path d="M391.08,394.5a27.48,27.48,0,0,1,.45,3.83.79.79,0,0,0,.85.78c3.84-.19,9-2.2,10.67-2.87a.78.78,0,0,0,.49-.77l-.19-3.63a.81.81,0,0,0-1-.74l-10.68,2.49A.79.79,0,0,0,391.08,394.5Z"
              style="fill:#263238"></path>
        <path d="M391.08,394.5a27.48,27.48,0,0,1,.45,3.83.79.79,0,0,0,.85.78c3.84-.19,9-2.2,10.67-2.87a.78.78,0,0,0,.49-.77l-.19-3.63a.81.81,0,0,0-1-.74l-10.68,2.49A.79.79,0,0,0,391.08,394.5Z"
              style="fill:#fff;opacity:0.1"></path>
        <path d="M333.41,395.08c-.07,1-.22,2.79-.37,4.1a.8.8,0,0,0,.69.88A55,55,0,0,0,344,400a.8.8,0,0,0,.7-.61l.85-3.58a.8.8,0,0,0-.74-1l-10.52-.42A.8.8,0,0,0,333.41,395.08Z"
              style="fill:#263238"></path>
        <path d="M333.41,395.08c-.07,1-.22,2.79-.37,4.1a.8.8,0,0,0,.69.88A55,55,0,0,0,344,400a.8.8,0,0,0,.7-.61l.85-3.58a.8.8,0,0,0-.74-1l-10.52-.42A.8.8,0,0,0,333.41,395.08Z"
              style="fill:#fff;opacity:0.1"></path>
        <path d="M351,190.25l-.66,1.1-.62,1c-.41.64-.84,1.24-1.26,1.84-.85,1.21-1.76,2.36-2.68,3.49a66.89,66.89,0,0,1-6,6.39c-1,1-2.17,2-3.27,2.93s-2.28,1.85-3.49,2.69a61.83,61.83,0,0,1-7.52,4.69l-.36.19a5,5,0,0,1-3,.58,17.88,17.88,0,0,1-4.6-1.19,20,20,0,0,1-3.9-2.15,21.31,21.31,0,0,1-3.14-2.69,26.56,26.56,0,0,1-2.53-3,36,36,0,0,1-3.7-6.32c-.5-1.08-.94-2.18-1.34-3.28a34.61,34.61,0,0,1-1-3.47,3.25,3.25,0,0,1,5.81-2.65l.19.27c.5.73,1.12,1.62,1.7,2.42s1.21,1.6,1.83,2.37a36.52,36.52,0,0,0,3.92,4.17,17.09,17.09,0,0,0,4.08,2.86,8,8,0,0,0,3.64.88l-3.4.77a66.91,66.91,0,0,0,5.78-4.33,65.73,65.73,0,0,0,5.32-5c1.69-1.76,3.33-3.59,4.85-5.5.77-1,1.49-1.92,2.22-2.89l1-1.46.49-.71.41-.61.26-.39a6.51,6.51,0,0,1,11,7Z"
              style="fill:#ffc3bd"></path>
        <path d="M349.4,177.17c-6.92-.19-13.63,6.26-17.87,13.55,1,4.66,11.47,12.36,11.47,12.36S358.51,188.12,349.4,177.17Z"
              style="fill:#263238"></path>
        <path d="M338.09,189.88a165.36,165.36,0,0,0,.25,16.87c.28,7.32.78,14.52,1.84,26.53h36.87c-.75-10.38.46-22.22,7.08-45.58a8.6,8.6,0,0,0-7.35-11.18c-1.46-.15-3-.27-4.6-.35a118.27,118.27,0,0,0-16.74,0c-1.82.17-3.7.4-5.51.65A13.88,13.88,0,0,0,338.09,189.88Z"
              style="fill:#263238"></path>
        <path d="M371,157.32c-1.46,5.39-3.25,15.26.25,18.85,0,0-5.1-.76-15.93,5.94-3.14-4.5-.81-5.94-.81-5.94,6.11-1.43,6.29-5.89,5.56-10.07Z"
              style="fill:#ffc3bd"></path>
        <path d="M357.61,180.76c3.56.5,4.68,5.89,4.68,5.89s8.57-6.06,11.28-10.33a36.25,36.25,0,0,1-3.13-2S359.69,178.7,357.61,180.76Z"
              style="fill:#fff"></path>
        <path d="M354.21,180.18s-3.08.83-4.19,5.17c-.82-7.86,2.85-9.19,2.85-9.19a4.56,4.56,0,0,1,3.22-.47A3.83,3.83,0,0,0,354.21,180.18Z"
              style="fill:#fff"></path>
        <path d="M366.55,160.9l-6.47,5.19a16.82,16.82,0,0,1,.3,3c2.32-.34,5.66-2.86,6.08-5.26A8.14,8.14,0,0,0,366.55,160.9Z"
              style="opacity:0.2"></path>
        <path d="M375.61,146.52c-1.64,8.69-2.15,12.4-7.11,16.57-7.46,6.27-17.72,2.95-18.7-5.91-.88-8,1.94-20.86,10.9-23.74A11.35,11.35,0,0,1,375.61,146.52Z"
              style="fill:#ffc3bd"></path>
        <path d="M375.83,151.08c-5.23,2.07-8.65-6.26-7.1-12-9.08,4.23-24-1.91-21.73-7.94,3.36,2.53,5.37,1.7,5.37,1.7s28.12-18,25.94-2.09C394,137,385.18,148.07,375.83,151.08Z"
              style="fill:#263238"></path>
        <path d="M355.85,125.71c-1.48,1-.48,4.89,7.21,1.38l2.87-.72c-6.31,5.49-12.06,9.11-15.1,6.85S350.28,124.7,355.85,125.71Z"
              style="fill:#263238"></path>
        <path d="M361.83,148c-.11.74-.57,1.31-1,1.27s-.77-.66-.67-1.39.58-1.31,1.05-1.27S361.94,147.23,361.83,148Z"
              style="fill:#263238"></path>
        <path d="M353,147.44c-.11.74-.58,1.3-1.05,1.27s-.76-.66-.66-1.4.57-1.3,1.05-1.26S353.05,146.7,353,147.44Z"
              style="fill:#263238"></path>
        <path d="M352.49,146.1l-1.66-.64S351.52,146.91,352.49,146.1Z" style="fill:#263238"></path>
        <path d="M355.25,148.47A21.82,21.82,0,0,1,352,153a2.94,2.94,0,0,0,2.5.68Z" style="fill:#ed847e"></path>
        <path d="M358.26,157a7.15,7.15,0,0,1-1.23,0,.19.19,0,0,1-.18-.23.23.23,0,0,1,.24-.2,6.22,6.22,0,0,0,5-1.94.22.22,0,0,1,.3,0,.22.22,0,0,1,0,.3A6.44,6.44,0,0,1,358.26,157Z"
              style="fill:#263238"></path>
        <path d="M377.38,153a6,6,0,0,1-3.78,3.14c-2,.49-2.85-1.85-2.12-4.15.66-2.07,2.51-4.82,4.47-4.27S378.45,151,377.38,153Z"
              style="fill:#ffc3bd"></path>
        <path d="M364.39,142.86a.48.48,0,0,1-.35-.12,4.09,4.09,0,0,0-3.27-1.08.46.46,0,0,1-.56-.34.49.49,0,0,1,.44-.51,5.15,5.15,0,0,1,4.16,1.32.4.4,0,0,1-.07.61A.55.55,0,0,1,364.39,142.86Z"
              style="fill:#263238"></path>
        <path d="M373.76,252.67c8.07-4.55,15.77-11.82,23.26-20.64-8.56-12.07-17.23-22.78-26.21-29.55-7.84,8.21-15.61,15.3-23.27,20.63C356.2,230.37,365,241.13,373.76,252.67Z"
              style="fill:#fff"></path>
        <path d="M350.81,142.86a.37.37,0,0,1-.3-.07.44.44,0,0,1-.06-.61,4.57,4.57,0,0,1,3.56-1.89.4.4,0,0,1,.38.46.47.47,0,0,1-.47.41,3.63,3.63,0,0,0-2.81,1.53A.4.4,0,0,1,350.81,142.86Z"
              style="fill:#263238"></path>
        <rect x="359.31" y="207.56" width="31.65" height="41.01" rx="1.72"
              transform="translate(806.71 147.55) rotate(138.13)" style="fill:#FFA113"></rect>
        <rect x="359.31" y="207.56" width="31.65" height="41.01" rx="1.72"
              transform="translate(806.71 147.55) rotate(138.13)" style="fill:#fff;opacity:0.4"></rect>
        <path d="M361.37,146.62l-1.66-.63S360.4,147.43,361.37,146.62Z" style="fill:#263238"></path>
        <path d="M362.65,239.84l.78-2.64a3.19,3.19,0,0,1,2-2.11l4.57-1.57a6,6,0,0,1,5.42.79l1,.7c-1,4.46-5.37,8.55-5.37,8.55l-1.11,1.3a2.67,2.67,0,0,1-3.77.38l-2.61-2.18A3.07,3.07,0,0,1,362.65,239.84Z"
              style="fill:#ffc3bd"></path>
        <path d="M300.34,183.6l2.71.42a3.2,3.2,0,0,1,2.37,1.73l2.16,4.33a5.94,5.94,0,0,1-.07,5.47l-.56,1.06c-4.55-.4-9.18-4.19-9.18-4.19l-1.44-.93a2.68,2.68,0,0,1-.88-3.69l1.81-2.87A3.09,3.09,0,0,1,300.34,183.6Z"
              style="fill:#ffc3bd"></path>
        <path d="M292.83,199.43a.26.26,0,0,1-.2-.1,3.25,3.25,0,0,1-.49-2.25,3,3,0,0,1,1.38-1.9.23.23,0,0,1,.32.07.23.23,0,0,1-.06.32,2.53,2.53,0,0,0-1.18,1.59,2.79,2.79,0,0,0,.42,1.9.24.24,0,0,1-.19.37Z"
              style="fill:#e0e0e0"></path>
        <path d="M298,187l3.66,4a.61.61,0,0,1,0,.86l-4.92,4.49a.61.61,0,0,1-.55.14l-3.19-.77a.6.6,0,0,1-.45-.51L292,192a.64.64,0,0,1,.19-.54l4.92-4.48A.61.61,0,0,1,298,187Zm-4.81,8.08a.78.78,0,1,0,1.15-1.06.77.77,0,0,0-1.1,0A.78.78,0,0,0,293.14,195.12Z"
              style="fill:#263238"></path>
        <path d="M292.92,198.76a2.25,2.25,0,0,1-.14,4.43l-1.13,5.25-.51.33-.39-.61v-1.08l.28-.84-.11-.55.16-.75,0-.71v-.47l.12-.9a2.23,2.23,0,0,1-1-2.37A2.26,2.26,0,0,1,292.92,198.76Zm-.42,2a.78.78,0,0,0,.33-1.52.79.79,0,0,0-.93.6A.78.78,0,0,0,292.5,200.71Z"
              style="fill:#FFA113"></path>
        <path d="M292.83,199.43a.22.22,0,0,1-.2-.12.22.22,0,0,1,.08-.32,2.85,2.85,0,0,0,1.16-1.55,2.55,2.55,0,0,0-.42-1.94.23.23,0,0,1,.08-.32.24.24,0,0,1,.32.07,3,3,0,0,1,.47,2.3,3.19,3.19,0,0,1-1.37,1.84A.19.19,0,0,1,292.83,199.43Z"
              style="fill:#e0e0e0"></path>
        <path d="M387.68,186c.33.72.55,1.23.8,1.83s.46,1.15.68,1.72c.44,1.15.82,2.31,1.19,3.46a71.34,71.34,0,0,1,1.82,7.08,61,61,0,0,1,1.06,7.31,56.7,56.7,0,0,1,.16,7.5v.43a4.16,4.16,0,0,1-.12.81,17.65,17.65,0,0,1-1.75,4.26,33.86,33.86,0,0,1-2.08,3.19,53,53,0,0,1-4.51,5.32c-1.58,1.62-3.2,3.15-4.87,4.61s-3.37,2.83-5.23,4.15a3.28,3.28,0,0,1-4.59-4.53l0-.07,3.55-5.14c1.17-1.72,2.33-3.42,3.41-5.13s2.11-3.42,3-5.05a22.86,22.86,0,0,0,1.09-2.36,6.64,6.64,0,0,0,.46-1.73l-.13,1.24c-.17-2-.38-3.95-.74-5.95s-.78-4-1.3-6-1.1-4-1.75-5.94c-.32-1-.67-2-1-2.92l-.53-1.43-.49-1.29-.13-.34a6.52,6.52,0,0,1,12-5.05Z"
              style="fill:#ffc3bd"></path>
        <path d="M377.12,176.57c6,.92,8.41,2.75,13.31,14.81-2.22,4.5-12.64,8.8-12.64,8.8S369.47,187.18,377.12,176.57Z"
              style="fill:#263238"></path>
    </g>
</svg>