<svg xmlns="http://www.w3.org/2000/svg" viewBox="0 0 500 500"><g id="freepik--background-simple--inject-61"><path d="M280.26,172.81c-19.55,8.46-39,21.56-45.91,41.71-2.62,7.66-3.29,16-7.07,23.17-3.62,6.86-9.77,12-16,16.6a207.58,207.58,0,0,1-54.7,28.77c-12.26,4.25-24.93,7.36-36.85,12.49S96.42,308.12,89.39,319c-5.16,8-7.54,18.9-2.4,26.92s15.79,10.36,25.33,11.4c30.5,3.34,61.32,1.17,91.93-1,24.7-1.75,49.63-3.55,73.36-10.62,28-8.34,53.27-23.71,78.2-38.93,10.38-6.33,21.86-14.3,23.26-26.38,1.48-12.75-9.14-24-9.92-36.83-.59-9.7,4.56-18.85,10.72-26.36s13.51-14.1,18.7-22.32,7.93-18.85,3.85-27.67c-7.6-16.42-37.51-11.6-51.72-10.87A204,204,0,0,0,280.26,172.81Z" style="fill:#FFA113"></path><path d="M280.26,172.81c-19.55,8.46-39,21.56-45.91,41.71-2.62,7.66-3.29,16-7.07,23.17-3.62,6.86-9.77,12-16,16.6a207.58,207.58,0,0,1-54.7,28.77c-12.26,4.25-24.93,7.36-36.85,12.49S96.42,308.12,89.39,319c-5.16,8-7.54,18.9-2.4,26.92s15.79,10.36,25.33,11.4c30.5,3.34,61.32,1.17,91.93-1,24.7-1.75,49.63-3.55,73.36-10.62,28-8.34,53.27-23.71,78.2-38.93,10.38-6.33,21.86-14.3,23.26-26.38,1.48-12.75-9.14-24-9.92-36.83-.59-9.7,4.56-18.85,10.72-26.36s13.51-14.1,18.7-22.32,7.93-18.85,3.85-27.67c-7.6-16.42-37.51-11.6-51.72-10.87A204,204,0,0,0,280.26,172.81Z" style="fill:#fff;opacity:0.9"></path></g><g id="freepik--Shadow--inject-61"><ellipse id="freepik--path--inject-61" cx="250" cy="415.69" rx="193.89" ry="11.32" style="fill:#f5f5f5"></ellipse></g><g id="freepik--character--inject-61"><path d="M165,382.83h-7.42v-.75c12.4,0,25.1,0,37.73-.2v.75C185.19,382.76,175,382.83,165,382.83Z" style="fill:#FFA113"></path><path d="M151.47,382.79c-5.33,0-10.77-.09-16.19-.17v-.75c5.41.08,10.86.14,16.19.17Z" style="fill:#FFA113"></path><rect x="123.78" y="381.87" width="6.06" height="0.75" style="fill:#FFA113"></rect><rect x="246.6" y="397.65" width="38.04" height="0.75" style="fill:#FFA113"></rect><rect x="239.4" y="397.65" width="3.1" height="0.75" style="fill:#FFA113"></rect><rect x="297.91" y="353.68" width="17.29" height="0.75" style="fill:#FFA113"></rect><rect x="283.76" y="353.68" width="9.74" height="0.75" style="fill:#FFA113"></rect><path d="M233.64,358.73l-26.59,11.72c-.81-.65-5.79-9.55-5.79-9.55l23.51-12Z" style="fill:#ffb573"></path><path d="M208,372.92a.33.33,0,0,1,.1-.32.32.32,0,0,1,.34,0c.18.11,4.36,2.67,4.84,4.72a1.42,1.42,0,0,1-.14,1.14,1.07,1.07,0,0,1-1.1.62c-.84-.06-1.75-1.29-2.5-2.67A20.81,20.81,0,0,1,208,372.92Zm4.54,4a12.86,12.86,0,0,0-3.66-3.39c.8,2.13,2.31,4.84,3.27,5,.13,0,.32,0,.53-.37a.82.82,0,0,0,.09-.68,2.44,2.44,0,0,0-.21-.53Z" style="fill:#FFA113"></path><path d="M208.08,372.73a.28.28,0,0,1,.21-.2c.13,0,3.16-1.34,5-.59a2.12,2.12,0,0,1,1.14,1.21,1.06,1.06,0,0,1-.21,1.35c-1.09.87-4.8-.43-6.09-1.4l-.09-.1Zm5-.23a6.68,6.68,0,0,0-4.07.39c1.52.88,4.34,1.68,5,1.12,0-.05.21-.18,0-.65l-.13-.14A1.43,1.43,0,0,0,213.08,372.5Z" style="fill:#FFA113"></path><path d="M209.11,370.19l-1.74-1.39a8.65,8.65,0,0,1-3.25-6.35l-.14-2.91a1,1,0,0,0-1.21-.55L193,361.16c-1,.28-1.17,2.48-1.12,2.58,2.5,6.81,9,20.94,11.28,25.51s7.15,2.88,6.61.8c-2.42-9.32-1.49-13.78-.44-17.67A2.92,2.92,0,0,0,209.11,370.19Z" style="fill:#263238"></path><g style="opacity:0.2"><path d="M216.54,353.06l8.23-4.21,8.87,9.88-12.17,5.36-2.1-2.35a9.48,9.48,0,0,1-2.33-5Z"></path></g><path d="M261.08,253.14a27.72,27.72,0,0,0-1.59,6.22c-1.71,11.2-6.87,68.71-9.43,70.05-7.67,4-12.69,5.34-29.71,20.53,2.31,4.42,4.46,7.52,6.61,12.73,0,0,31-10.75,40.92-21.17,10.2-10.76,22.91-59.92,26.43-72.85,2-7.35,4.29-16.12-.2-22.2C291.59,243,267.93,233.33,261.08,253.14Z" style="fill:#FFA113"></path><path d="M261.08,253.14a27.72,27.72,0,0,0-1.59,6.22c-1.71,11.2-6.87,68.71-9.43,70.05-7.67,4-12.69,5.34-29.71,20.53,2.31,4.42,4.46,7.52,6.61,12.73,0,0,31-10.75,40.92-21.17,10.2-10.76,22.91-59.92,26.43-72.85,2-7.35,4.29-16.12-.2-22.2C291.59,243,267.93,233.33,261.08,253.14Z" style="fill:#FFA113"></path><path d="M261.08,253.14a27.72,27.72,0,0,0-1.59,6.22c-1.71,11.2-6.87,68.71-9.43,70.05-7.67,4-12.69,5.34-29.71,20.53,2.31,4.42,4.46,7.52,6.61,12.73,0,0,31-10.75,40.92-21.17,10.2-10.76,22.91-59.92,26.43-72.85,2-7.35,4.29-16.12-.2-22.2C291.59,243,267.93,233.33,261.08,253.14Z" style="opacity:0.5"></path><path d="M342.83,190.49l-20.83,30a9.23,9.23,0,0,1-5.27,3.72c-3.11.78-7.64,1-11.29-2.8a96.66,96.66,0,0,1-9.19-9.88q-8.42-10-16.58-20.26c-2.16-2.72-4.36-5.54-5.4-8.85s-.72-7.3,1.72-9.78c2.79-2.85,9.11-4.44,12.71-2.72,6.5,3.11,17.9,23.72,24.47,34.8,7.33-6.53,21-18.09,21-18.09Z" style="fill:#FFA113"></path><path d="M342.83,190.49l-20.83,30a9.23,9.23,0,0,1-5.27,3.72c-3.11.78-7.64,1-11.29-2.8a96.66,96.66,0,0,1-9.19-9.88q-8.42-10-16.58-20.26c-2.16-2.72-4.36-5.54-5.4-8.85s-.72-7.3,1.72-9.78c2.79-2.85,9.11-4.44,12.71-2.72,6.5,3.11,17.9,23.72,24.47,34.8,7.33-6.53,21-18.09,21-18.09Z" style="fill:#fff;opacity:0.6000000000000001"></path><path d="M296.48,233.55c-.81,6.17-35,8.39-41.51,3L240.4,186.72a12.09,12.09,0,0,1,9.33-15.25c.9-.17,1.7-.32,2.38-.47,1.45-.3,2.26-.52,1.89-.55,0,0,.72-.25,2-.6a69.73,69.73,0,0,1,18.57-2.79c5.71,4.41,10.41,12,12.18,16.95,3.78,10.57,3.1,22.46,1.18,33.34a107.62,107.62,0,0,1-5,19.14c-.74,2,2.49,2.72,3.23.75,6-16,9.4-35.88,4.34-52.44A38.69,38.69,0,0,0,279,167.34c5.12.63,9.92,2.42,13.11,6.27,3,3.61,3.61,9.32,4.23,12.54C297.63,193,297.28,227.38,296.48,233.55Z" style="fill:#FFA113"></path><path d="M286.12,237.24c-.74,2-4,1.24-3.23-.75a107.62,107.62,0,0,0,5-19.14c1.92-10.88,2.6-22.77-1.18-33.34-1.77-4.94-6.47-12.54-12.18-16.95a38.49,38.49,0,0,1,4.44.28,38.69,38.69,0,0,1,11.48,17.46C295.52,201.36,292.09,221.27,286.12,237.24Z" style="fill:#FFA113"></path><path d="M296.48,233.55h0a64.64,64.64,0,0,1-.71,30.26l-2.3,8.68h0s-26.24,12.8-37.36,1.6S255,236.56,255,236.56A163.17,163.17,0,0,0,296.48,233.55Z" style="fill:#FFA113"></path><path d="M296.48,233.55h0a64.64,64.64,0,0,1-.71,30.26l-2.3,8.68h0s-26.24,12.8-37.36,1.6S255,236.56,255,236.56A163.17,163.17,0,0,0,296.48,233.55Z" style="opacity:0.5"></path><path d="M258.7,264.5c3,.76,31,24.28,31,24.28L283,309.09l-25.43-27.15Z" style="opacity:0.4"></path><path d="M344,374.92l3.44,28.85c-.86.59-10.32,5.5-10.82,2.75-1.52-8.38-4.66-26-4.66-26Z" style="fill:#ffb573"></path><path d="M349.51,402.84a.3.3,0,0,1-.32-.1.31.31,0,0,1,0-.33c.11-.18,2.62-4.39,4.66-4.91a1.47,1.47,0,0,1,1.14.13,1.1,1.1,0,0,1,.64,1.09c-.06.84-1.27,1.77-2.65,2.53A20,20,0,0,1,349.51,402.84Zm4-4.59a12.86,12.86,0,0,0-3.34,3.71c2.11-.84,4.8-2.37,4.91-3.34,0-.13,0-.31-.38-.53A.85.85,0,0,0,354,398a3,3,0,0,0-.52.22Z" style="fill:#FFA113"></path><path d="M349.32,402.8a.28.28,0,0,1-.21-.21c-.05-.13-1.38-3.14-.66-5a2.14,2.14,0,0,1,1.21-1.15,1,1,0,0,1,1.34.18c.88,1.08-.36,4.81-1.32,6.11l-.09.09Zm-.3-5a6.7,6.7,0,0,0,.45,4.07c.86-1.54,1.61-4.37,1-5-.05,0-.17-.21-.64,0l-.14.13A1.47,1.47,0,0,0,349,397.8Z" style="fill:#FFA113"></path><path d="M346.76,401.8l-10.58,5.27a1,1,0,0,0-.53,1.22l2.29,9.79c.3,1,2.5,1.14,2.6,1.09,6.77-2.6,20.82-9.24,25.36-11.62s2.78-7.19.71-6.62c-9.29,2.54-13.75,1.67-17.66.67A2.92,2.92,0,0,0,346.76,401.8Z" style="fill:#263238"></path><g style="opacity:0.2"><polygon points="333.53 389.23 331.97 380.52 344.01 374.93 345.28 386.75 333.53 389.23"></polygon></g><path d="M253.17,270.49c6.61,10.62,36,30.91,50.56,47.36,11,12.39,20.26,49.9,27.41,65.81,6.25-1.53,11.88-1.54,15.51-3,0,0-4.46-45.89-7.35-58.36-5.32-23-35.78-51.17-65.43-76.18-5-4.18-12.15-5.22-19.15-.65C253.44,246.28,246.77,260.18,253.17,270.49Z" style="fill:#FFA113"></path><path d="M253.17,270.49c6.61,10.62,36,30.91,50.56,47.36,11,12.39,20.26,49.9,27.41,65.81,6.25-1.53,11.88-1.54,15.51-3,0,0-4.46-45.89-7.35-58.36-5.32-23-35.78-51.17-65.43-76.18-5-4.18-12.15-5.22-19.15-.65C253.44,246.28,246.77,260.18,253.17,270.49Z" style="opacity:0.5"></path><path d="M286.12,237.24c-.74,2-4,1.24-3.23-.75a107.62,107.62,0,0,0,5-19.14c1.92-10.88,2.6-22.77-1.18-33.34-1.77-4.94-6.47-12.54-12.18-16.95-4.55-3.51-15-3.11-18.57,2.79-1.25.35-2,.6-2,.6.37,0-.44.25-1.89.55a16.38,16.38,0,0,1,16.42-8.48c4.37.59,6.94,1.84,10.45,4.82a38.69,38.69,0,0,1,11.48,17.46C295.52,201.36,292.09,221.27,286.12,237.24Z" style="fill:#263238"></path><path d="M219.33,217.61h59.49a3.24,3.24,0,0,1,3.24,3.24V253.3a5.59,5.59,0,0,1-5.59,5.59H221.68a5.59,5.59,0,0,1-5.59-5.59V220.85A3.24,3.24,0,0,1,219.33,217.61Z" transform="translate(135.54 -87.19) rotate(27.04)" style="fill:#FFA113"></path><path d="M219.33,217.61h59.49a3.24,3.24,0,0,1,3.24,3.24V253.3a5.59,5.59,0,0,1-5.59,5.59H221.68a5.59,5.59,0,0,1-5.59-5.59V220.85A3.24,3.24,0,0,1,219.33,217.61Z" transform="translate(135.54 -87.19) rotate(27.04)" style="fill:#fff;opacity:0.30000000000000004"></path><path d="M283.12,236.66l-52.81-26.95a3.35,3.35,0,0,0-4.5,1.45l-.55,1.09a9.4,9.4,0,0,0,4.1,12.66l42,21.44a9.41,9.41,0,0,0,12.66-4.1l.56-1.09A3.36,3.36,0,0,0,283.12,236.66Z" style="opacity:0.2"></path><path d="M284.87,233.34l-52.81-27a3.36,3.36,0,0,0-4.5,1.46l-.55,1.09a9.4,9.4,0,0,0,4.1,12.66l42,21.44a9.42,9.42,0,0,0,12.66-4.1l.56-1.09A3.36,3.36,0,0,0,284.87,233.34Z" style="fill:#FFA113"></path><path d="M284.87,233.34l-52.81-27a3.36,3.36,0,0,0-4.5,1.46l-.55,1.09a9.4,9.4,0,0,0,4.1,12.66l42,21.44a9.42,9.42,0,0,0,12.66-4.1l.56-1.09A3.36,3.36,0,0,0,284.87,233.34Z" style="fill:#FFA113"></path><path d="M284.87,233.34l-52.81-27a3.36,3.36,0,0,0-4.5,1.46l-.55,1.09a9.4,9.4,0,0,0,4.1,12.66l42,21.44a9.42,9.42,0,0,0,12.66-4.1l.56-1.09A3.36,3.36,0,0,0,284.87,233.34Z" style="fill:#fff;opacity:0.5"></path><rect x="234.32" y="219.32" width="6.31" height="13.26" rx="1.95" transform="translate(128.7 -83.26) rotate(27.04)" style="fill:#FFA113"></rect><rect x="262.76" y="233.84" width="6.31" height="13.26" rx="1.95" transform="translate(138.34 -94.58) rotate(27.03)" style="fill:#FFA113"></rect><rect x="234.32" y="219.32" width="6.31" height="13.26" rx="1.95" transform="translate(128.7 -83.26) rotate(27.04)" style="opacity:0.30000000000000004"></rect><rect x="262.76" y="233.84" width="6.31" height="13.26" rx="1.95" transform="translate(138.34 -94.58) rotate(27.03)" style="opacity:0.30000000000000004"></rect><path d="M219.49,246.32s18.71,11,24.65,1.61l-4.45,8.7Z" style="opacity:0.2"></path><path d="M257.19,172.8c.43,1.31,5.66,11.45,8.44,14.94a13.19,13.19,0,0,1,3.4-3.52,2.81,2.81,0,0,1,2.71-.22c3.65,1.64,6.47,3.16,6.47,3.16a22.55,22.55,0,0,1,3.67-6.51c1.28-1.37,4.27,1.5,6,2.28-.86-4.68-4.87-12.58-9.32-14.9C274.57,165.94,254.44,164.34,257.19,172.8Z" style="fill:#fff"></path><path d="M348.83,374.48c.11,0,.46,8.21.46,8.21l-21.05,3.64L326.87,379Z" style="fill:#FFA113"></path><path d="M348.83,374.48c.11,0,.46,8.21.46,8.21l-21.05,3.64L326.87,379Z" style="fill:#fff;opacity:0.6000000000000001"></path><path d="M233.55,363c0,.09-7.17,3.14-7.17,3.14L216.85,347l6.17-3.67Z" style="fill:#FFA113"></path><path d="M233.55,363c0,.09-7.17,3.14-7.17,3.14L216.85,347l6.17-3.67Z" style="fill:#fff;opacity:0.6000000000000001"></path><path d="M338,186.12l-9.25.38a3.37,3.37,0,0,1-3.57-3.6l1.17-25.56a1.79,1.79,0,0,1,1.68-1.68l11.38-.47a3.37,3.37,0,0,1,3.57,3.6l-1.07,23.42A4.18,4.18,0,0,1,338,186.12Z" style="fill:#FFA113"></path><path d="M338,186.12l-9.25.38a3.37,3.37,0,0,1-3.57-3.6l1.17-25.56a1.79,1.79,0,0,1,1.68-1.68l11.38-.47a3.37,3.37,0,0,1,3.57,3.6l-1.07,23.42A4.18,4.18,0,0,1,338,186.12Z" style="opacity:0.2"></path><path d="M338.52,186.57l-9.25.39a3.38,3.38,0,0,1-3.57-3.6l1.17-25.57a1.77,1.77,0,0,1,1.68-1.67l11.38-.48a3.38,3.38,0,0,1,3.57,3.6l-1.07,23.42A4.16,4.16,0,0,1,338.52,186.57Z" style="fill:#FFA113"></path><path d="M338.43,186.58l-9.06.37a3.48,3.48,0,0,1-3.67-3.68l1.17-25.4a1.89,1.89,0,0,1,1.77-1.76l11.19-.46a3.47,3.47,0,0,1,3.67,3.68l-1.07,23.26A4.26,4.26,0,0,1,338.43,186.58Z" style="fill:#fff;opacity:0.5"></path><path d="M332.43,163.53l-4.06.17a1.6,1.6,0,0,1-1.69-1.71l.19-4.16a1.83,1.83,0,0,1,1.72-1.72l4.19-.17a1.59,1.59,0,0,1,1.68,1.7l-.18,4A2,2,0,0,1,332.43,163.53Z" style="fill:#fff;opacity:0.30000000000000004"></path><path d="M332.07,163.2l-3.69.16a1.61,1.61,0,0,1-1.69-1.71l.17-3.69a2,2,0,0,1,1.85-1.85l3.69-.15a1.6,1.6,0,0,1,1.69,1.7l-.17,3.69A2,2,0,0,1,332.07,163.2Z" style="fill:#263238"></path><path d="M332.07,163.2l-3.69.16a1.61,1.61,0,0,1-1.69-1.71l.17-3.69a2,2,0,0,1,1.85-1.85l3.69-.15a1.6,1.6,0,0,1,1.69,1.7l-.17,3.69A2,2,0,0,1,332.07,163.2Z" style="fill:#fff;opacity:0.1"></path><path d="M336.47,171.6a2.09,2.09,0,0,1-2,2,1.69,1.69,0,0,1-1.8-1.81,2.11,2.11,0,0,1,2-2A1.71,1.71,0,0,1,336.47,171.6Z" style="fill:#fff"></path><path d="M343,190.46l1.46-3A9.08,9.08,0,0,0,342.91,177l-3.25-3.06s-5.49,12.89-4.12,13.05c.68.08,1,1.33,3.36,2.88A4.39,4.39,0,0,0,343,190.46Z" style="fill:#ffb573"></path><path d="M339.66,173.92s-4.31-.86-5.51.61-2,7.53-2.1,8.33c-.2,2.13,3.49,4.11,3.49,4.11Z" style="fill:#ffb573"></path><path d="M261.38,157.67c-3.73-2.89-7.06-6.49-8.69-10.95-1.75-4.76-1.17-10.63,2.37-14.21.29-.28.67-.58,1.05-.44a1.16,1.16,0,0,1,.55.76c.08.2.15.42.22.63s.16.47.23.71a13.86,13.86,0,0,0-1.06,3,13.27,13.27,0,0,0,.05,6c.34,1.48.63,2.81.93,4.05C258.15,152,259.11,155,261.38,157.67Z" style="fill:#263238"></path><path d="M262.15,158.26l-.75-.57s0,0,0,0c-2.27-2.63-3.23-5.71-4.35-10.49-.3-1.24-.59-2.57-.93-4.05a13.27,13.27,0,0,1-.05-6,13.86,13.86,0,0,1,1.06-3c1.33,4.25,1.68,8.71,2.27,13.1A37.94,37.94,0,0,0,262.15,158.26Z" style="fill:#263238"></path><path d="M262.9,153c.75,4.93,1.41,11.86-1.1,15.9a4.06,4.06,0,0,0,.06,4.54c1.68,2.32,5.45,5.77,13.94,9.55,2.32-3.12,3.11-5.61,3.2-7.49a5.21,5.21,0,0,0-3.28-5c-4.08-1.72-3.74-4.14-2.66-7.93Z" style="fill:#ffb573"></path><path d="M267,156.89l6,5.72a17.7,17.7,0,0,0-.64,3.06c-2.35-.44-6-2.62-6.35-5.24A7.72,7.72,0,0,1,267,156.89Z" style="opacity:0.2;isolation:isolate"></path><path d="M283.89,152.06a11.54,11.54,0,0,1-10.95,11h-.07a12.83,12.83,0,0,1-6.43-1.4,14.21,14.21,0,0,1-2.1-1.3c-.27-.19-.54-.4-.78-.6a16,16,0,0,1-2.16-2.09s0,0,0,0c-2.27-2.63-3.23-5.71-4.35-10.49-.3-1.24-.59-2.57-.93-4.05a13.27,13.27,0,0,1-.05-6,13.86,13.86,0,0,1,1.06-3,10.43,10.43,0,0,1,.7-1.22,12.56,12.56,0,0,1,13.49-5.54c4.37,1,7.49,4.35,9.54,8.57.2.42.39.85.57,1.28A34.2,34.2,0,0,1,283.89,152.06Z" style="fill:#ffb573"></path><path d="M271.15,143.09c.14.76.64,1.31,1.12,1.24s.78-.78.66-1.54-.63-1.31-1.11-1.24S271.07,142.36,271.15,143.09Z" style="fill:#263238"></path><path d="M279.61,141.67c.13.78.63,1.31,1.11,1.24s.79-.78.67-1.54-.63-1.31-1.12-1.22S279.49,140.91,279.61,141.67Z" style="fill:#263238"></path><path d="M277.23,143.5a21,21,0,0,0,3.48,4.41,3.31,3.31,0,0,1-2.59,1Z" style="fill:#ed893e"></path><path d="M274.54,152.55a7.06,7.06,0,0,0,1.12-.1.23.23,0,0,0,.19-.25h0a.23.23,0,0,0-.26-.18,6,6,0,0,1-5.22-1.54.22.22,0,0,0-.32,0,.23.23,0,0,0,0,.32A6.16,6.16,0,0,0,274.54,152.55Z" style="fill:#263238"></path><path d="M267.47,141.93a.42.42,0,0,0,.42-.31,5.35,5.35,0,0,1,3.15-2.86.46.46,0,0,0,.3-.57.44.44,0,0,0-.55-.3h0a6.05,6.05,0,0,0-3.73,3.46.44.44,0,0,0,.29.55h0A.22.22,0,0,0,267.47,141.93Z" style="fill:#263238"></path><path d="M281.49,137.26a.45.45,0,0,0,.22-.85,4.27,4.27,0,0,0-4.1-.28.44.44,0,0,0-.21.57l0,0a.43.43,0,0,0,.59.19h0a3.48,3.48,0,0,1,3.21.27A.4.4,0,0,0,281.49,137.26Z" style="fill:#263238"></path><path d="M261.79,149.58c-.37.53-1.76-2.2-2.41-2.31a9.26,9.26,0,0,0-2.35-.09c-.3-1.24-.59-2.57-.93-4.05a13.27,13.27,0,0,1-.05-6,13.86,13.86,0,0,1,1.06-3c-.07-.24-.14-.48-.23-.71h0a5.52,5.52,0,0,1,.92-.51,4.47,4.47,0,0,1,2.34-.34,3.81,3.81,0,0,1,2.73,2.15C259.88,141,263,147.91,261.79,149.58Z" style="opacity:0.2;isolation:isolate"></path><path d="M261.24,122.82a14,14,0,0,0-7.89,5.75c-1.09,1.74-1.73,4.35-.5,5.92,1,1.3,2.79,1.17,4.3.95l19.53-2.93c2.25-.34,4.64-.75,6.34-2.52a7.61,7.61,0,0,0,1.88-6.21c.09.62-5.49.94-6,.91a15.62,15.62,0,0,1-6.19-1.82C269.15,121,265,121.66,261.24,122.82Z" style="fill:#263238"></path><path d="M254.79,150.76a6.76,6.76,0,0,0,4,3.27c2.27.64,3.41-1.42,2.78-3.62-.58-2-2.44-4.68-4.72-4.4a3.09,3.09,0,0,0-2,4.75Z" style="fill:#ffb573"></path><path d="M262.88,134.68s-.09,1.4-.14,2.68a2.41,2.41,0,0,1-1.85,2.28l-6.23,1.49s-2.95-5.16-.25-6.1S263,132.89,262.88,134.68Z" style="fill:#263238"></path><path d="M247.92,253.75l7.65,10.68s8.79-4.75,9.4-5.52c0,0-2.22-5.19-6.42-7.4l-4-1.71Z" style="fill:#ffb573"></path><path d="M254.29,262.73l10.43-4.17,2.64,4.28a1.55,1.55,0,0,1-.69,2.22l-5.58,2.47a2.94,2.94,0,0,1-3.46-.81Z" style="fill:#ffb573"></path><path d="M234.16,183.18c-4.76,11.06-10.27,20.95-9.08,32.49,1.13,11,14.39,31.68,22.41,39.31-1.25-.56,10.27-5.59,10.27-5.59-.13-3.53-12.06-24.18-16.18-32.87-2.79-5.89,16.17-27.29,14.75-34C252.71,165.29,237.33,175.84,234.16,183.18Z" style="fill:#FFA113"></path><path d="M234.16,183.18c-4.76,11.06-10.27,20.95-9.08,32.49,1.13,11,14.39,31.68,22.41,39.31-1.25-.56,10.27-5.59,10.27-5.59-.13-3.53-12.06-24.18-16.18-32.87-2.79-5.89,16.17-27.29,14.75-34C252.71,165.29,237.33,175.84,234.16,183.18Z" style="fill:#fff;opacity:0.7000000000000001"></path><path d="M307.69,138.62a19,19,0,0,1-3.56-.3l-1.34-.3,1.21-.64c4-2.09,6.34-4.43,7-7a5.39,5.39,0,0,0-.57-4h-.22v-.21c-7.49-4-11.78-9.94-11.78-16.29,0-11.61,14.44-21.06,32.19-21.06s32.2,9.45,32.2,21.06S348.32,131,330.57,131a47.79,47.79,0,0,1-7.65-.6C318.83,137.43,311.9,138.62,307.69,138.62Zm-1.91-1.08c3.39.31,11.92.2,16.44-7.95l.17-.31.35.05a46.48,46.48,0,0,0,7.83.65c17.2,0,31.2-9,31.2-20.06s-14-20.06-31.2-20.06-31.19,9-31.19,20.06c0,6,4.16,11.66,11.42,15.5h.13l.07.1.16.08v.15a6.41,6.41,0,0,1,.77,4.9C311.31,133.17,309.25,135.48,305.78,137.54Z" style="fill:#FFA113"></path><polygon points="317.89 102.43 311.85 102.43 325.32 120.86 350.59 87.25 347.75 87.25 324.47 111.1 317.89 102.43" style="fill:#263238"></polygon></g></svg>