<svg xmlns="http://www.w3.org/2000/svg" viewBox="0 0 500 500">
    <g id="freepik--background-simple--inject-362">
        <path d="M415.36,125.13c4.79,74.55-85.2,155-150.07,176C202.78,321.4,77.78,313.85,71.39,226c-2.4-33,16.67-69,44.93-86.2,45.44-27.63,81.06,9.24,125.85,15.17,35.59,4.71,63.15-11.16,89.85-32.83C354.26,104.11,411.76,69.2,415.36,125.13Z"
              style="fill:#FFA113"></path>
        <path d="M415.36,125.13c4.79,74.55-85.2,155-150.07,176C202.78,321.4,77.78,313.85,71.39,226c-2.4-33,16.67-69,44.93-86.2,45.44-27.63,81.06,9.24,125.85,15.17,35.59,4.71,63.15-11.16,89.85-32.83C354.26,104.11,411.76,69.2,415.36,125.13Z"
              style="fill:#fff;opacity:0.8"></path>
    </g>
    <g id="freepik--Shadow--inject-362">
        <ellipse cx="250" cy="416.24" rx="193.89" ry="11.32" style="fill:#f5f5f5"></ellipse>
    </g>
    <g id="freepik--Coins--inject-362">
        <circle cx="108.63" cy="228.03" r="54.16" transform="translate(-129.43 143.6) rotate(-45)"
                style="fill:#FFA113"></circle>
        <circle cx="108.63" cy="228.03" r="54.16" transform="translate(-129.43 143.6) rotate(-45)"
                style="opacity:0.4"></circle>
        <circle cx="108.63" cy="228.03" r="45.48" transform="translate(-134.42 296.77) rotate(-80.32)"
                style="opacity:0.2"></circle>
        <circle cx="111.5" cy="229.83" r="43.66" transform="matrix(0.07, -1, 1, 0.07, -125.66, 324.74)"
                style="fill:#FFA113"></circle>
        <circle cx="111.5" cy="229.83" r="43.66" transform="matrix(0.07, -1, 1, 0.07, -125.66, 324.74)"
                style="opacity:0.4"></circle>
        <path d="M126.61,223.86l2.85,12.35A3.51,3.51,0,0,1,129,239a3.67,3.67,0,0,1-2.33,1.65l-10.86,2.51,2,8.69a3.47,3.47,0,0,1-.48,2.77A3.51,3.51,0,0,1,115,256.2a3.68,3.68,0,0,1-2.83-.44,3.48,3.48,0,0,1-1.64-2.28l-2-8.79-10.77,2.49a3.54,3.54,0,0,1-2.74-.46,3.5,3.5,0,0,1-1.65-2.28,3.56,3.56,0,0,1,.46-2.76,3.5,3.5,0,0,1,2.28-1.63l25.2-5.81-1.18-5.13L95,234.9a3.55,3.55,0,0,1-2.76-.43,3.5,3.5,0,0,1-1.63-2.31l-2.84-12.3a3.66,3.66,0,0,1,2.74-4.39L101.23,213l-2-8.7a3.55,3.55,0,0,1,.42-2.73,3.59,3.59,0,0,1,2.44-1.68,3.51,3.51,0,0,1,2.73.46,3.57,3.57,0,0,1,1.62,2.29l2,8.69,11-2.52a3.63,3.63,0,0,1,2.81.47,3.48,3.48,0,0,1,1.66,2.25,3.79,3.79,0,0,1-2.81,4.49l-25.2,5.81L97,226.93l25.11-5.79a3.63,3.63,0,0,1,2.81.47A3.45,3.45,0,0,1,126.61,223.86Z"
              style="fill:#FFA113"></path>
        <g style="opacity:0.7000000000000001">
            <path d="M126.61,223.86l2.85,12.35A3.51,3.51,0,0,1,129,239a3.67,3.67,0,0,1-2.33,1.65l-10.86,2.51,2,8.69a3.47,3.47,0,0,1-.48,2.77A3.51,3.51,0,0,1,115,256.2a3.68,3.68,0,0,1-2.83-.44,3.48,3.48,0,0,1-1.64-2.28l-2-8.79-10.77,2.49a3.54,3.54,0,0,1-2.74-.46,3.5,3.5,0,0,1-1.65-2.28,3.56,3.56,0,0,1,.46-2.76,3.5,3.5,0,0,1,2.28-1.63l25.2-5.81-1.18-5.13L95,234.9a3.55,3.55,0,0,1-2.76-.43,3.5,3.5,0,0,1-1.63-2.31l-2.84-12.3a3.66,3.66,0,0,1,2.74-4.39L101.23,213l-2-8.7a3.55,3.55,0,0,1,.42-2.73,3.59,3.59,0,0,1,2.44-1.68,3.51,3.51,0,0,1,2.73.46,3.57,3.57,0,0,1,1.62,2.29l2,8.69,11-2.52a3.63,3.63,0,0,1,2.81.47,3.48,3.48,0,0,1,1.66,2.25,3.79,3.79,0,0,1-2.81,4.49l-25.2,5.81L97,226.93l25.11-5.79a3.63,3.63,0,0,1,2.81.47A3.45,3.45,0,0,1,126.61,223.86Z"
                  style="fill:#fff"></path>
        </g>
        <circle cx="195.33" cy="160.54" r="37.8" transform="translate(-53.37 206.13) rotate(-49.8)"
                style="fill:#FFA113"></circle>
        <circle cx="195.33" cy="160.54" r="37.8" transform="translate(-53.37 206.13) rotate(-49.8)"
                style="opacity:0.4"></circle>
        <circle cx="195.33" cy="160.54" r="31.74" transform="translate(-52.86 208.79) rotate(-50.42)"
                style="opacity:0.2"></circle>
        <circle cx="196.54" cy="162.57" r="30.47" transform="translate(-51.97 220.02) rotate(-52.61)"
                style="fill:#FFA113"></circle>
        <circle cx="196.54" cy="162.57" r="30.47" transform="translate(-51.97 220.02) rotate(-52.61)"
                style="opacity:0.4"></circle>
        <path d="M207.82,163.66l-2.15,8.58a2.41,2.41,0,0,1-1.18,1.55,2.58,2.58,0,0,1-2,.29L195,172.19l-1.52,6a2.42,2.42,0,0,1-1.18,1.56,2.46,2.46,0,0,1-1.92.29,2.57,2.57,0,0,1-1.61-1.17,2.46,2.46,0,0,1-.3-1.94l1.53-6.1L182.5,169a2.47,2.47,0,0,1-1.56-1.16,2.43,2.43,0,0,1-.3-1.93,2.46,2.46,0,0,1,1.16-1.58,2.49,2.49,0,0,1,1.94-.28l17.5,4.39.9-3.56-17.45-4.38a2.43,2.43,0,0,1-1.57-1.15,2.39,2.39,0,0,1-.28-1.94l2.14-8.55a2.54,2.54,0,0,1,3.1-1.85l7.42,1.86,1.52-6A2.51,2.51,0,0,1,200.2,141a2.39,2.39,0,0,1,1.54,1.15,2.47,2.47,0,0,1,.29,1.93l-1.52,6,7.6,1.91a2.53,2.53,0,0,1,1.6,1.19,2.44,2.44,0,0,1,.32,1.92,2.58,2.58,0,0,1-1.2,1.6,2.55,2.55,0,0,1-2,.3l-17.51-4.39-.88,3.54,17.44,4.37a2.53,2.53,0,0,1,1.6,1.19A2.39,2.39,0,0,1,207.82,163.66Z"
              style="fill:#FFA113"></path>
        <g style="opacity:0.7000000000000001">
            <path d="M207.82,163.66l-2.15,8.58a2.41,2.41,0,0,1-1.18,1.55,2.58,2.58,0,0,1-2,.29L195,172.19l-1.52,6a2.42,2.42,0,0,1-1.18,1.56,2.46,2.46,0,0,1-1.92.29,2.57,2.57,0,0,1-1.61-1.17,2.46,2.46,0,0,1-.3-1.94l1.53-6.1L182.5,169a2.47,2.47,0,0,1-1.56-1.16,2.43,2.43,0,0,1-.3-1.93,2.46,2.46,0,0,1,1.16-1.58,2.49,2.49,0,0,1,1.94-.28l17.5,4.39.9-3.56-17.45-4.38a2.43,2.43,0,0,1-1.57-1.15,2.39,2.39,0,0,1-.28-1.94l2.14-8.55a2.54,2.54,0,0,1,3.1-1.85l7.42,1.86,1.52-6A2.51,2.51,0,0,1,200.2,141a2.39,2.39,0,0,1,1.54,1.15,2.47,2.47,0,0,1,.29,1.93l-1.52,6,7.6,1.91a2.53,2.53,0,0,1,1.6,1.19,2.44,2.44,0,0,1,.32,1.92,2.58,2.58,0,0,1-1.2,1.6,2.55,2.55,0,0,1-2,.3l-17.51-4.39-.88,3.54,17.44,4.37a2.53,2.53,0,0,1,1.6,1.19A2.39,2.39,0,0,1,207.82,163.66Z"
                  style="fill:#fff"></path>
        </g>
    </g>
    <g id="freepik--credit-card--inject-362">
        <rect x="102.26" y="388.97" width="1" height="11.29" style="fill:#FFA113"></rect>
        <rect x="102.26" y="388.97" width="1" height="11.29" style="opacity:0.1"></rect>
        <rect x="396.74" y="299.53" width="1" height="15.47" style="fill:#FFA113"></rect>
        <rect x="396.74" y="323.11" width="1" height="8.39" style="fill:#FFA113"></rect>
        <rect x="396.74" y="299.53" width="1" height="15.47" style="opacity:0.1"></rect>
        <rect x="396.74" y="323.11" width="1" height="8.39" style="opacity:0.1"></rect>
        <rect x="105.76" y="232.44" width="288.49" height="181.35" rx="15.05" style="fill:#FFA113"></rect>
        <rect x="105.76" y="232.44" width="288.49" height="181.35" rx="15.05" style="opacity:0.2"></rect>
        <circle cx="347.55" cy="276.92" r="18.67" style="opacity:0.2"></circle>
        <circle cx="323.45" cy="276.92" r="18.67" style="fill:#FFA113"></circle>
        <rect x="133.79" y="295.59" width="57.43" height="42.03" rx="6.48" style="fill:#FFA113"></rect>
        <rect x="133.79" y="295.59" width="57.43" height="42.03" rx="6.48"
              style="fill:#fff;opacity:0.30000000000000004"></rect>
        <rect x="133.79" y="253.67" width="86.31" height="9.17" rx="4.59" style="fill:#FFA113"></rect>
        <rect x="133.79" y="253.67" width="86.31" height="9.17" rx="4.59"
              style="fill:#fff;opacity:0.30000000000000004"></rect>
        <rect x="133.79" y="358.48" width="48.15" height="19.75" rx="6.73" style="fill:#FFA113"></rect>
        <rect x="133.79" y="358.48" width="48.15" height="19.75" rx="6.73"
              style="fill:#fff;opacity:0.30000000000000004"></rect>
        <rect x="195.21" y="358.48" width="48.15" height="19.75" rx="6.73" style="fill:#FFA113"></rect>
        <rect x="195.21" y="358.48" width="48.15" height="19.75" rx="6.73"
              style="fill:#fff;opacity:0.30000000000000004"></rect>
        <rect x="256.64" y="358.48" width="48.15" height="19.75" rx="6.73" style="fill:#FFA113"></rect>
        <rect x="256.64" y="358.48" width="48.15" height="19.75" rx="6.73"
              style="fill:#fff;opacity:0.30000000000000004"></rect>
        <rect x="318.06" y="358.48" width="48.15" height="19.75" rx="6.73" style="fill:#FFA113"></rect>
        <rect x="318.06" y="358.48" width="48.15" height="19.75" rx="6.73"
              style="fill:#fff;opacity:0.30000000000000004"></rect>
    </g>
    <g id="freepik--Character--inject-362">
        <path d="M293,166.82c-2.37,6.69-5,13.16-7.79,19.63a168.66,168.66,0,0,1-9.7,19.14c-.49.79-1,1.58-1.53,2.37l-.39.59-.53.73c-.36.46-.7.86-1,1.25a52.21,52.21,0,0,1-4,4c-2.67,2.47-5.39,4.71-8.14,6.92-5.52,4.38-11.16,8.48-17,12.37l-3.49-4.33L254.13,215c2.43-2.41,4.84-4.84,7.09-7.27,1.11-1.21,2.19-2.45,3.08-3.59.22-.28.41-.56.58-.8l.21-.34.29-.52c.39-.69.8-1.36,1.18-2.07,3.06-5.75,5.76-12,8.36-18.34s5.1-12.73,7.5-19.07Z"
              style="fill:#e4897b"></path>
        <path d="M295.81,162c2.27,6.64-11.07,26.17-11.07,26.17L272,181.08a149,149,0,0,1,7.68-17.8C284.14,154.84,293.32,154.71,295.81,162Z"
              style="fill:#FFA113"></path>
        <path d="M295.81,162c2.27,6.64-11.07,26.17-11.07,26.17L272,181.08a149,149,0,0,1,7.68-17.8C284.14,154.84,293.32,154.71,295.81,162Z"
              style="fill:#fff;opacity:0.7000000000000001"></path>
        <path d="M296,162.83c-2.86-1.37-6.15-.22-9.62,5.26s-6.42,14.63-6.74,17.24l5.11,2.83S297.06,170.12,296,162.83Z"
              style="fill:#FFA113;opacity:0.31"></path>
        <path d="M287.18,156.92s-9.52,22.39-2.66,64.08h39.65c.49-6.09-2.31-35.78,4.56-64.46a101.24,101.24,0,0,0-13.22-1.68,147.9,147.9,0,0,0-16.85,0A76.45,76.45,0,0,0,287.18,156.92Z"
              style="fill:#FFA113"></path>
        <path d="M287.18,156.92s-9.52,22.39-2.66,64.08h39.65c.49-6.09-2.31-35.78,4.56-64.46a101.24,101.24,0,0,0-13.22-1.68,147.9,147.9,0,0,0-16.85,0A76.45,76.45,0,0,0,287.18,156.92Z"
              style="fill:#fff;opacity:0.7000000000000001"></path>
        <polygon points="338.21 398.63 332.34 403.89 321.15 392.24 327.03 386.98 338.21 398.63"
                 style="fill:#e4897b"></polygon>
        <polygon points="318.08 409.57 310.67 409.57 309.71 392.41 317.12 392.41 318.08 409.57"
                 style="fill:#e4897b"></polygon>
        <polygon points="321.16 392.24 326.92 398.25 332.8 392.98 327.04 386.98 321.16 392.24"
                 style="fill:#ce6f64"></polygon>
        <polygon points="317.12 392.41 309.71 392.41 310.21 401.26 317.62 401.26 317.12 392.41"
                 style="fill:#ce6f64"></polygon>
        <path d="M284.52,221s-7.81,54.06-10.47,83.48c-2.14,23.61,48.91,94,48.91,94l9.87-9.29s-37.28-63.11-34.41-89.39c2.78-25.45,12.2-78.83,12.2-78.83Z"
              style="fill:#FFA113"></path>
        <path d="M284.52,221s-7.81,54.06-10.47,83.48c-2.14,23.61,48.91,94,48.91,94l9.87-9.29s-37.28-63.11-34.41-89.39c2.78-25.45,12.2-78.83,12.2-78.83Z"
              style="opacity:0.7000000000000001"></path>
        <path d="M298.42,299.83c1.43-13.11,4.63-33.65,7.38-50.47-1.44-2.82-5.48-8.53-5.48-8.53-3.62,12.51-11.49,59.67-.26,123.36,11.7,18.86,22.9,34.32,22.9,34.32l1.53-24.32C313.68,353.85,296.43,318,298.42,299.83Z"
              style="opacity:0.2"></path>
        <path d="M298.62,221s-.7,56.65.5,77.88c1.31,23.24,7.91,100.25,7.91,100.25h13.58S320.2,324,321,301c.89-25,3.19-80,3.19-80Z"
              style="fill:#FFA113"></path>
        <path d="M298.62,221s-.7,56.65.5,77.88c1.31,23.24,7.91,100.25,7.91,100.25h13.58S320.2,324,321,301c.89-25,3.19-80,3.19-80Z"
              style="opacity:0.7000000000000001"></path>
        <path d="M310.28,408.72h8.33a.53.53,0,0,1,.55.5l.41,6.59a1.31,1.31,0,0,1-1.3,1.32c-2.9-.05-4.29-.22-7.95-.22-2.25,0-11.83.24-14.94.24s-3-3.08-1.71-3.36c5.91-1.25,13.24-3,15.34-4.62A2.09,2.09,0,0,1,310.28,408.72Z"
              style="fill:#263238"></path>
        <path d="M330.72,401.78l7.14-4.81a.66.66,0,0,1,.82,0l5.46,5.51a1.1,1.1,0,0,1-.26,1.67c-4.56,3.51-7.85,6.16-10.45,9.08-3,3.41-4.62,3.9-11.62,3.9-3.24,0-5.07-2.73-3.75-3.15,11.66-3.69,8.54-5.3,11.38-10.71A4,4,0,0,1,330.72,401.78Z"
              style="fill:#263238"></path>
        <path d="M241.11,228.56l-7.73.27,1.62,6.06s8.08.72,8.8-1.72Z" style="fill:#e4897b"></path>
        <polygon points="225.04 232.44 230.46 235.6 235 234.89 233.38 228.83 225.04 232.44"
                 style="fill:#e4897b"></polygon>
        <path d="M319.87,163.62c-.82,4.72.27,16,4.32,29.06a190.68,190.68,0,0,1,3.89-33.29v-.06C325.48,159.07,320.66,159.19,319.87,163.62Z"
              style="fill:#FFA113;opacity:0.31"></path>
        <path d="M314.5,135.88c-1.25,5.42-2.66,15.36,1,19,0,0-1.58,4.49-11.66,4.49-11.08,0-5.19-4.49-5.19-4.49,6.1-1.44,6.1-5.93,5.19-10.14Z"
              style="fill:#e4897b"></path>
        <polygon points="303.56 159.35 300.56 162.54 302.03 165.62 304.42 165.73 306.46 162.79 303.56 159.35"
                 style="fill:#FFA113"></polygon>
        <path d="M310.16,139.49l-6.31,5.22a17.35,17.35,0,0,1,.42,3c2.32-.33,5.58-2.87,5.91-5.29A7.88,7.88,0,0,0,310.16,139.49Z"
              style="fill:#ce6f64"></path>
        <path d="M301.35,117.5c-3.79,1.29-6.82,11.34-2.4,14S308.55,115.05,301.35,117.5Z" style="fill:#263238"></path>
        <path d="M316.87,130.2c-2.26,7-3.22,11.23-7.78,14.1a9.59,9.59,0,0,1-14.77-8.38c.09-6.73,3.77-17.09,11.52-18.39A9.71,9.71,0,0,1,316.87,130.2Z"
              style="fill:#e4897b"></path>
        <path d="M322.47,118.5c-2.26,5.46,3,.9,1.64,7.38-.88,4.22-8.5,14.33-11.44,13.41s-2.91-8.09.84-13.16c2.16-2.91-2.51-6.21-13-5.86s-16.83-5.55-2.89-9.88c0,0-5.14,3-2.09,4C299.85,116,327,107.56,322.47,118.5Z"
              style="fill:#263238"></path>
        <path d="M320.47,121c-.11,0,2.35-.61,3.66-5C324.13,116.07,323.7,122.54,320.47,121Z" style="fill:#263238"></path>
        <path d="M300.84,111.36c-6.45,2-3.78,4.25-1.11,4.81l6.12-2.4C296.55,115,300.84,111.36,300.84,111.36Z"
              style="fill:#263238"></path>
        <path d="M318.11,138.75a7.32,7.32,0,0,1-5,2.07c-2.47,0-3-2.34-1.67-4.3,1.18-1.76,3.88-3.88,6.06-2.93S319.75,137.14,318.11,138.75Z"
              style="fill:#e4897b"></path>
        <path d="M305.48,129.81c-.15.58-.58,1-1,.9s-.57-.63-.42-1.21.58-1,1-.89S305.63,129.23,305.48,129.81Z"
              style="fill:#263238"></path>
        <path d="M298.88,128.36c-.15.58-.58,1-1,.9s-.57-.62-.42-1.2.57-1,1-.9S299,127.78,298.88,128.36Z"
              style="fill:#263238"></path>
        <path d="M300.9,129.11a22.57,22.57,0,0,1-4,4.35,3.42,3.42,0,0,0,2.66,1.13Z" style="fill:#de5753"></path>
        <path d="M302,136.7a5.53,5.53,0,0,1-1.23-.14.18.18,0,0,1-.13-.21.18.18,0,0,1,.21-.13,5,5,0,0,0,4.24-1,.18.18,0,0,1,.25,0,.18.18,0,0,1,0,.25A5.08,5.08,0,0,1,302,136.7Z"
              style="fill:#263238"></path>
        <path d="M308.1,128.14a.34.34,0,0,1-.32-.21,2.7,2.7,0,0,0-1.9-1.61.35.35,0,0,1-.3-.4.36.36,0,0,1,.4-.3,3.38,3.38,0,0,1,2.44,2,.34.34,0,0,1-.18.46A.35.35,0,0,1,308.1,128.14Z"
              style="fill:#263238"></path>
        <path d="M296.65,125.49a.35.35,0,0,1-.22-.08.36.36,0,0,1-.05-.5,3.67,3.67,0,0,1,2.94-1.37.35.35,0,0,1,.32.38.34.34,0,0,1-.38.32,2.94,2.94,0,0,0-2.34,1.12A.34.34,0,0,1,296.65,125.49Z"
              style="fill:#263238"></path>
        <path d="M330.65,161.65c.78,1.21,1.43,2.28,2.09,3.44s1.29,2.28,1.91,3.44c1.22,2.31,2.37,4.67,3.42,7.08A73.7,73.7,0,0,1,343,191l.1.51.05.25.07.42a11.45,11.45,0,0,1,.13,1.69,14.87,14.87,0,0,1-.3,2.82,23.81,23.81,0,0,1-1.46,4.46,47.7,47.7,0,0,1-4,7.21,84,84,0,0,1-9.88,12.13L323.36,217c2.42-4.22,4.83-8.6,6.85-12.89a49,49,0,0,0,2.54-6.34,14.26,14.26,0,0,0,.58-2.78,4.16,4.16,0,0,0,0-.93c0-.09,0-.17-.06-.18s0,0,0-.05l-.06-.2-.12-.41a63.48,63.48,0,0,0-2.25-6.5c-.88-2.17-1.86-4.33-2.89-6.48s-2.14-4.27-3.28-6.39c-.56-1.06-1.15-2.11-1.74-3.15l-1.76-3Z"
              style="fill:#e4897b"></path>
        <path d="M307.66,410a2,2,0,0,1-1.4-.39,1,1,0,0,1-.22-.94.67.67,0,0,1,.41-.49c.91-.36,3,1.08,3.24,1.24a.16.16,0,0,1,.07.18.17.17,0,0,1-.13.14A9.5,9.5,0,0,1,307.66,410Zm-.87-1.53a.66.66,0,0,0-.21,0,.29.29,0,0,0-.19.24.63.63,0,0,0,.12.62c.34.34,1.31.38,2.64.12A5.94,5.94,0,0,0,306.79,408.48Z"
              style="fill:#fff"></path>
        <path d="M309.59,409.75l-.09,0c-.74-.44-1.84-2-1.67-2.8a.66.66,0,0,1,.63-.53.89.89,0,0,1,.73.24c.75.73.58,2.86.58,2.95a.18.18,0,0,1-.1.14Zm-1-3h-.08c-.25,0-.31.15-.33.25-.11.53.62,1.7,1.26,2.24a3.85,3.85,0,0,0-.48-2.34A.53.53,0,0,0,308.58,406.75Z"
              style="fill:#fff"></path>
        <path d="M325.92,405.8a1.3,1.3,0,0,1-.54-.1.88.88,0,0,1-.53-.62.51.51,0,0,1,.11-.49c.67-.81,4.18-.57,4.58-.54a.17.17,0,0,1,.16.13.18.18,0,0,1-.08.19A9.34,9.34,0,0,1,325.92,405.8Zm2.12-1.46c-1.23,0-2.52.12-2.81.47a.17.17,0,0,0,0,.18.53.53,0,0,0,.32.39c.56.23,1.82-.15,3.41-1Z"
              style="fill:#fff"></path>
        <path d="M329.53,404.4h0c-1,0-3.25-.77-3.42-1.57,0-.2,0-.48.48-.71,1.72-.81,3.05,1.91,3.11,2a.23.23,0,0,1,0,.18A.19.19,0,0,1,329.53,404.4Zm-2.31-2.07a1.09,1.09,0,0,0-.49.11c-.21.1-.31.21-.29.31.1.47,1.72,1.13,2.78,1.27C328.9,403.48,328.13,402.33,327.22,402.33Z"
              style="fill:#fff"></path>
        <path d="M325.34,215.38,318,214.09l3.79,8.55s6.73,0,6.43-3.52Z" style="fill:#e4897b"></path>
        <polygon points="312.45 218.39 315.92 225.29 321.75 222.64 317.96 214.09 312.45 218.39"
                 style="fill:#e4897b"></polygon>
        <polygon points="333.43 388.66 322.36 399.08 318.79 395.25 331.46 383.71 333.43 388.66"
                 style="fill:#FFA113"></polygon>
        <polygon points="333.43 388.66 322.36 399.08 318.79 395.25 331.46 383.71 333.43 388.66"
                 style="fill:#fff;opacity:0.6000000000000001"></polygon>
        <polygon points="321.15 399.13 306.48 399.13 305.67 393.97 321.86 394.78 321.15 399.13"
                 style="fill:#FFA113"></polygon>
        <polygon points="321.15 399.13 306.48 399.13 305.67 393.97 321.86 394.78 321.15 399.13"
                 style="fill:#fff;opacity:0.6000000000000001"></polygon>
        <path d="M328.73,156.54c7,1,14.17,25.32,14.17,25.32l-15,8.32s-6.09-11.56-9-20.14C315.85,161.05,321.24,155.44,328.73,156.54Z"
              style="fill:#FFA113"></path>
        <path d="M328.73,156.54c7,1,14.17,25.32,14.17,25.32l-15,8.32s-6.09-11.56-9-20.14C315.85,161.05,321.24,155.44,328.73,156.54Z"
              style="fill:#fff;opacity:0.7000000000000001"></path>
        <polygon points="303.56 159.35 300.56 162.54 302.03 165.62 304.42 165.73 306.46 162.79 303.56 159.35"
                 style="opacity:0.2"></polygon>
        <path d="M302.29,165.07s-5.69,23.57-5.91,28.47c-.31,6.74,2.51,18.25,2.51,18.25s4-9.57,4.82-18.46.21-23.27.58-28.26Z"
              style="fill:#FFA113"></path>
        <path d="M302.29,165.07s-5.69,23.57-5.91,28.47c-.31,6.74,2.51,18.25,2.51,18.25s4-9.57,4.82-18.46.21-23.27.58-28.26Z"
              style="opacity:0.2"></path>
        <path d="M303.56,159.35a13,13,0,0,1,1.92,6.11s12.48-4.4,11.89-10.85c0,0-1.77-1.05-2.89-1.9C314.48,152.71,314.06,156.77,303.56,159.35Z"
              style="fill:#FFA113"></path>
        <path d="M303.56,159.35a13,13,0,0,1,1.92,6.11s12.48-4.4,11.89-10.85c0,0-1.77-1.05-2.89-1.9C314.48,152.71,314.06,156.77,303.56,159.35Z"
              style="fill:#fff;opacity:0.6000000000000001"></path>
        <path d="M303.56,159.35a17.56,17.56,0,0,0-2.44,5.72s-5.65-3.82-3.95-10.19a21.09,21.09,0,0,1,3.19-1S299.62,158,303.56,159.35Z"
              style="fill:#FFA113"></path>
        <path d="M303.56,159.35a17.56,17.56,0,0,0-2.44,5.72s-5.65-3.82-3.95-10.19a21.09,21.09,0,0,1,3.19-1S299.62,158,303.56,159.35Z"
              style="fill:#fff;opacity:0.6000000000000001"></path>
    </g>
</svg>