<svg xmlns="http://www.w3.org/2000/svg" viewBox="0 0 500 500"><g id="freepik--background-simple--inject-210"><path d="M425.08,84.41l-2.3-3.79c-19.37-31.92-54.4-51.17-91.34-48.84a96.55,96.55,0,0,0-14.14,1.95c-33.58,7.18-62.8,32.58-74.91,65.1-7.12,19.13-9.11,41.15-22.63,56.33-17.59,19.76-47.46,20.38-73.72,19.56s-56.14-.12-73.65,19.72c-11,12.42-14.45,30.09-13.56,46.73,2.34,44.05,33,83.43,72.07,103s85,21.33,127.71,12.72c59.85-12.06,116.76-45.2,151-96.37S452.45,139.64,425.08,84.41Z" style="fill:#f5f5f5"></path></g><g id="freepik--Device--inject-210"><rect x="149.13" y="61.44" width="210.64" height="417.11" rx="25.34" style="fill:#455a64"></rect><rect x="49.21" y="168" width="410.48" height="204" rx="22.23" transform="translate(524.44 15.55) rotate(90)" style="fill:#263238"></rect><path d="M239.32,77.9a2.34,2.34,0,0,1,0-4.68h30.12a2.34,2.34,0,1,1,0,4.68Z" style="fill:#455a64"></path><path d="M223.17,77.9a2.34,2.34,0,1,1,2.34-2.34A2.35,2.35,0,0,1,223.17,77.9Z" style="fill:#455a64"></path><path d="M231.79,77.9a2.34,2.34,0,1,1,2.34-2.34A2.34,2.34,0,0,1,231.79,77.9Z" style="fill:#455a64"></path><path d="M285.73,77.9a2.34,2.34,0,1,1,2.34-2.34A2.35,2.35,0,0,1,285.73,77.9Z" style="fill:#455a64"></path><path d="M277.11,77.9a2.34,2.34,0,1,1,2.34-2.34A2.35,2.35,0,0,1,277.11,77.9Z" style="fill:#455a64"></path><path d="M337.23,67.57H300.76A6.17,6.17,0,0,0,294.83,72l-2.32,8a6.93,6.93,0,0,1-6.65,5H223a6.93,6.93,0,0,1-6.65-5l-2.32-8a6.19,6.19,0,0,0-5.94-4.46H179.77a22.58,22.58,0,0,0-22.58,22.58V454.44a15.26,15.26,0,0,0,15.26,15.26H338.3a13.4,13.4,0,0,0,13.4-13.4V82A14.47,14.47,0,0,0,337.23,67.57Z" style="fill:#fafafa"></path><path d="M345.19,74.3a22.52,22.52,0,0,0-16.07-6.73h-33L291.06,85H217.84l-5.07-17.45H172a14.76,14.76,0,0,0-14.76,14.76V346.09l.58.07c19,2.06,37.4-9.86,47.81-25.84S219.66,284.94,221.5,266s2.06-38.23,6.52-56.78a128.57,128.57,0,0,1,54-76.66c13.23-8.64,28-14.81,40.65-24.33C333.78,99.81,343.33,87.82,345.19,74.3Z" style="fill:#f5f5f5"></path><path d="M351.7,460.55V343.84a97.06,97.06,0,0,0-73,47.24c-13.57,23.51-16.26,52.94-7.59,78.62h71.46A9.15,9.15,0,0,0,351.7,460.55Z" style="fill:#f5f5f5"></path><path d="M360.83,152.1h.31a0,0,0,0,1,0,0V200a0,0,0,0,1,0,0h-.31a1.07,1.07,0,0,1-1.07-1.07V153.17A1.07,1.07,0,0,1,360.83,152.1Z" transform="translate(720.9 352.14) rotate(180)" style="fill:#455a64"></path><path d="M148.76,181.64h.37a0,0,0,0,1,0,0V212a0,0,0,0,1,0,0h-.37a1.07,1.07,0,0,1-1.07-1.07V182.71A1.07,1.07,0,0,1,148.76,181.64Z" style="fill:#455a64"></path><path d="M148.76,142h.37a0,0,0,0,1,0,0v30.35a0,0,0,0,1,0,0h-.37a1.07,1.07,0,0,1-1.07-1.07V143.06A1.07,1.07,0,0,1,148.76,142Z" style="fill:#455a64"></path><path d="M148.84,112.23h.29a0,0,0,0,1,0,0v14.11a0,0,0,0,1,0,0h-.29a.95.95,0,0,1-.95-.95V113.17A.95.95,0,0,1,148.84,112.23Z" style="fill:#455a64"></path><rect x="304.48" y="81.14" width="1.45" height="2.03" style="fill:#263238"></rect><rect x="306.84" y="80.24" width="1.45" height="2.93" style="fill:#263238"></rect><rect x="309.19" y="79.56" width="1.45" height="3.61" style="fill:#263238"></rect><rect x="311.55" y="78.25" width="1.45" height="4.92" style="fill:#263238"></rect><path d="M334.35,83.27h-7.26a.52.52,0,0,1-.52-.52V79.14a.52.52,0,0,1,.51-.52h7.27a.18.18,0,0,1,.1,0,.17.17,0,0,1,0,.1V80h.78a.13.13,0,0,1,.14.13v1.74a.13.13,0,0,1-.14.13h-.78v1.19A.13.13,0,0,1,334.35,83.27Zm-.13-4.38h-7.14a.24.24,0,0,0-.24.25v3.61a.26.26,0,0,0,.25.26h7.13V81.82a.13.13,0,0,1,.13-.13h.78V80.21h-.78a.13.13,0,0,1-.13-.13Z" style="fill:#263238"></path><polygon points="327.43 82.42 327.43 79.48 333.63 79.48 333.63 80.81 333.63 81.09 333.63 82.42 327.43 82.42" style="fill:#263238"></polygon><path d="M319.92,83a.53.53,0,0,0-.53-.53.52.52,0,0,0-.53.53.53.53,0,0,0,.53.53A.53.53,0,0,0,319.92,83Z" style="fill:#263238"></path><path d="M317.58,81.72l.67.67a1.61,1.61,0,0,1,2.27,0l.68-.67a2.55,2.55,0,0,0-1.81-.75A2.51,2.51,0,0,0,317.58,81.72Z" style="fill:#263238"></path><path d="M319.39,79.46a4,4,0,0,0-2.88,1.19l.68.68a3.07,3.07,0,0,1,2.2-.92,3.11,3.11,0,0,1,2.2.92l.67-.68A4,4,0,0,0,319.39,79.46Z" style="fill:#263238"></path><path d="M315.41,79.55l.67.68a4.67,4.67,0,0,1,6.61,0l.68-.68a5.63,5.63,0,0,0-8,0Z" style="fill:#263238"></path><circle cx="276.43" cy="224.56" r="25.69" transform="translate(-35.73 396.01) rotate(-67.87)" style="fill:#f5f5f5"></circle><path d="M185.71,173.14c0-6.53,3.42-10.43,8.17-10.43s8.19,3.9,8.19,10.43-3.45,10.42-8.19,10.42S185.71,179.67,185.71,173.14Zm14.2,0c0-5.48-2.46-8.5-6-8.5s-6,3-6,8.5,2.46,8.49,6,8.49S199.91,178.61,199.91,173.14Z" style="fill:#263238"></path><path d="M219.88,173c0,7-3.81,10.6-9.37,10.6a9.4,9.4,0,0,1-4.86-1.11l.85-1.7a7.2,7.2,0,0,0,4,1c4.42,0,7.26-2.84,7.26-8.41,0-.47,0-1.05-.09-1.67-1,2.26-3.42,3.52-6.26,3.52-4.07,0-6.91-2.4-6.91-6.15s3-6.3,7-6.3C216.92,162.71,219.88,166.49,219.88,173Zm-2.9-4.07c0-2.25-1.87-4.39-5.42-4.39-2.95,0-5,1.73-5,4.45s2,4.42,5.15,4.42S217,171.44,217,168.89Z" style="fill:#263238"></path><path d="M223,169.45a1.55,1.55,0,0,1,1.56-1.58,1.58,1.58,0,0,1,1.58,1.58,1.61,1.61,0,0,1-1.58,1.61A1.59,1.59,0,0,1,223,169.45Zm0,12.47a1.55,1.55,0,0,1,1.56-1.58,1.58,1.58,0,0,1,1.58,1.58,1.6,1.6,0,0,1-1.58,1.61A1.58,1.58,0,0,1,223,181.92Z" style="fill:#263238"></path><path d="M229.13,173.14c0-6.53,3.43-10.43,8.17-10.43s8.2,3.9,8.2,10.43-3.45,10.42-8.2,10.42S229.13,179.67,229.13,173.14Zm14.2,0c0-5.48-2.46-8.5-6-8.5s-6,3-6,8.5,2.46,8.49,6,8.49S243.33,178.61,243.33,173.14Z" style="fill:#263238"></path><path d="M248.52,173.14c0-6.53,3.42-10.43,8.17-10.43s8.2,3.9,8.2,10.43-3.46,10.42-8.2,10.42S248.52,179.67,248.52,173.14Zm14.2,0c0-5.48-2.46-8.5-6-8.5s-6,3-6,8.5,2.46,8.49,6,8.49S262.72,178.61,262.72,173.14Z" style="fill:#263238"></path><path d="M322.54,139.17h-132A13.13,13.13,0,0,1,177.41,126h0a13.13,13.13,0,0,1,13.13-13.13h132A13.13,13.13,0,0,1,335.67,126h0A13.13,13.13,0,0,1,322.54,139.17Z" style="fill:#e0e0e0"></path><path d="M319.11,131.05a5,5,0,1,1,5-5A5,5,0,0,1,319.11,131.05Zm0-9a4,4,0,1,0,4,4A4,4,0,0,0,319.11,122Z" style="fill:#263238"></path><path d="M325.84,132.35a.46.46,0,0,1-.33-.13l-3.3-2.88a.5.5,0,0,1,.66-.75l3.3,2.88a.5.5,0,0,1,0,.71A.5.5,0,0,1,325.84,132.35Z" style="fill:#263238"></path><path d="M318.35,181.32a7.64,7.64,0,0,0,1.06,0,5.49,5.49,0,0,0,2.71-1.18,5.26,5.26,0,0,0,1.36-1.62,4.76,4.76,0,0,0,.44-1.11,4.93,4.93,0,0,0,.15-1.28,5.47,5.47,0,0,0-.2-1.37,6.55,6.55,0,0,0-.58-1.34,5.24,5.24,0,0,0-2.29-2.09l-.05,0v-.05a3.89,3.89,0,0,0-2.1-3.54,3.84,3.84,0,0,0-4.35.73l-.13.12,0-.17a7.29,7.29,0,0,0-4.47-5.12,6.77,6.77,0,0,0-1.81-.45,2.38,2.38,0,0,0-.46,0h-.46a6.62,6.62,0,0,0-4.09,1.63,7.92,7.92,0,0,0-2,2.7,6.88,6.88,0,0,0-.59,3.12v.12l-.11,0a5.27,5.27,0,0,0-3.52.42,6.17,6.17,0,0,0-1.39.94,5.85,5.85,0,0,0-1,1.23,5.38,5.38,0,0,0-.55,1.38,4.71,4.71,0,0,0-.1,1.39,5.38,5.38,0,0,0,.73,2.34A5.64,5.64,0,0,0,297,180.3a7.15,7.15,0,0,0,1.17.38h-.08l-.23,0a2,2,0,0,1-.38-.1,4,4,0,0,1-.51-.18,5.64,5.64,0,0,1-2.58-2.33,5.58,5.58,0,0,1-.77-2.38,4.67,4.67,0,0,1,.66-2.85,5.58,5.58,0,0,1,1-1.27,6.58,6.58,0,0,1,1.43-1,5.4,5.4,0,0,1,3.63-.44l-.11.09a7.09,7.09,0,0,1,.6-3.2,8.13,8.13,0,0,1,2.08-2.78,7.07,7.07,0,0,1,3.28-1.57,7.16,7.16,0,0,1,.93-.11h.48a3.71,3.71,0,0,1,.47,0,7.06,7.06,0,0,1,1.86.47,7.46,7.46,0,0,1,4.59,5.26l-.16-.05a3.95,3.95,0,0,1,6.75,3l-.05-.08a5.31,5.31,0,0,1,2.35,2.16,6.59,6.59,0,0,1,.59,1.38,5.77,5.77,0,0,1,.2,1.4,5.68,5.68,0,0,1-.16,1.32,5.05,5.05,0,0,1-.47,1.14,5.54,5.54,0,0,1-4.16,2.79,4.78,4.78,0,0,1-.8,0Z" style="fill:#263238"></path><path d="M318.86,181.86l-.29,0-.29,0a.5.5,0,0,1-.4-.35A.5.5,0,0,1,318,181a.57.57,0,0,1,.47-.14,6.66,6.66,0,0,0,.88,0,5,5,0,0,0,2.45-1.08,4.78,4.78,0,0,0,1.24-1.46,4.56,4.56,0,0,0,.4-1,4.49,4.49,0,0,0,.13-1.14,5.36,5.36,0,0,0-.18-1.23,6.09,6.09,0,0,0-.53-1.23,4.8,4.8,0,0,0-2.06-1.89.58.58,0,0,1-.35-.5,3.27,3.27,0,0,0-5.59-2.49l-.12.13a.51.51,0,0,1-.5.12.49.49,0,0,1-.35-.37l0-.18a6.78,6.78,0,0,0-4.16-4.75,6.36,6.36,0,0,0-1.67-.42,3.66,3.66,0,0,0-.42,0h-.67a3.85,3.85,0,0,0-.58.08,6.35,6.35,0,0,0-3,1.43,7.3,7.3,0,0,0-1.9,2.52,6.39,6.39,0,0,0-.55,2.89v.11a.53.53,0,0,1-.18.42.49.49,0,0,1-.44.1l-.11,0a4.72,4.72,0,0,0-3.18.38,5.74,5.74,0,0,0-1.28.86,5.57,5.57,0,0,0-.91,1.12,5,5,0,0,0-.5,1.24,4.05,4.05,0,0,0-.08,1.22,4.87,4.87,0,0,0,.66,2.13,5.18,5.18,0,0,0,2.29,2.13,4.44,4.44,0,0,0,1,.32.56.56,0,0,1,.42.26.53.53,0,0,1,.06.39.58.58,0,0,1-.65.35l-.24,0a2.6,2.6,0,0,1-.46-.12l-.12,0a2.2,2.2,0,0,1-.44-.17,6.07,6.07,0,0,1-2.79-2.52,6,6,0,0,1-.83-2.59,5.33,5.33,0,0,1,.09-1.56,6,6,0,0,1,.62-1.58,6.23,6.23,0,0,1,2.66-2.44,6,6,0,0,1,3.25-.61,7.42,7.42,0,0,1,.65-2.7,8.28,8.28,0,0,1,2.21-2.95,7.55,7.55,0,0,1,3.51-1.7,5.5,5.5,0,0,1,.75-.09l.23,0h.52a3.31,3.31,0,0,1,.55,0,7.66,7.66,0,0,1,2,.49,8.12,8.12,0,0,1,4.65,4.73,4.44,4.44,0,0,1,6.85,3.54,6,6,0,0,1,2.23,2.2,6.12,6.12,0,0,1,.86,3,6.12,6.12,0,0,1-.18,1.45,5.45,5.45,0,0,1-.52,1.28,5.84,5.84,0,0,1-1.53,1.77,5.91,5.91,0,0,1-3,1.26C319.25,181.84,319,181.86,318.86,181.86Z" style="fill:#263238"></path><path d="M306.49,177.74a20.58,20.58,0,0,1-1.39,2.5,23.46,23.46,0,0,1-1.55,2.4,19.64,19.64,0,0,1,1.38-2.5A21.3,21.3,0,0,1,306.49,177.74Z" style="fill:#263238"></path><path d="M303.58,183.18a.66.66,0,0,1-.29-.11c-.48-.29-.47-.38,1.21-3.19,1.53-2.54,1.65-2.57,1.86-2.63a.5.5,0,0,1,.38.06h0a.56.56,0,0,1,.23.31c0,.22.08.33-1.45,2.88C304.23,182.65,303.89,183.18,303.58,183.18Z" style="fill:#263238"></path><path d="M311.1,177.74a19,19,0,0,1-1.39,2.5,23.46,23.46,0,0,1-1.55,2.4,19.64,19.64,0,0,1,1.38-2.5A21.3,21.3,0,0,1,311.1,177.74Z" style="fill:#263238"></path><path d="M308.16,183.14a.5.5,0,0,1-.26-.08c-.48-.28-.47-.37,1.21-3.18,1.53-2.54,1.65-2.57,1.87-2.63a.5.5,0,0,1,.38.06h0c.47.29.47.38-1.22,3.19-1.53,2.54-1.65,2.57-1.86,2.62Z" style="fill:#263238"></path><path d="M315.71,177.74a19,19,0,0,1-1.39,2.5,23.46,23.46,0,0,1-1.55,2.4,19.64,19.64,0,0,1,1.38-2.5A21.3,21.3,0,0,1,315.71,177.74Z" style="fill:#263238"></path><path d="M312.8,183.18a.66.66,0,0,1-.29-.11c-.48-.29-.47-.38,1.22-3.19,1.52-2.54,1.64-2.57,1.86-2.63a.52.52,0,0,1,.38.06h0a.52.52,0,0,1,.23.31c.05.22.08.33-1.45,2.88C313.46,182.65,313.11,183.18,312.8,183.18Z" style="fill:#263238"></path><path d="M301.15,184.61a19.81,19.81,0,0,1-1.39,2.5,21.38,21.38,0,0,1-1.55,2.39A20.14,20.14,0,0,1,299.6,187,19.5,19.5,0,0,1,301.15,184.61Z" style="fill:#263238"></path><path d="M298.21,190a.48.48,0,0,1-.26-.07.52.52,0,0,1-.23-.31c-.05-.21-.08-.33,1.45-2.87,1.68-2.8,1.76-2.86,2.24-2.57h0c.47.29.47.38-1.22,3.18-1.53,2.55-1.64,2.58-1.86,2.63Z" style="fill:#263238"></path><path d="M305.76,184.61a42,42,0,0,1-2.94,4.89,20.14,20.14,0,0,1,1.39-2.49A21,21,0,0,1,305.76,184.61Z" style="fill:#263238"></path><path d="M302.82,190a.48.48,0,0,1-.26-.07.52.52,0,0,1-.23-.31c-.05-.21-.08-.33,1.45-2.87,1.68-2.81,1.76-2.86,2.24-2.57h0c.46.29.46.38-1.23,3.18-1.52,2.55-1.64,2.58-1.86,2.63Z" style="fill:#263238"></path><path d="M310.37,184.61a38.64,38.64,0,0,1-2.94,4.89,20.14,20.14,0,0,1,1.39-2.49A21,21,0,0,1,310.37,184.61Z" style="fill:#263238"></path><path d="M307.43,190a.48.48,0,0,1-.26-.07.52.52,0,0,1-.23-.31c-.05-.21-.08-.33,1.45-2.87,1.68-2.8,1.76-2.86,2.24-2.57h0c.48.29.47.38-1.22,3.18-1.53,2.55-1.64,2.58-1.86,2.63Z" style="fill:#263238"></path><path d="M315.19,184.71a22.37,22.37,0,0,1-1.39,2.5,19.78,19.78,0,0,1-1.56,2.4,22.37,22.37,0,0,1,1.39-2.5A19.78,19.78,0,0,1,315.19,184.71Z" style="fill:#263238"></path><path d="M312.28,190.15A.66.66,0,0,1,312,190c-.48-.29-.48-.38,1.21-3.19,1.53-2.54,1.65-2.57,1.86-2.62a.55.55,0,0,1,.38.05h0a.59.59,0,0,1,.23.31c.05.22.08.34-1.45,2.88C312.93,189.63,312.59,190.15,312.28,190.15Z" style="fill:#263238"></path><circle cx="236.01" cy="389.4" r="4.24" style="fill:#ebebeb"></circle><circle cx="250.18" cy="389.4" r="4.24" style="fill:#e0e0e0"></circle><circle cx="264.35" cy="389.4" r="4.24" style="fill:#e0e0e0"></circle><circle cx="278.52" cy="389.4" r="4.24" style="fill:#e0e0e0"></circle><rect x="175.61" y="410.48" width="34.15" height="34.15" rx="9.07" style="fill:#FFA113"></rect><rect x="218.18" y="410.16" width="34.15" height="34.15" rx="9.61" style="fill:#e0e0e0"></rect><rect x="260.75" y="409.85" width="34.15" height="34.15" rx="10.16" style="fill:#455a64"></rect><rect x="303.32" y="410.48" width="34.15" height="34.15" rx="10.28" style="fill:#263238"></rect><rect x="175.61" y="336.55" width="34.15" height="34.15" rx="8.99" style="fill:#455a64"></rect><rect x="218.18" y="336.23" width="34.15" height="34.15" rx="10.54" style="fill:#263238"></rect><rect x="260.75" y="335.91" width="34.15" height="34.15" rx="9.33" style="fill:#e0e0e0"></rect><rect x="303.32" y="335.6" width="34.15" height="34.15" rx="10.2" style="fill:#FFA113"></rect><path d="M189,347.54a7.14,7.14,0,0,1,1.73-.75l.35-1.7,2.89,0,.41,1.69a7.24,7.24,0,0,1,1.75.69l1.46-1,2.07,2-.9,1.49a7.14,7.14,0,0,1,.75,1.73l1.7.35.05,2.89-1.69.41a7.24,7.24,0,0,1-.69,1.75l1,1.46-2,2.07-1.48-.9a7.14,7.14,0,0,1-1.73.75l-.35,1.7-2.89,0-.41-1.69a7.24,7.24,0,0,1-1.75-.69l-1.46,1-2.07-2,.9-1.48a7.14,7.14,0,0,1-.75-1.73l-1.7-.35-.05-2.89,1.69-.41a7.09,7.09,0,0,1,.69-1.75l-1-1.46,2-2.07,1.48.9Zm1,3.48a3.76,3.76,0,1,0,5.31-.1A3.75,3.75,0,0,0,190,351Z" style="fill:#fff"></path><path d="M269.86,435.21l1.25-4.64a8.59,8.59,0,1,1,3.42,3.39Zm4.9-3,.29.17a7,7,0,1,0-2.38-2.36l.18.29-.7,2.6Z" style="fill:#fff"></path><path d="M281.69,427.67a1.43,1.43,0,0,0-1.22-.28c-.32.13-.53.63-.73.88a.3.3,0,0,1-.4.09,5.56,5.56,0,0,1-2.77-2.38.32.32,0,0,1,0-.46,1.84,1.84,0,0,0,.5-.82,1.73,1.73,0,0,0-.22-1,2.37,2.37,0,0,0-.72-1.08,1,1,0,0,0-1.06.16,2.16,2.16,0,0,0-.75,1.71,2,2,0,0,0,.07.55,4.55,4.55,0,0,0,.52,1.2,8.92,8.92,0,0,0,.54.82,8.53,8.53,0,0,0,2.36,2.2,7.3,7.3,0,0,0,1.47.69,3.26,3.26,0,0,0,1.71.28,2.09,2.09,0,0,0,1.56-1.16,1.09,1.09,0,0,0,.07-.59C282.57,428.1,282,427.86,281.69,427.67Z" style="fill:#fff;fill-rule:evenodd"></path><path d="M198.71,429.61a2.75,2.75,0,0,0-2.33-.53c-.6.25-1,1.2-1.38,1.68a.58.58,0,0,1-.75.17,10.55,10.55,0,0,1-5.27-4.52.63.63,0,0,1,.08-.88,3.62,3.62,0,0,0,1-1.56,3.42,3.42,0,0,0-.43-1.84,4.39,4.39,0,0,0-1.36-2,1.85,1.85,0,0,0-2,.3,4.07,4.07,0,0,0-1.42,3.25,4.46,4.46,0,0,0,.12,1,8.71,8.71,0,0,0,1,2.28,16.41,16.41,0,0,0,1,1.57,15.87,15.87,0,0,0,4.48,4.16,13.22,13.22,0,0,0,2.79,1.33,6.28,6.28,0,0,0,3.25.52,4,4,0,0,0,2.95-2.2,1.87,1.87,0,0,0,.14-1.12C200.38,430.44,199.34,430,198.71,429.61Z" style="fill:#fff;fill-rule:evenodd"></path><path d="M325.74,422.09a1,1,0,1,0,1,1A1,1,0,0,0,325.74,422.09Z" style="fill:#fff"></path><path d="M321.3,423.08a4.19,4.19,0,1,0,4.19,4.19A4.2,4.2,0,0,0,321.3,423.08Zm0,6.87a2.69,2.69,0,1,1,2.69-2.68A2.68,2.68,0,0,1,321.3,430Z" style="fill:#fff"></path><path d="M324.63,436.07h-6.79a5.13,5.13,0,0,1-5.12-5.12v-6.79a5.12,5.12,0,0,1,5.12-5.11h6.79a5.11,5.11,0,0,1,5.11,5.11V431A5.12,5.12,0,0,1,324.63,436.07Zm-6.79-15.42a3.52,3.52,0,0,0-3.52,3.51V431a3.52,3.52,0,0,0,3.52,3.51h6.79a3.51,3.51,0,0,0,3.51-3.51v-6.79a3.51,3.51,0,0,0-3.51-3.51Z" style="fill:#fff"></path><path d="M227.7,435.56a.74.74,0,0,1-.54-.23.77.77,0,0,1,0-1.07l4.06-4.06a7,7,0,0,1,.5-9.25,6.94,6.94,0,1,1,4.91,11.85,6.83,6.83,0,0,1-4.34-1.52l-4.06,4.05A.72.72,0,0,1,227.7,435.56Zm8.93-15.12a5.43,5.43,0,0,0,0,10.85,5.43,5.43,0,1,0,0-10.85Z" style="fill:#fff"></path><path d="M258.84,193.28c0,.14-16,.26-35.78.26s-35.79-.12-35.79-.26,16-.27,35.79-.27S258.84,193.13,258.84,193.28Z" style="fill:#263238"></path><path d="M236.74,353.13a4.2,4.2,0,0,0,2.5-3.88,3.94,3.94,0,1,0-7.87,0,4.17,4.17,0,0,0,2.51,3.92c-6.06.91-5.78,7.49-5.78,7.49l14.31.07S242.74,354,236.74,353.13Z" style="fill:#fff"></path><path d="M289,358.47a4.82,4.82,0,0,0-.95-5.1,5.35,5.35,0,0,0-5.23-1.69,5.85,5.85,0,0,0-11.6.75,4.37,4.37,0,0,0-3.35,5.94Z" style="fill:#fff"></path><path d="M323.34,358.58a1.4,1.4,0,1,1-1.39-1.4A1.4,1.4,0,0,1,323.34,358.58Z" style="fill:#fff"></path><path d="M319.16,356.79a3.86,3.86,0,0,1,5.58-.07c.72.71,1.83-.39,1.12-1.1a5.44,5.44,0,0,0-7.8.06c-.69.73.41,1.84,1.1,1.11Z" style="fill:#fff"></path><path d="M314.43,350.31a11.44,11.44,0,0,1,7.48-3,11.11,11.11,0,0,1,7.62,2.92c.74.69,1.85-.41,1.12-1.1a12.72,12.72,0,0,0-8.73-3.38,13.06,13.06,0,0,0-8.59,3.44c-.76.66.34,1.77,1.1,1.11Z" style="fill:#fff"></path><path d="M316.3,353.9a7.67,7.67,0,0,1,11.26-.16c.7.73,1.81-.38,1.11-1.1a9.21,9.21,0,0,0-13.47.15c-.69.74.41,1.85,1.1,1.11Z" style="fill:#fff"></path></g><g id="freepik--Character--inject-210"><path d="M118,446.11,117.65,467s21.06,7.37,21.37,11.23l-40.44.74-.75-32.49Z" style="fill:#FFA113"></path><path d="M105.12,465.43a1.65,1.65,0,0,0-1.11,1.9,1.6,1.6,0,0,0,1.88,1.12,1.76,1.76,0,0,0,1.16-2,1.65,1.65,0,0,0-2.08-.94" style="fill:#e0e0e0"></path><path d="M98.58,478.92l.06-3.28,38.74.52s1.82.75,1.64,2Z" style="fill:#263238"></path><path d="M118.3,466.73c0,.2-1,.31-2,1s-1.46,1.49-1.64,1.42.09-1.22,1.27-2S118.34,466.55,118.3,466.73Z" style="fill:#263238"></path><path d="M122.58,468.41c0,.19-.81.54-1.46,1.39s-.83,1.73-1,1.73-.34-1.12.49-2.16S122.57,468.22,122.58,468.41Z" style="fill:#263238"></path><path d="M125.08,473.44c-.18.05-.48-.93,0-2s1.4-1.54,1.49-1.38-.47.75-.86,1.65S125.27,473.42,125.08,473.44Z" style="fill:#263238"></path><path d="M117.86,462c-.08.18-1-.08-2.11,0s-2,.46-2.08.29.72-.88,2-1S118,461.82,117.86,462Z" style="fill:#263238"></path><path d="M94.51,435,80.05,450s10.39,19.74,8,22.78l-30.1-27,21.58-24.31Z" style="fill:#FFA113"></path><path d="M71.91,440.35a1.65,1.65,0,0,0-2.11.64,1.6,1.6,0,0,0,.62,2.1,1.76,1.76,0,0,0,2.23-.69,1.65,1.65,0,0,0-.89-2.11" style="fill:#e0e0e0"></path><path d="M57.94,445.78l2.27-2.37,28,26.78S89,472,88,472.78Z" style="fill:#263238"></path><path d="M80.67,450.29c-.13.14-.93-.45-2.07-.63s-2.09.1-2.17-.08.89-.83,2.28-.6S80.83,450.18,80.67,450.29Z" style="fill:#263238"></path><path d="M82.66,454.43c-.09.17-1-.15-2,0s-1.79.7-1.93.56.51-1.05,1.83-1.24S82.78,454.28,82.66,454.43Z" style="fill:#263238"></path><path d="M81.06,459.81c-.16-.09.3-1,1.4-1.47s2.07-.17,2,0-.86.22-1.75.62S81.22,459.93,81.06,459.81Z" style="fill:#263238"></path><path d="M83.59,446.5c-.18.08-.67-.73-1.55-1.42s-1.77-1-1.73-1.2,1.13-.16,2.15.67S83.77,446.45,83.59,446.5Z" style="fill:#263238"></path><path d="M174.24,220.24,156.46,232l.26,4.66,4.64,9.78s2.15,2,8.44-4.34S184.06,223,184.06,223Z" style="fill:#ffbe9d"></path><path d="M204.17,195.78a1.49,1.49,0,0,0-1.16-.86l-8.71-1.17a2.77,2.77,0,0,0-2.12.65l-24.94,21.41,1.13,1.1,9.36,2.26,26.61-23Z" style="fill:#263238"></path><path d="M197.26,197.56a.55.55,0,0,0,.74.05.53.53,0,0,0,.26-.69.56.56,0,0,0-.75,0C197.24,197.05,197.12,197.36,197.26,197.56Z" style="fill:#fff"></path><path d="M204.34,196.17a10.34,10.34,0,0,1-1.71-.12L198,195.5l-3.2-.4a1.84,1.84,0,0,0-1.51.39l-1.42,1.24-6.38,5.49c-4.53,3.88-8.65,7.38-11.65,9.89-1.46,1.2-2.67,2.19-3.58,2.95a12.12,12.12,0,0,1-1.35,1,9.15,9.15,0,0,1,1.22-1.18l3.46-3.08c2.94-2.58,7-6.11,11.56-10l6.4-5.46,1.45-1.22a2.27,2.27,0,0,1,1.85-.47l3.2.46,4.62.71A12.75,12.75,0,0,1,204.34,196.17Z" style="fill:#455a64"></path><path d="M195.29,200.65s-.8-.39-1.89,1.77-4.42,8.31-4.42,8.31l-3.72-3.56-5.68-.82s-1.51.77-.8,1.61,4,2.44,4,2.44l1.52,4.39L178,209.2s-2.62,0-2.32,1.64,3.93,7.75,3.93,7.75l-3.6-1.31-3.62-3.87s-1.36-.32-1.18,1,3.57,6.68,3.57,6.68l4.75,4.22s3.08.61,3.61-.2a10.33,10.33,0,0,0,1-2s1.72,0,2.24-.67a5,5,0,0,0,.66-2s2.38,1.14,3.09-.17a16.53,16.53,0,0,0,1.26-5.27c.05-1.15,4.17-10.76,4.15-11.09S197,200.43,195.29,200.65Z" style="fill:#ffbe9d"></path><path d="M183.29,225.14a3.19,3.19,0,0,1-1.56,0,10.07,10.07,0,0,1-6.48-3.6c-.61-.76-.85-1.31-.79-1.35a20.51,20.51,0,0,0,4,3.26C180.91,224.89,183.31,225,183.29,225.14Z" style="fill:#eb996e"></path><path d="M182.54,222.8c-.12.1-.95-.68-1.75-1.83s-1.26-2.2-1.12-2.28.81.82,1.6,1.94S182.67,222.69,182.54,222.8Z" style="fill:#eb996e"></path><path d="M186.77,218.86c-.12.1-1-.67-1.67-1.85s-1-2.26-.89-2.32.69.88,1.39,2S186.9,218.75,186.77,218.86Z" style="fill:#eb996e"></path><path d="M190.89,215.89a14.82,14.82,0,0,1-1-2.54,16,16,0,0,1-1-2.52c.12-.1,1,.84,1.59,2.3A4.33,4.33,0,0,1,190.89,215.89Z" style="fill:#eb996e"></path><path d="M147.91,196.71c-6.75-.24-21-19.83-20.88-26.59l.53-40.67c-.21-10.93,6-20.16,16.91-20.06l1,.07a19.53,19.53,0,0,1,18.23,19.23c.13,9.48.15,19.95-.25,25-.84,10.46-11.41,11.38-11.41,11.38s-.1,2.43-.17,5.51c-.17,6.91,2.53,26.33-4.38,26.09Z" style="fill:#ffbe9d"></path><path d="M152.05,165.07a25.29,25.29,0,0,1-13.36-4.94s2.75,8.09,13.26,7.85Z" style="fill:#eb996e"></path><path d="M160.17,137.28a1.49,1.49,0,0,1-1.54,1.41,1.45,1.45,0,0,1-1.45-1.46,1.5,1.5,0,0,1,1.54-1.41A1.43,1.43,0,0,1,160.17,137.28Z" style="fill:#263238"></path><path d="M161.18,133.17c-.2.18-1.28-.74-2.88-.84s-2.85.62-3,.41.14-.43.67-.77a4.13,4.13,0,0,1,2.42-.57,3.91,3.91,0,0,1,2.28.91C161.13,132.72,161.28,133.09,161.18,133.17Z" style="fill:#263238"></path><path d="M145.45,137a1.49,1.49,0,0,1-1.54,1.41,1.44,1.44,0,0,1-1.45-1.45A1.5,1.5,0,0,1,144,135.5,1.43,1.43,0,0,1,145.45,137Z" style="fill:#263238"></path><path d="M145.39,132.48c-.2.18-1.28-.73-2.89-.84s-2.84.62-3,.42.13-.44.67-.78a4.19,4.19,0,0,1,2.42-.57,4,4,0,0,1,2.28.91C145.34,132,145.48,132.4,145.39,132.48Z" style="fill:#263238"></path><path d="M150.33,145.23a10.07,10.07,0,0,1,2.64-.3c.41,0,.81-.07.9-.35a2.12,2.12,0,0,0-.2-1.23l-1-3.21c-1.39-4.57-2.36-8.31-2.18-8.36s1.46,3.6,2.85,8.16c.33,1.13.65,2.2.95,3.23a2.42,2.42,0,0,1,.1,1.63,1,1,0,0,1-.71.55,3,3,0,0,1-.71.05A10.59,10.59,0,0,1,150.33,145.23Z" style="fill:#263238"></path><path d="M145.65,126.46c-.25.39-1.78-.14-3.68-.31s-3.5,0-3.66-.42c-.07-.21.27-.55,1-.84a6.14,6.14,0,0,1,2.86-.37,6.21,6.21,0,0,1,2.74.92C145.49,125.86,145.76,126.27,145.65,126.46Z" style="fill:#263238"></path><path d="M161.05,129.38c-.35.35-1.64-.1-3.22-.2s-2.92.09-3.21-.31c-.12-.19.1-.54.71-.86a5.15,5.15,0,0,1,2.65-.46,5.08,5.08,0,0,1,2.53.87C161.05,128.82,161.21,129.21,161.05,129.38Z" style="fill:#263238"></path><path d="M127.89,137.26c-.17-.09-7-2.61-7.3,4.56s7,6,7,5.74S127.89,137.26,127.89,137.26Z" style="fill:#ffbe9d"></path><path d="M125.51,144.77s-.13.08-.34.17a1.24,1.24,0,0,1-.93,0,3.1,3.1,0,0,1-1.34-2.83,4.16,4.16,0,0,1,.42-1.77,1.45,1.45,0,0,1,1-.93.64.64,0,0,1,.72.37c.09.2,0,.35.08.36s.16-.12.11-.41a.72.72,0,0,0-.27-.46.9.9,0,0,0-.68-.21,1.75,1.75,0,0,0-1.34,1.07,4.21,4.21,0,0,0-.51,2c0,1.45.69,2.82,1.72,3.16a1.35,1.35,0,0,0,1.15-.15C125.49,144.94,125.54,144.78,125.51,144.77Z" style="fill:#eb996e"></path><path d="M145.88,146c-.1,0-.17.4,0,1a4,4,0,0,0,1.24,2.14,6.69,6.69,0,0,0,2.06,1.27c.57.22.94.29,1,.2s-.25-.34-.74-.68a14.25,14.25,0,0,1-1.79-1.34C146.31,147.45,146.11,145.93,145.88,146Z" style="fill:#263238"></path><path d="M93.82,270.66l-4.64,28.86,3.39,23.85.14,5.18L96.14,354s-1.27,24-1.91,29.18,1.62,78.49,1.62,78.49l23.32-1S128,351.91,128,350.71s12.13-81.34,12.13-81.34Z" style="fill:#263238"></path><path d="M152.77,275.11s-.47,97.67-2.65,103.32-63.44,66.36-63.44,66.36l-19.4-15.12L116.82,363l3.05-93.07Z" style="fill:#263238"></path><path d="M136.51,300.65c.13,0-2.77,24.68-6.48,55.08s-6.82,55-7,55,2.77-24.67,6.48-55.08S136.37,300.63,136.51,300.65Z" style="fill:#455a64"></path><path d="M96.14,354a.87.87,0,0,1,0,.24c0,.18,0,.42,0,.7,0,.66-.11,1.56-.19,2.71-.2,2.35-.42,5.76-.67,10-.47,8.42-.87,20.06-.77,32.92s.48,24.52.7,33c.1,4.18.18,7.58.24,10,0,1.15,0,2.06,0,2.72,0,.28,0,.52,0,.7a2.17,2.17,0,0,1,0,.24.92.92,0,0,1,0-.24c0-.18,0-.41,0-.7,0-.66-.07-1.56-.12-2.71-.09-2.4-.22-5.8-.39-10-.3-8.43-.76-20.08-.84-32.95s.35-24.53.91-33c.3-4.21.57-7.61.82-9.95.12-1.15.21-2.05.28-2.71,0-.28.07-.51.09-.7A1.35,1.35,0,0,1,96.14,354Z" style="fill:#455a64"></path><path d="M119.72,298.58c.06.12-4.19,2.36-9.48,5s-9.64,4.68-9.7,4.56,4.19-2.35,9.48-5S119.66,298.46,119.72,298.58Z" style="fill:#455a64"></path><path d="M166.69,223l11.71,10.53s-18.33,20-24,24.45,1.81-30.21,1.81-30.21Z" style="fill:#FFA113"></path><path d="M126.93,160.41l-4.87,6.75-19,7-8.59,64.45-5.43,57.54s7.59-10.82,13.4-11,35.19,8.06,37.18,9.56l3.88-13,3.14,15.09s5.52,1.24,8.4-7l-1.22-28.6s3.88-51.55,3.66-59.33-5.47-29.36-5.47-29.36l-2,6.36L133,164.32Z" style="fill:#FFA113"></path><path d="M108.58,172.21s-12.45,0-16.48,23S82.29,243,85.27,252.3,100,288.21,100,288.21l16-5.78-6.58-41.87,7.61-41S118,173.89,108.58,172.21Z" style="fill:#FFA113"></path><path d="M122.9,291.68s-7.65-9-8.23-8.78L102,287.48a52.52,52.52,0,0,0,.09,9.81c.49,4.69,1.3,9.72,1.3,9.72l16.71-8.91a29.69,29.69,0,0,0,1.63,5.42c.93,2,4.15-.11,4.15-.11Z" style="fill:#ffbe9d"></path><path d="M117,199.59s0,.25-.1.73-.21,1.22-.38,2.15c-.34,1.89-.83,4.66-1.47,8.2-1.3,7.12-3.18,17.36-5.48,29.93v-.07c1.89,11.92,4.15,26.21,6.63,41.86l0,.19-.18.07-16,5.78-.21.08-.09-.21-5.1-11.82c-3.06-7.25-6-14.33-8.61-21.31-.33-.87-.62-1.75-.91-2.62-.15-.44-.23-.91-.35-1.35a8.23,8.23,0,0,1-.25-1.37,22.87,22.87,0,0,1-.24-2.73c0-.9-.07-1.81,0-2.7a95.53,95.53,0,0,1,.89-10.46c.88-6.77,2.08-13.14,3.17-19.11s2.15-11.51,3.09-16.58c.44-2.54.94-4.95,1.45-7.22.32-1.12.63-2.21.94-3.26s.75-2,1.11-3a24.86,24.86,0,0,1,5.75-8.76,14.83,14.83,0,0,1,5.66-3.42,10.66,10.66,0,0,1,1.69-.37l.44,0h.15l-.58.07a11.44,11.44,0,0,0-1.67.41,15,15,0,0,0-5.56,3.47,24.72,24.72,0,0,0-5.63,8.72c-.35,1-.74,1.94-1.09,3s-.6,2.13-.92,3.24c-.49,2.27-1,4.66-1.4,7.21-.93,5.08-2,10.63-3,16.6S86.44,227.25,85.57,234a94.86,94.86,0,0,0-.87,10.41c0,.89,0,1.78,0,2.67a24.43,24.43,0,0,0,.24,2.69,7.49,7.49,0,0,0,.25,1.32c.11.44.19.88.33,1.31.3.87.59,1.74.91,2.61,2.57,6.95,5.55,14,8.62,21.28,1.74,4,3.46,8,5.09,11.82l-.3-.13,16-5.77-.15.25c-2.44-15.66-4.67-29.94-6.53-41.87v-.06c2.36-12.55,4.29-22.79,5.64-29.9.67-3.53,1.2-6.29,1.57-8.18.18-.93.32-1.64.42-2.14S117,199.59,117,199.59Z" style="fill:#263238"></path><path d="M150.08,178.87a3.58,3.58,0,0,1-.37.86l-1.16,2.33-4.19,8.1-.16.32-.21-.29c-1.49-2.05-3.21-4.26-5.09-6.52a128,128,0,0,0-10.08-10.79c-1.36-1.31-2.49-2.34-3.27-3.06a11.19,11.19,0,0,1-1.19-1.14,9.8,9.8,0,0,1,1.31,1c.82.67,2,1.67,3.38,2.95a108.92,108.92,0,0,1,10.22,10.73c1.89,2.27,3.6,4.5,5.07,6.57l-.37,0c1.75-3.22,3.24-6,4.34-8l1.28-2.27A5.35,5.35,0,0,1,150.08,178.87Z" style="fill:#263238"></path><path d="M154.28,182.31c.17-.06,1,2.87.4,6.77l-.11.69-.33-.63c-.18-.34-.36-.69-.53-1.06-.91-2-1.39-4-1.89-5.29s-.88-2.14-.81-2.17a6.89,6.89,0,0,1,1.12,2c.59,1.33,1.13,3.25,2,5.22.17.36.34.7.51,1l-.44.06a21.26,21.26,0,0,0,.23-4.73C154.4,183,154.23,182.33,154.28,182.31Z" style="fill:#263238"></path><path d="M150.9,182.2a.67.67,0,0,1,0,.25c0,.2,0,.45,0,.76,0,.67,0,1.65,0,2.91,0,2.53-.14,6.18-.39,10.69-.48,9-1.58,21.46-2.71,35.19s-2.23,26.14-3,35.17c-.4,4.47-.73,8.1-1,10.65-.12,1.23-.22,2.2-.29,2.89q0,.46-.09.75a1.11,1.11,0,0,1,0,.26.86.86,0,0,1,0-.26q0-.3,0-.75c0-.7.12-1.67.2-2.91.2-2.55.47-6.19.82-10.66.73-9,1.74-21.46,2.86-35.18s2.29-26.16,2.85-35.17c.29-4.5.45-8.15.54-10.67.05-1.24.08-2.21.11-2.91,0-.31,0-.56,0-.76A.79.79,0,0,1,150.9,182.2Z" style="fill:#263238"></path><path d="M157.62,204.6c.13,0-.58,12.76-1.6,28.46s-2,28.44-2.08,28.43.58-12.75,1.6-28.46S157.49,204.59,157.62,204.6Z" style="fill:#263238"></path><path d="M120.14,189.19c-.09,0-.09-1.15-.55-2.92a14.29,14.29,0,0,0-9.23-10.05c-1.72-.61-2.87-.7-2.86-.79a2.3,2.3,0,0,1,.81,0,12.44,12.44,0,0,1,2.16.45,13.75,13.75,0,0,1,9.46,10.3,12.1,12.1,0,0,1,.26,2.19A2.38,2.38,0,0,1,120.14,189.19Z" style="fill:#263238"></path><g style="opacity:0.30000000000000004"><path d="M154.6,257.61a52.18,52.18,0,0,0,1.76-29.82c-.63,10-1.16,20-1.79,30"></path></g><g style="opacity:0.30000000000000004"><path d="M116.36,203.16c-4.11,21.35-7.45,41.6-7,38.8L116,282.43l3.9,5.78C116.49,261.05,113.69,230.21,116.36,203.16Z"></path></g><path d="M171.18,116.48a4.15,4.15,0,0,0-2.13-3.35,6.78,6.78,0,0,0,0-1.2,5.34,5.34,0,0,0-4.91-4.56,5.18,5.18,0,0,0-8.63-3.09,6.19,6.19,0,0,0-6.57-1.36,1.52,1.52,0,0,0-.72.5.74.74,0,0,0-.11.56,3.9,3.9,0,0,0-3-2,3.61,3.61,0,0,0-1.27.09,4.42,4.42,0,0,0-3,1.3,6.25,6.25,0,0,0-7.8,2.82,6,6,0,0,0-5.5,3.7,4.45,4.45,0,0,0-3.73,2.22,4.4,4.4,0,0,0,.06,4.33s-5.11.79-4.12,5.37c.51,2.34,3.61,2.16,3.61,2.16l2.84,14.77c-.06.06.79,1.83,1.68,1.52a4.68,4.68,0,0,0,2-1.92,10.39,10.39,0,0,0,1.7-2.73,2.5,2.5,0,0,0-.79-2.89,3.74,3.74,0,0,0,2.48-2.8,10.92,10.92,0,0,0,.05-3.91q-.3-2.88-.62-5.76a7.18,7.18,0,0,0,6.48-3.63,4.11,4.11,0,0,0,6.06-1,5.37,5.37,0,0,0,6.28,3.76c-.39,1.47,2.18,3,3.61,3.53a5.32,5.32,0,0,0,3.34-.41,8.62,8.62,0,0,0,2.83,1.25h0l.16,0c2,.34,4.12-1.36,5.23-3.08a3.9,3.9,0,0,0,1.56,0A4.15,4.15,0,0,0,171.18,116.48Z" style="fill:#263238"></path><path d="M112.77,223.9c0,.07-1.34-.55-3.5-1.43a75.91,75.91,0,0,0-8.6-3,76.75,76.75,0,0,0-8.89-1.88c-2.31-.35-3.75-.49-3.74-.58a4.05,4.05,0,0,1,1,0c.66,0,1.6.09,2.77.22a59,59,0,0,1,17.59,4.87c1.06.49,1.91.91,2.49,1.23S112.79,223.86,112.77,223.9Z" style="fill:#fff"></path><path d="M103.64,286.46a1.19,1.19,0,0,1-.13-.26l-.32-.78-1.2-3c-1-2.64-2.49-6.47-4.1-11.26A124.65,124.65,0,0,1,93.28,254,80.31,80.31,0,0,1,92,243.51a74.13,74.13,0,0,1,.31-11.29,165.09,165.09,0,0,1,4-21.41c1.55-6.51,3.07-12.34,4.42-17.22s2.51-8.8,3.34-11.51c.42-1.32.74-2.36,1-3.11l.27-.8a1,1,0,0,1,.11-.27,1.09,1.09,0,0,1-.06.29l-.22.81c-.21.76-.51,1.81-.89,3.14-.77,2.72-1.88,6.66-3.18,11.55s-2.78,10.72-4.31,17.23a169.54,169.54,0,0,0-3.94,21.35,74.45,74.45,0,0,0-.32,11.21,81.25,81.25,0,0,0,1.24,10.38A128,128,0,0,0,98.24,271c1.57,4.8,3,8.64,3.94,11.3.47,1.31.84,2.33,1.11,3.07l.27.8A1.2,1.2,0,0,1,103.64,286.46Z" style="fill:#fff"></path><path d="M111.15,256.38s-.27.18-.79.41-1.3.53-2.26.87a57.45,57.45,0,0,1-7.71,2.1,58.74,58.74,0,0,1-7.92,1c-1,.05-1.85.06-2.42.05a2.72,2.72,0,0,1-.89-.07,27,27,0,0,1,3.28-.35c2-.2,4.81-.54,7.85-1.14s5.75-1.35,7.7-1.94A31.27,31.27,0,0,1,111.15,256.38Z" style="fill:#fff"></path><path d="M119.66,193c-.08.06-.89-1.2-2.55-2.92a25.2,25.2,0,0,0-3.14-2.74,27.46,27.46,0,0,0-4.4-2.6,28.27,28.27,0,0,0-4.82-1.67,24.53,24.53,0,0,0-4.13-.62c-2.38-.15-3.86.05-3.87-.06a4.36,4.36,0,0,1,1-.19,9.52,9.52,0,0,1,1.22-.1,14.52,14.52,0,0,1,1.64,0,22.8,22.8,0,0,1,4.22.52,25.85,25.85,0,0,1,4.93,1.67,26.83,26.83,0,0,1,4.47,2.68,23.67,23.67,0,0,1,3.12,2.88,14.55,14.55,0,0,1,1.05,1.26,9.67,9.67,0,0,1,.71,1A4.31,4.31,0,0,1,119.66,193Z" style="fill:#fff"></path><path d="M128.22,290a2.06,2.06,0,0,1,0-.33v-.94c0-.87,0-2.09,0-3.64,0-3.19.11-7.75.18-13.37.21-11.32.49-26.9.81-44.1.15-8.62.27-16.82,0-24.28-.13-3.72-.37-7.26-.69-10.56a55.57,55.57,0,0,0-1.49-9.07,24.13,24.13,0,0,0-3-6.92,17.56,17.56,0,0,0-3.77-4.25,15.16,15.16,0,0,0-3.06-1.91c-.76-.34-1.18-.47-1.17-.5a7.42,7.42,0,0,1,1.21.41,13.45,13.45,0,0,1,3.14,1.84,17.61,17.61,0,0,1,3.9,4.25,24.25,24.25,0,0,1,3.08,7,54.68,54.68,0,0,1,1.57,9.12c.34,3.31.59,6.85.74,10.58.3,7.47.19,15.69,0,24.3-.38,17.21-.71,32.79-1,44.11-.14,5.62-.26,10.17-.35,13.36,0,1.56-.09,2.77-.12,3.64,0,.39,0,.7,0,.94A1.68,1.68,0,0,1,128.22,290Z" style="fill:#fff"></path><path d="M144.37,268.69a5.68,5.68,0,0,1-1.27-.12c-.8-.12-2-.3-3.41-.55-2.88-.49-6.84-1.23-11.2-2.13s-8.3-1.79-11.13-2.48c-1.42-.35-2.56-.64-3.35-.85a5.61,5.61,0,0,1-1.21-.39,6.08,6.08,0,0,1,1.26.19l3.38.69,11.15,2.33,11.17,2.28,3.38.71A6.32,6.32,0,0,1,144.37,268.69Z" style="fill:#fff"></path><path d="M147.08,232.83c0,.14-8-.34-17.93-1.08s-17.91-1.46-17.9-1.6,8,.34,17.94,1.08S147.09,232.69,147.08,232.83Z" style="fill:#fff"></path><path d="M149.7,201.27a6.79,6.79,0,0,1-1.29.16c-.83.07-2,.15-3.53.23-3,.15-7.11.27-11.66.24s-8.69-.2-11.67-.38c-1.49-.1-2.69-.19-3.53-.27a5.52,5.52,0,0,1-1.28-.18,5.94,5.94,0,0,1,1.3,0l3.53.1c3,.09,7.1.2,11.65.23s8.67,0,11.65-.09l3.53-.06A5.72,5.72,0,0,1,149.7,201.27Z" style="fill:#fff"></path><path d="M128.41,171.79a14,14,0,0,1-2.39.56,58.3,58.3,0,0,0-5.69,1.5c-2.19.71-4.12,1.5-5.5,2.1a16.13,16.13,0,0,1-2.26,1,9.29,9.29,0,0,1,2.1-1.28A37.86,37.86,0,0,1,126,172,9.59,9.59,0,0,1,128.41,171.79Z" style="fill:#fff"></path><path d="M148.43,183.09a5.2,5.2,0,0,1-.92-.78l-2.4-2.27c-2-1.91-4.83-4.53-8-7.33s-6.14-5.27-8.3-7l-2.54-2.09a5.46,5.46,0,0,1-.9-.82,5.72,5.72,0,0,1,1,.66c.64.44,1.55,1.11,2.65,2,2.22,1.69,5.22,4.11,8.41,6.93s6,5.48,7.93,7.46c1,1,1.76,1.81,2.29,2.38A5.6,5.6,0,0,1,148.43,183.09Z" style="fill:#fff"></path><path d="M141.88,172.3a22.85,22.85,0,0,1-3,3.72,23.1,23.1,0,0,1-3.43,3.37,21.34,21.34,0,0,1,3-3.72A22,22,0,0,1,141.88,172.3Z" style="fill:#fff"></path><path d="M157.6,201.85a23.54,23.54,0,0,1-3.68-.11,22.1,22.1,0,0,1-3.67-.22,9.44,9.44,0,0,1,3.7-.3A9.3,9.3,0,0,1,157.6,201.85Z" style="fill:#fff"></path><path d="M155.24,235.21a13.79,13.79,0,0,1-3.74.17,13.29,13.29,0,0,1-3.73-.35,13.79,13.79,0,0,1,3.74-.17A13.42,13.42,0,0,1,155.24,235.21Z" style="fill:#fff"></path><path d="M154.57,189.77a.94.94,0,0,1,0,.27l0,.8c0,.74,0,1.77,0,3.08s0,3,0,4.87-.06,4.06-.14,6.45c-.27,9.56-1.09,22.75-2.12,37.3s-1.91,27.73-2.28,37.28c-.11,2.39-.18,4.55-.22,6.45s-.11,3.53-.11,4.86,0,2.34-.06,3.08c0,.33,0,.59,0,.8a1.07,1.07,0,0,1,0,.28,1.07,1.07,0,0,1,0-.28c0-.21,0-.47,0-.8,0-.74,0-1.77-.05-3.08s0-3,0-4.87.06-4.06.14-6.45c.28-9.56,1.11-22.75,2.13-37.3s1.9-27.73,2.27-37.28c.11-2.39.17-4.55.22-6.44s.1-3.54.11-4.87,0-2.34.05-3.08l0-.8C154.56,189.86,154.57,189.77,154.57,189.77Z" style="fill:#fff"></path><path d="M154.08,268.55a22.14,22.14,0,0,1-4.72,1.13,22.35,22.35,0,0,1-4.81.62,23.67,23.67,0,0,1,4.72-1.13A23.14,23.14,0,0,1,154.08,268.55Z" style="fill:#fff"></path><path d="M172.91,229.06a21.59,21.59,0,0,1-2.62,1.72c-1.64,1-3.89,2.45-6.31,4.13s-4.55,3.28-6.08,4.46a23.31,23.31,0,0,1-2.52,1.86,15,15,0,0,1,2.29-2.15c1.48-1.25,3.58-2.91,6-4.6s4.72-3.08,6.41-4A16.75,16.75,0,0,1,172.91,229.06Z" style="fill:#fff"></path><path d="M169.72,242.48a14.54,14.54,0,0,1-1.39-2.29c-.82-1.44-2-3.41-3.29-5.54s-2.61-4-3.54-5.39a15.77,15.77,0,0,1-1.45-2.26,12.09,12.09,0,0,1,1.75,2c1,1.31,2.34,3.18,3.68,5.33s2.44,4.16,3.17,5.65A12.21,12.21,0,0,1,169.72,242.48Z" style="fill:#fff"></path></g><g id="freepik--Floor--inject-210"><path d="M462.53,478.36c0,.14-95.16.26-212.52.26s-212.54-.12-212.54-.26,95.14-.26,212.54-.26S462.53,478.22,462.53,478.36Z" style="fill:#263238"></path></g></svg>