<svg xmlns="http://www.w3.org/2000/svg" viewBox="0 0 750 500"><g id="freepik--background-simple--inject-6"><path d="M294.31,430.22c-34.7,3.33-92-25.56-118.41-55.4-23.08-26.12-38.49-64.56-35.28-99.27s26.12-67.43,58.5-80.34c34.4-13.72,74.25-5.1,109.39-16.82,51.12-17,80-72,127.42-97.58A124.27,124.27,0,0,1,596,118.09c27.15,38.07,30.56,90,15.25,134.17s-44.21,91-81.83,118.77c-63,46.52-152.63,73.26-235.13,59.19" style="fill:#ebebeb"></path></g><g id="freepik--Floor--inject-6"><path d="M687.24,465.68c0,.15-139.81.26-312.23.26s-312.25-.11-312.25-.26,139.78-.26,312.25-.26S687.24,465.54,687.24,465.68Z" style="fill:#263238"></path></g><g id="freepik--character-1--inject-6"><path d="M167.25,455.64l-1.86,7.83s-12.81,16.63-16.76,15.82c-2.59-.53.59-4.87,5.46-17.51l1-5.21Z" style="fill:#FFA113"></path><path d="M148.11,476.83a1.55,1.55,0,0,0,.68.66,2.39,2.39,0,0,0,2.45-.34,72.56,72.56,0,0,0,6.38-6c2.37-2.49,4.36-4.88,5.76-6.65l1.64-2.1c.15-.21.3-.4.44-.58a.88.88,0,0,1,.17-.19s0,.08-.13.22-.27.38-.41.6c-.36.52-.9,1.26-1.58,2.15a82,82,0,0,1-5.73,6.71,62.73,62.73,0,0,1-6.45,6,3,3,0,0,1-1.44.54,2.14,2.14,0,0,1-1.14-.25,1.47,1.47,0,0,1-.54-.5A.67.67,0,0,1,148.11,476.83Z" style="fill:#263238"></path><path d="M149.92,471.49a2.07,2.07,0,0,1,1.06-.12,5.49,5.49,0,0,1,2.41.84,4.39,4.39,0,0,1,1.75,1.85,2.3,2.3,0,0,1,.28,1s-.12-.39-.42-.95a4.66,4.66,0,0,0-1.73-1.73,6.16,6.16,0,0,0-2.31-.88C150.33,471.44,149.93,471.53,149.92,471.49Z" style="fill:#263238"></path><path d="M162.05,467.58s-.08-.12-.16-.37a6.88,6.88,0,0,1-.25-1.07,5.81,5.81,0,0,1,.6-3.56,5.45,5.45,0,0,1,2.59-2.52,4.31,4.31,0,0,1,1-.33,1.17,1.17,0,0,1,.41,0,8.19,8.19,0,0,0-1.39.5,5.65,5.65,0,0,0-2.46,2.47,6.1,6.1,0,0,0-.64,3.44C161.91,467,162.09,467.57,162.05,467.58Z" style="fill:#263238"></path><path d="M166.43,457c.06,0-.23,1.11-.47,2.5a8.43,8.43,0,0,1-.66,2.46c-.05,0,.2-1.12.44-2.51A8.62,8.62,0,0,1,166.43,457Z" style="fill:#263238"></path><path d="M153.87,462.89a2.93,2.93,0,0,1,1.64,0,2.84,2.84,0,0,1,1.48.7c0,.06-.67-.28-1.53-.48S153.87,463,153.87,462.89Z" style="fill:#263238"></path><path d="M153.6,464.23a2,2,0,0,1,1.39-.05,2,2,0,0,1,1.21.67s-.55-.28-1.27-.45S153.61,464.3,153.6,464.23Z" style="fill:#263238"></path><path d="M152.58,465.91a1.73,1.73,0,0,1,1.43-.18,1.77,1.77,0,0,1,1.22.78A7.54,7.54,0,0,0,154,466,6.81,6.81,0,0,0,152.58,465.91Z" style="fill:#263238"></path><path d="M154.75,462.33s.59-.16,1.5-.52a11.78,11.78,0,0,0,1.55-.74c.28-.16.56-.34.85-.54s.54-.48.53-.78-.38-.47-.68-.4a1.81,1.81,0,0,0-.79.53c-.47.44-.87.87-1.2,1.23-.65.74-1,1.23-1,1.2a2.36,2.36,0,0,1,.22-.37c.16-.23.39-.55.71-.93a12.87,12.87,0,0,1,1.17-1.28,2,2,0,0,1,.89-.6.76.76,0,0,1,1,.6,1.31,1.31,0,0,1-.64,1,9.68,9.68,0,0,1-.88.55,10.48,10.48,0,0,1-1.59.71,10.32,10.32,0,0,1-1.13.31A1.74,1.74,0,0,1,154.75,462.33Z" style="fill:#263238"></path><path d="M155.42,462.17a14.11,14.11,0,0,1-.23-1.43,6.29,6.29,0,0,0-.44-1.49,3.18,3.18,0,0,0-.48-.75c-.19-.22-.49-.41-.73-.27s-.27.49-.24.78a3.9,3.9,0,0,0,.25.86,5,5,0,0,0,.84,1.29c.59.66,1.06,1,1,1a1.45,1.45,0,0,1-.34-.2,7.47,7.47,0,0,1-.81-.7,4.77,4.77,0,0,1-.91-1.32,3.23,3.23,0,0,1-.28-.91,1,1,0,0,1,.35-1,.84.84,0,0,1,1,.32,3,3,0,0,1,.5.82,5.37,5.37,0,0,1,.41,1.54c.05.45.07.81.08,1.06A1.19,1.19,0,0,1,155.42,462.17Z" style="fill:#263238"></path><g style="opacity:0.4"><path d="M165.39,463.47l.9-3.76s-3.14.58-3.95,2.93a9.84,9.84,0,0,0-.62,4L154.9,474s-1.71-3.34-4.81-2.54c0,0-2.44,5.37-2.36,6.71s1.64,1.18,2.19.93a27.39,27.39,0,0,0,6.11-4.82C159.64,470.53,163.64,465.78,165.39,463.47Z"></path></g><path d="M228.58,460.67l.06-10.44L209.08,450l-.25,15.27,1.21.09c5.4.37,27.45,1.48,31.08.43C245.15,464.62,228.58,460.67,228.58,460.67Z" style="fill:#FFA113"></path><g style="opacity:0.4"><path d="M215.93,465.2a6.82,6.82,0,0,0-2.45-4.2,6.57,6.57,0,0,0-4.55-1.47l-.07,5.46Z"></path></g><g style="opacity:0.4"><path d="M236.68,462.89s5.8,1.75,5.06,2.7-23.07.67-32.91-.32l0-.43,26,.55S235.54,462.93,236.68,462.89Z"></path></g><path d="M208.56,464.82l.34,0,1,.07,3.56.2c3,.14,7.15.29,11.73.35s8.74,0,11.74,0l3.56-.11,1,0a2.77,2.77,0,0,0,.33,0,1.23,1.23,0,0,0-.34,0h-1l-3.56,0c-3,0-7.15,0-11.74,0s-8.73-.19-11.73-.29l-3.55-.12-1,0Z" style="fill:#263238"></path><path d="M234.91,465.69a7.49,7.49,0,0,1,.68-1.69,7.67,7.67,0,0,1,1.23-1.34,3.15,3.15,0,0,0-1.91,3Z" style="fill:#263238"></path><path d="M229.17,462.69c.06,0,.34-.3.63-.74a2.24,2.24,0,0,0,.43-.87c-.06,0-.34.29-.63.74A2.17,2.17,0,0,0,229.17,462.69Z" style="fill:#263238"></path><path d="M227.6,461.83c0,.05.35-.15.69-.45s.59-.58.54-.63-.35.16-.69.45S227.56,461.78,227.6,461.83Z" style="fill:#263238"></path><path d="M226.62,460a2.31,2.31,0,0,0,1,.15,2.22,2.22,0,0,0,1-.1,2.29,2.29,0,0,0-1-.14A2.52,2.52,0,0,0,226.62,460Z" style="fill:#263238"></path><path d="M226.29,458.67a2,2,0,0,0,1.14.34,2,2,0,0,0,1.18-.14,6.57,6.57,0,0,0-1.16-.09A5.28,5.28,0,0,0,226.29,458.67Z" style="fill:#263238"></path><path d="M229.86,461a3.54,3.54,0,0,0,1.25,0,7.4,7.4,0,0,0,1.35-.28,3.58,3.58,0,0,0,.77-.3.69.69,0,0,0,.31-.39.47.47,0,0,0-.18-.5,2.31,2.31,0,0,0-2.86.63,2.24,2.24,0,0,0-.42.84.69.69,0,0,0,0,.34,3.53,3.53,0,0,1,.59-1.07,2.21,2.21,0,0,1,1.08-.68,1.91,1.91,0,0,1,1.5.12c.19.15.11.38-.11.51a3.65,3.65,0,0,1-.71.29,9.54,9.54,0,0,1-1.3.33C230.34,461,229.86,461,229.86,461Z" style="fill:#263238"></path><path d="M230.18,461.06a1.24,1.24,0,0,0,.16-.87,2.14,2.14,0,0,0-.33-.92,1.27,1.27,0,0,0-1-.66.52.52,0,0,0-.4.58,1.34,1.34,0,0,0,.21.56,3.86,3.86,0,0,0,.58.77,1.83,1.83,0,0,0,.72.52s-.25-.23-.59-.63a4.36,4.36,0,0,1-.52-.76c-.17-.27-.28-.75,0-.8s.63.29.82.54a2,2,0,0,1,.34.82A4.41,4.41,0,0,1,230.18,461.06Z" style="fill:#263238"></path><path d="M209,459.47s.56,0,1.44.07a6.11,6.11,0,0,1,5.07,4.15c.29.84.31,1.41.36,1.4a1.31,1.31,0,0,0,0-.39,4.52,4.52,0,0,0-.2-1.06,6,6,0,0,0-1.94-2.94,5.93,5.93,0,0,0-3.27-1.32,5.34,5.34,0,0,0-1.08,0A1.22,1.22,0,0,0,209,459.47Z" style="fill:#263238"></path><path d="M211.16,451.36a33.89,33.89,0,0,0-.22,4,32,32,0,0,0,0,4,37,37,0,0,0,.22-4A34.1,34.1,0,0,0,211.16,451.36Z" style="fill:#263238"></path><path d="M218.41,463.33a11,11,0,0,0,2.85.32,11.23,11.23,0,0,0,2.87-.19c0-.07-1.29,0-2.86,0S218.42,463.26,218.41,463.33Z" style="fill:#263238"></path><path d="M214.58,463.27c-.05.05.1.28.23.57s.19.56.26.55.1-.3,0-.64S214.62,463.23,214.58,463.27Z" style="fill:#263238"></path><path d="M213.16,461.46s.07.25.27.46.4.34.45.29-.08-.25-.28-.46S213.2,461.41,213.16,461.46Z" style="fill:#263238"></path><path d="M211.1,460.61c0,.07.27.07.56.17s.49.26.54.22-.11-.32-.46-.44S211.08,460.55,211.1,460.61Z" style="fill:#263238"></path><path d="M209.63,460.2c0,.06.09.17.25.23s.31.07.34,0-.09-.16-.25-.23S209.66,460.14,209.63,460.2Z" style="fill:#263238"></path><polygon points="241.81 259.29 234.3 455.32 203.84 455.96 208.9 286.1 174.64 457.26 145.68 457.26 182.99 259.68 241.81 259.29" style="fill:#263238"></polygon><path d="M215.92,266.42a20.56,20.56,0,0,1-.35,3.23c-.29,2-.71,4.72-1.22,7.74a31.88,31.88,0,0,1-.87,4.25,6,6,0,0,1-2,3,4.7,4.7,0,0,1-2.21,1,1.78,1.78,0,0,1-.89,0,5.48,5.48,0,0,0,4.62-4.12,38.08,38.08,0,0,0,.81-4.19c.51-3,1-5.75,1.37-7.71A19.57,19.57,0,0,1,215.92,266.42Z" style="fill:#455a64"></path><path d="M209.58,267.36c.07.05-.18.36,0,.88a1,1,0,0,0,.51.65.82.82,0,0,0,.91-.18.85.85,0,0,0,.3-.87,1,1,0,0,0-.59-.59c-.49-.21-.84,0-.88-.08s.28-.44,1-.28a1.34,1.34,0,0,1,.93.78,1.38,1.38,0,0,1-1.9,1.66,1.36,1.36,0,0,1-.65-1C209.1,267.58,209.56,267.29,209.58,267.36Z" style="fill:#455a64"></path><path d="M193.22,270.15a5.74,5.74,0,0,1,.58-5.44c.15.07-.29,1.22-.44,2.71S193.38,270.12,193.22,270.15Z" style="fill:#455a64"></path><path d="M196.89,269.92a4.71,4.71,0,0,1-.44-2.88,4.76,4.76,0,0,1,.83-2.79,25.08,25.08,0,0,1-.3,2.83A25.82,25.82,0,0,1,196.89,269.92Z" style="fill:#455a64"></path><path d="M228.37,270.72a17.44,17.44,0,0,1,.17-2.94,18.77,18.77,0,0,1,.13-2.95,5.52,5.52,0,0,1,.41,3A5.72,5.72,0,0,1,228.37,270.72Z" style="fill:#455a64"></path><path d="M232.35,270.5c-.15-.06.32-1.34.43-3s-.17-3,0-3a4.81,4.81,0,0,1,.56,3.06A4.86,4.86,0,0,1,232.35,270.5Z" style="fill:#455a64"></path><path d="M199.37,177.73l18.8-1.5c.12-2.2,0-10.69,0-10.69s7.83-1.22,7.92-9-1.26-25.79-1.26-25.79h0a27.18,27.18,0,0,0-27.32,3.44l-1.16.89Z" style="fill:#ffbe9d"></path><path d="M218.15,165.42a18.14,18.14,0,0,1-10.2-2.89s2.41,5.63,10.21,4.92Z" style="fill:#eb996e"></path><path d="M197.28,143.14c-.13-.06-5.38-1.59-5.21,3.76s5.51,4.07,5.51,3.92S197.28,143.14,197.28,143.14Z" style="fill:#ffbe9d"></path><path d="M195.89,148.85s-.1.06-.25.14a.94.94,0,0,1-.7,0,2.32,2.32,0,0,1-1.13-2,3.08,3.08,0,0,1,.22-1.34,1.06,1.06,0,0,1,.68-.74.47.47,0,0,1,.55.24c.08.15.05.26.08.26s.11-.09.06-.31a.58.58,0,0,0-.22-.33.74.74,0,0,0-.52-.12,1.35,1.35,0,0,0-.95.86,3.19,3.19,0,0,0-.27,1.5,2.42,2.42,0,0,0,1.43,2.27,1,1,0,0,0,.85-.17C195.88,149,195.9,148.85,195.89,148.85Z" style="fill:#eb996e"></path><path d="M222.23,142.75a1.12,1.12,0,0,1-1.08,1.13,1.07,1.07,0,0,1-1.15-1,1.12,1.12,0,0,1,1.08-1.13A1.07,1.07,0,0,1,222.23,142.75Z" style="fill:#263238"></path><path d="M223.31,141.72c-.14.14-1-.48-2.18-.48s-2.09.6-2.22.46.08-.33.46-.61a3.11,3.11,0,0,1,1.78-.55,3,3,0,0,1,1.74.56C223.26,141.39,223.38,141.65,223.31,141.72Z" style="fill:#263238"></path><path d="M210.18,142.84A1.11,1.11,0,0,1,209.1,144a1.07,1.07,0,0,1-1.15-1,1.12,1.12,0,0,1,1.08-1.12A1.07,1.07,0,0,1,210.18,142.84Z" style="fill:#263238"></path><path d="M211.5,141.94c-.14.15-1-.48-2.19-.48s-2.08.61-2.21.46.07-.33.46-.61a3,3,0,0,1,1.77-.54,2.92,2.92,0,0,1,1.74.56C211.44,141.61,211.56,141.88,211.5,141.94Z" style="fill:#263238"></path><path d="M215.86,150.86a7.81,7.81,0,0,1,1.95-.36c.31,0,.6-.09.65-.3a1.65,1.65,0,0,0-.2-.91l-.91-2.34a39.33,39.33,0,0,1-2-6.11,41.87,41.87,0,0,1,2.53,5.94l.87,2.35a1.78,1.78,0,0,1,.15,1.2.74.74,0,0,1-.5.45,2.13,2.13,0,0,1-.52.07A8.33,8.33,0,0,1,215.86,150.86Z" style="fill:#263238"></path><path d="M212.32,151.69c.2,0,.2,1.29,1.32,2.22s2.5.78,2.51,1-.31.26-.89.27a3.25,3.25,0,0,1-2.11-.73,2.81,2.81,0,0,1-1-1.86C212.09,152,212.23,151.68,212.32,151.69Z" style="fill:#263238"></path><path d="M211.81,137.23c-.12.33-1.32.17-2.73.34s-2.55.56-2.74.26c-.08-.14.11-.44.57-.76a4.52,4.52,0,0,1,2-.71,4.6,4.6,0,0,1,2.14.25C211.6,136.82,211.86,137.07,211.81,137.23Z" style="fill:#263238"></path><path d="M222.87,138.24c-.21.27-1,0-2,0s-1.84.19-2-.1,0-.41.42-.67a2.94,2.94,0,0,1,3.28.1C222.85,137.82,223,138.1,222.87,138.24Z" style="fill:#263238"></path><path d="M228.6,125.77a2.87,2.87,0,0,0-1.06-2.58,2.06,2.06,0,0,0-2.66.2,2.39,2.39,0,0,0-2-2.9c-1.28-.08-2.36.89-3.6,1.22a5.78,5.78,0,0,1-3.65-.42c-1.16-.46-2.24-1.11-3.41-1.54a10,10,0,0,0-12.8,5.88,4.43,4.43,0,0,0-4.71,1.78,7.3,7.3,0,0,0-1.11,5.13,16.28,16.28,0,0,0,.89,3.51c0,.1,0,.2,0,.3.09,4.31.57,9.36,2.41,9.39,3.2,0,2.43-6,2.43-6,3.93-1.52,2.47-7.4,3.45-8.29s3-3,11.25,1.23a16,16,0,0,0,9.75,1.06l.21,0h0l.07,0a7.27,7.27,0,0,0,2.11-.9,4.17,4.17,0,0,0,1.74-1.93,2.31,2.31,0,0,0-.45-2.45A4.94,4.94,0,0,0,228.6,125.77Z" style="fill:#263238"></path><path d="M214,142.79c-.05,0,0-.43-.25-1.16a4.78,4.78,0,0,0-1.78-2.55,4.63,4.63,0,1,0,0,7.42,4.85,4.85,0,0,0,1.78-2.55c.21-.73.2-1.16.25-1.16s0,.1,0,.31a3.73,3.73,0,0,1-.09.9,4.83,4.83,0,0,1-1.75,2.79,5,5,0,0,1-4.79.78,5.07,5.07,0,1,1,4.79-8.79,4.85,4.85,0,0,1,1.75,2.8,3.69,3.69,0,0,1,.09.9C214,142.68,214,142.79,214,142.79Z" style="fill:#263238"></path><path d="M227,142.79s0-.43-.25-1.16a4.81,4.81,0,0,0-1.77-2.55,4.63,4.63,0,1,0,0,7.42,4.88,4.88,0,0,0,1.77-2.55c.21-.73.2-1.16.25-1.16s0,.1,0,.31a3.73,3.73,0,0,1-.09.9,4.83,4.83,0,0,1-1.75,2.79,5,5,0,0,1-4.78.78,5.07,5.07,0,0,1,0-9.56,5,5,0,0,1,4.78.77,4.85,4.85,0,0,1,1.75,2.8,3.69,3.69,0,0,1,.09.9C227,142.68,227,142.79,227,142.79Z" style="fill:#263238"></path><path d="M217.65,142.49c-.06.14-.87-.1-1.88-.05s-1.8.33-1.87.2.71-.68,1.85-.72S217.72,142.37,217.65,142.49Z" style="fill:#263238"></path><path d="M204.22,142.44a11.7,11.7,0,0,1-3.41.45,11.82,11.82,0,0,1-3.44-.07,11.23,11.23,0,0,1,3.41-.45A11.89,11.89,0,0,1,204.22,142.44Z" style="fill:#263238"></path><path d="M251.79,204.81,258,216l3.79-30.43a12.19,12.19,0,0,0-1.26-6.39,12.68,12.68,0,0,0-1.54-2.48,13.45,13.45,0,0,0-2.65-2.49,1.11,1.11,0,0,1,.2-2.09c1-.11,3.7,1.34,5.83,4.26s2.35-2.7,2.47-4.74.78-8.32,1.43-8.77c1-.65,1.86.28,1.7,2.32s-.24,8.17.84,8.21,1.52-10.36,1.52-10.36-.26-2.25,1-2.24c2.24,0,.94,11,.79,12-.1.72,1.07.81,1.14,0s.22-10.38,2.5-10.4c1.76,0-1,9.06.08,11.09s1.38-7.11,3.06-7.05c.62,0,1.09.12.16,5.32-.5,2.8-2.35,6.83-2.91,12.29l-.15,1.41c-.11,6.8-1.61,27.29-7.79,42.89a12.64,12.64,0,0,1-22.24,2.25c-3.8-5.73-9.81-20.71-9.81-20.71Z" style="fill:#ffbe9d"></path><path d="M272.76,181.28c0,.05-.35,0-.89.23a3.23,3.23,0,0,0-1.73,1.43l-.21.38-.12-.42a5.28,5.28,0,0,0-.83-1.66,6.07,6.07,0,0,0-2.87-2.12c-.88-.31-1.48-.29-1.48-.37a2.93,2.93,0,0,1,1.56.11A5.7,5.7,0,0,1,269.3,181a5.17,5.17,0,0,1,.86,1.79l-.33,0a3.14,3.14,0,0,1,2-1.46A1.51,1.51,0,0,1,272.76,181.28Z" style="fill:#eb996e"></path><path d="M240.35,182.6,258,216l3-29.53h15.81L271,228.56a12.35,12.35,0,0,1-8.33,10.24h0c-5.74,1.93-13.37-.32-16.2-5.67l-10.34-17.6Z" style="fill:#FFA113"></path><path d="M259.1,229.82a6.23,6.23,0,0,1-1.18-1.88,15.57,15.57,0,0,1-1-10.52,6.56,6.56,0,0,1,.82-2.07,19.47,19.47,0,0,0,1.34,14.47Z" style="fill:#263238"></path><g style="opacity:0.30000000000000004"><path d="M257.5,214.88a7.47,7.47,0,0,0-3.08,4.78,17.76,17.76,0,0,0-.11,5.82,3.43,3.43,0,0,0,.44,1.6,1.23,1.23,0,0,0,1.44.54,1.28,1.28,0,0,0,.64-1.18,4.69,4.69,0,0,0-.31-1.37,11.66,11.66,0,0,1,1.45-9.84"></path></g><path d="M190.32,174.78c2.64-.5,5.2-1.46,8.3-1.59h0a33.22,33.22,0,0,0,20,0c.82.11,2,.21,3.37.38,8.71,1,12.05,2.87,18.31,9l-.69,35.25s2.1,40.12,2,46.6H182.09L182,237.24v-7.4L162.46,237l1.78-10.28S173,192.6,174.38,188C176,182.42,182,176.37,190.32,174.78Z" style="fill:#FFA113"></path><path d="M171.43,227.26,200,219.83l8.17,13.29-29.1,12.25a11.7,11.7,0,0,1-4.84,1h0a11.79,11.79,0,0,1-10.89-7.3l-.88-2.16Z" style="fill:#FFA113"></path><path d="M186.32,224.36c-.14,0-.26-5.25-.26-11.72s.12-11.71.26-11.71.27,5.24.27,11.71S186.47,224.36,186.32,224.36Z" style="fill:#263238"></path><g style="opacity:0.30000000000000004"><path d="M181.79,244.32a9.93,9.93,0,0,0,3.81,3.55c3.57,1.93,8,1.88,11.83.62a33.84,33.84,0,0,0,10.41-6.16,87.41,87.41,0,0,0,11.58-11.26,1.23,1.23,0,0,0,.42-.95c-.1-.62-1-.7-1.58-.61-5.92.94-11.32,3.81-16.72,6.42q-9.63,4.66-19.7,8.38"></path></g><path d="M238,204.41a1.35,1.35,0,0,1-.11.27l-.37.77c-.17.33-.42.72-.7,1.19a16.45,16.45,0,0,1-1.15,1.51,17.09,17.09,0,0,1-3.92,3.4,17.83,17.83,0,0,1-6.39,2.5,17.12,17.12,0,0,1-8.29-.57,19.64,19.64,0,0,1-8.09-5.06,18.71,18.71,0,0,1-5-9.28,14.6,14.6,0,0,1-.05-5.63,12.43,12.43,0,0,1,2.42-5.27,10.19,10.19,0,0,1,4.72-3.38,6.41,6.41,0,0,1,2.88-.3,4.65,4.65,0,0,1,2.59,1.25,3.69,3.69,0,0,1,1.14,2.6,4.81,4.81,0,0,1-.81,2.65,7.1,7.1,0,0,1-4.41,2.77,19.92,19.92,0,0,1-9.55-.19A19.81,19.81,0,0,1,188.94,180a15.13,15.13,0,0,1-.72-4.35,1.47,1.47,0,0,1,.05.28l.12.84a21.46,21.46,0,0,0,.75,3.17,20.3,20.3,0,0,0,6.64,9.69,19.85,19.85,0,0,0,7.32,3.61,19.63,19.63,0,0,0,9.32.15,6.69,6.69,0,0,0,4.11-2.58,4.26,4.26,0,0,0,.72-2.37,3.11,3.11,0,0,0-1-2.24,4.12,4.12,0,0,0-2.31-1.11,5.88,5.88,0,0,0-2.65.28,9.79,9.79,0,0,0-4.47,3.21,12,12,0,0,0-2.32,5.05,14.16,14.16,0,0,0,0,5.43,18.31,18.31,0,0,0,4.8,9.05,19.45,19.45,0,0,0,7.88,5,16.88,16.88,0,0,0,8.1.62,17.78,17.78,0,0,0,6.3-2.39,17.59,17.59,0,0,0,3.92-3.28A19.76,19.76,0,0,0,238,204.41Z" style="fill:#e0e0e0"></path><path d="M240.5,243.37a18.08,18.08,0,0,0-1.63-3.62,12.45,12.45,0,0,0-8.67-5.82,17.09,17.09,0,0,0-7.37.34,20.52,20.52,0,0,0-3.88,1.44,14.46,14.46,0,0,0-3.62,2.43,6.63,6.63,0,0,0-2.08,3.9,4,4,0,0,0,1.71,4,3,3,0,0,0,4.19-.64,11.13,11.13,0,0,0,2-4.63,18.29,18.29,0,0,0-.66-9.95,18.57,18.57,0,0,0-5.16-7.76,21.31,21.31,0,0,0-7.33-4.29,21.6,21.6,0,0,0-17.68,1.54c-1.13.61-1.95,1.17-2.52,1.54l-.63.43-.23.14a19.49,19.49,0,0,1,3.28-2.29,21.36,21.36,0,0,1,10.45-2.93,22.08,22.08,0,0,1,7.47,1.16,21.54,21.54,0,0,1,7.51,4.34,19.2,19.2,0,0,1,5.33,7.95,18.84,18.84,0,0,1,.68,10.24,11.67,11.67,0,0,1-2.08,4.85,3.54,3.54,0,0,1-4.86.73,4.15,4.15,0,0,1-1.64-2,5,5,0,0,1-.29-2.49A7,7,0,0,1,215,237.8a15,15,0,0,1,3.74-2.5,21,21,0,0,1,4-1.45,17.71,17.71,0,0,1,7.55-.29,12.64,12.64,0,0,1,8.78,6.08,13.23,13.23,0,0,1,1.2,2.72,7.4,7.4,0,0,1,.2.75A1,1,0,0,1,240.5,243.37Z" style="fill:#e0e0e0"></path><path d="M186.06,209.86s-.15.25-.5.63A12.13,12.13,0,0,1,184,212a14.65,14.65,0,0,1-2.73,1.73,16.13,16.13,0,0,1-3.76,1.28,19.92,19.92,0,0,1-7.16,0,21.08,21.08,0,0,1-2.12-.48c-.49-.15-.76-.24-.75-.28s1.12.17,2.92.39a22.44,22.44,0,0,0,7-.17,17.37,17.37,0,0,0,3.65-1.2,16.29,16.29,0,0,0,2.72-1.6C185.21,210.62,186,209.8,186.06,209.86Z" style="fill:#e0e0e0"></path><path d="M180.73,244.55a18,18,0,0,0-1.1-3.11,9.78,9.78,0,0,0-13.4-4.36,18.35,18.35,0,0,0-2.72,1.86,2.43,2.43,0,0,1,.57-.7,8.79,8.79,0,0,1,2-1.49A9.84,9.84,0,0,1,180,241.28a9,9,0,0,1,.72,2.36A2.56,2.56,0,0,1,180.73,244.55Z" style="fill:#e0e0e0"></path><path d="M243.76,228a3.49,3.49,0,0,1-.27-1,17.67,17.67,0,0,1-.37-2.73,22.29,22.29,0,0,1,.1-4.1,23.81,23.81,0,0,1,1.15-4.9,23.38,23.38,0,0,1,2.22-4.51,21.51,21.51,0,0,1,2.52-3.24,19,19,0,0,1,2-1.88,3.8,3.8,0,0,1,.82-.58c.07.08-1.06,1-2.57,2.71a24.81,24.81,0,0,0-2.39,3.24,23.57,23.57,0,0,0-3.29,9.22,24.33,24.33,0,0,0-.21,4C243.56,226.61,243.86,228,243.76,228Z" style="fill:#e0e0e0"></path><path d="M273.66,208.43s-.16.25-.55.59a6.74,6.74,0,0,1-1.92,1.11,8.6,8.6,0,0,1-7.12-.55,7.28,7.28,0,0,1-2.84-2.86,10.41,10.41,0,0,1-1.1-3.09,13.11,13.11,0,0,1-.27-2.17,2,2,0,0,1,0-.81c.09,0,.16,1.14.59,2.9a11.7,11.7,0,0,0,1.16,2.93,7.1,7.1,0,0,0,2.68,2.65,8.59,8.59,0,0,0,6.75.65A12.19,12.19,0,0,0,273.66,208.43Z" style="fill:#e0e0e0"></path><path d="M241.62,185.12a2.28,2.28,0,0,1-.72.46,7.72,7.72,0,0,1-2.21.71,9,9,0,0,1-3.44-.11,10.74,10.74,0,0,1-3.84-1.75,10.13,10.13,0,0,1-4-6.38,8.89,8.89,0,0,1-.12-2.31,2.58,2.58,0,0,1,.16-.84,21.51,21.51,0,0,0,.32,3.07,10.39,10.39,0,0,0,3.93,6,10.75,10.75,0,0,0,3.65,1.7,9.23,9.23,0,0,0,3.28.21A17,17,0,0,0,241.62,185.12Z" style="fill:#e0e0e0"></path><path d="M210.24,264a48.2,48.2,0,0,0-2.6-4.22,25.85,25.85,0,0,0-8.95-7.7,27.33,27.33,0,0,0-6.13-2.29,23.32,23.32,0,0,0-5.31-.61,47,47,0,0,0-4.93.45,5.52,5.52,0,0,1,1.29-.37,20.25,20.25,0,0,1,3.64-.45,22.19,22.19,0,0,1,5.42.51,26.41,26.41,0,0,1,6.26,2.3,24.68,24.68,0,0,1,9,7.95,22.62,22.62,0,0,1,1.82,3.17A5.38,5.38,0,0,1,210.24,264Z" style="fill:#e0e0e0"></path><path d="M238.85,197.92c.14,0,1,14.74,1.91,32.94s1.54,32.95,1.39,33-1-14.74-1.91-32.94S238.7,197.93,238.85,197.92Z" style="fill:#263238"></path><path d="M200,219.83a12.26,12.26,0,0,0,4.9-4.38,13,13,0,0,0,1.36-2.61,13.87,13.87,0,0,0,.79-3.57c0-1.13,1.31-1.72,1.92-.91s.73,3.9-.7,7.24,3.55.66,5.38-.29,7.62-3.61,8.34-3.27c1.06.5.71,1.76-1.14,2.66s-7.2,4-6.68,5,9.76-4,9.76-4,1.82-1.38,2.45-.3c1.15,2-9,6.47-10,6.88-.68.28-.15,1.34.57,1s9.11-5.16,10.3-3.18c.92,1.51-8.35,3.8-9.57,5.77s6.87-2.46,7.69-1c.3.56.45,1-4.54,2.88-2.68,1-7.12,1.48-12.14,3.8l-1.31.59" style="fill:#ffbe9d"></path><path d="M180.19,244.9a2.93,2.93,0,0,1,.54-.28l1.57-.71,5.88-2.56,19.89-8.47-.12.38L205.29,229l-5.66-9,.29.1L183,225.46l-4.9,1.52-1.32.38-.46.11a1.62,1.62,0,0,1,.44-.19l1.29-.46,4.85-1.65,16.84-5.57.19-.06.1.16,5.68,9,2.66,4.26.16.25-.28.12-20,8.31-5.94,2.41-1.61.63A3.24,3.24,0,0,1,180.19,244.9Z" style="fill:#263238"></path><path d="M179.52,222.14a6.37,6.37,0,0,1,6.74,1.81,22.6,22.6,0,0,0-3.24-1.41A23.58,23.58,0,0,0,179.52,222.14Z" style="fill:#263238"></path></g><g id="freepik--magnifying-glass--inject-6"><path d="M524,420.9,439.52,273.58A97.91,97.91,0,0,0,477.83,218c13.17-51-16.71-103.82-67.18-118.8a98.31,98.31,0,0,0-122.6,67.39c-14.76,52,15.77,106.73,67.79,121.45a97.85,97.85,0,0,0,63.85-3.55l83.17,148.44a12.15,12.15,0,0,0,16.6,4.63h0A12.16,12.16,0,0,0,524,420.9ZM358.27,280.42a90.51,90.51,0,1,1,111.32-63.18A90.51,90.51,0,0,1,358.27,280.42Z" style="fill:#455a64"></path><path d="M327.92,254.45s-.1-.07-.27-.23l-.74-.72c-.63-.65-1.65-1.54-2.79-2.83a80.67,80.67,0,0,1-8.95-11.58,88.44,88.44,0,0,1-5-8.81,90.76,90.76,0,0,1-4.38-10.75,83.44,83.44,0,0,1-.38-52.4,85.28,85.28,0,0,1,9.07-19.71,82,82,0,0,1,8.78-11.7c1.13-1.31,2.13-2.22,2.75-2.88l.73-.73c.17-.16.26-.24.27-.23a2.75,2.75,0,0,1-.23.27l-.7.77c-.59.68-1.57,1.6-2.67,2.94a86.55,86.55,0,0,0-8.62,11.76,90.26,90.26,0,0,0-4.77,8.87,93.26,93.26,0,0,0-4.16,10.78,83.84,83.84,0,0,0,.38,52.1,92,92,0,0,0,4.32,10.72,90.46,90.46,0,0,0,4.9,8.8,86.34,86.34,0,0,0,8.79,11.64c1.12,1.31,2.11,2.22,2.71,2.9.3.32.53.57.71.75A2.41,2.41,0,0,1,327.92,254.45Z" style="fill:#e0e0e0"></path><path d="M357,116a18.68,18.68,0,0,1-2.65,1.06c-1.65.62-3.9,1.52-6.31,2.68S343.52,122.1,342,123a17.62,17.62,0,0,1-2.48,1.41,13.22,13.22,0,0,1,2.29-1.72,51.37,51.37,0,0,1,6-3.39,49.83,49.83,0,0,1,6.42-2.56A12.75,12.75,0,0,1,357,116Z" style="fill:#e0e0e0"></path></g></svg>