<svg xmlns="http://www.w3.org/2000/svg" viewBox="0 0 500 500"><g id="freepik--background-complete--inject-132"><rect y="382.4" width="500" height="0.25" style="fill:#ebebeb"></rect><rect x="324.56" y="389.21" width="33.12" height="0.25" style="fill:#ebebeb"></rect><rect x="428.57" y="391.4" width="8.69" height="0.25" style="fill:#ebebeb"></rect><rect x="358.69" y="398.49" width="19.19" height="0.25" style="fill:#ebebeb"></rect><rect x="206.81" y="395.11" width="43.19" height="0.25" style="fill:#ebebeb"></rect><rect x="191.57" y="395.11" width="6.33" height="0.25" style="fill:#ebebeb"></rect><rect x="77.31" y="390.89" width="93.68" height="0.25" style="fill:#ebebeb"></rect><path d="M237,337.8H43.91a5.71,5.71,0,0,1-5.7-5.71V60.66A5.71,5.71,0,0,1,43.91,55H237a5.71,5.71,0,0,1,5.71,5.71V332.09A5.71,5.71,0,0,1,237,337.8ZM43.91,55.2a5.46,5.46,0,0,0-5.45,5.46V332.09a5.46,5.46,0,0,0,5.45,5.46H237a5.47,5.47,0,0,0,5.46-5.46V60.66A5.47,5.47,0,0,0,237,55.2Z" style="fill:#ebebeb"></path><path d="M453.31,337.8H260.21a5.72,5.72,0,0,1-5.71-5.71V60.66A5.72,5.72,0,0,1,260.21,55h193.1A5.71,5.71,0,0,1,459,60.66V332.09A5.71,5.71,0,0,1,453.31,337.8ZM260.21,55.2a5.47,5.47,0,0,0-5.46,5.46V332.09a5.47,5.47,0,0,0,5.46,5.46h193.1a5.47,5.47,0,0,0,5.46-5.46V60.66a5.47,5.47,0,0,0-5.46-5.46Z" style="fill:#ebebeb"></path><path d="M240,318.51h0c-.06-1.41-.18-2.84-.37-4.28-2-15.06-10.81-28.48-22.88-37.23a26.4,26.4,0,0,0-.24-3.93c-2-14.59-15.39-26.42-30-26.42a24.78,24.78,0,0,0-8.43,1.44c-10.23-13.64-26.53-22.74-43.72-22.74a44.37,44.37,0,0,0-16.26,3c-5.61-8.11-15-13.61-25-13.61-14.59,0-24.83,11.83-22.86,26.42a28,28,0,0,0,1.28,5.41c-18.74,6-30.51,24.15-27.61,45.65a51.11,51.11,0,0,0,2.45,10.13h0c-14.5,7.86-23,24-20.49,42.62,2,15.19,11,28.71,23.18,37.45H245.85C253.16,373.79,256.79,362,255,349A54.67,54.67,0,0,0,240,318.51Z" style="fill:#f0f0f0"></path><path d="M482.11,302.39h0c.52-1.77,1-3.56,1.35-5.37,3.93-18.85-.7-35.65-11.1-46.61a39.85,39.85,0,0,0,1.37-4.92c3.81-18.28-6.88-33.09-23.87-33.09a32,32,0,0,0-10.42,1.81C433.21,197.11,418,185.71,398,185.71a58.29,58.29,0,0,0-20.19,3.75c-3.13-10.16-11.78-17-23.36-17-17,0-33.85,14.81-37.66,33.08a36,36,0,0,0-.76,6.78c-24.31,7.48-45.61,30.24-51.22,57.16a65.09,65.09,0,0,0-1.37,12.69h0c-20.17,9.84-36.81,30.05-41.66,53.38-4,19,.76,35.95,11.35,46.89H462.27a78.29,78.29,0,0,0,24.67-41.89C490,326,487.93,312.74,482.11,302.39Z" style="fill:#f0f0f0"></path><rect x="45.67" y="113.67" width="8.33" height="172.67" style="fill:#e0e0e0"></rect><rect x="42.67" y="110.33" width="14.33" height="3.33" style="fill:#e0e0e0"></rect><polygon points="50.5 54.95 51.5 40.62 49.83 34.62 48.17 40.62 49.17 54.95 50.5 54.95" style="fill:#e0e0e0"></polygon><polygon points="57 110.33 42.67 110.33 32.67 69 67 69 57 110.33" style="fill:#f5f5f5"></polygon><polygon points="53.38 110.33 46.28 110.33 41.33 69 58.33 69 53.38 110.33" style="fill:#fafafa"></polygon><polygon points="61.67 374.67 38 374.67 42.79 286.33 56.88 286.33 61.67 374.67" style="fill:#e0e0e0"></polygon><polyline points="73.44 382.4 73.44 374.67 26.22 374.67 26.22 382.4" style="fill:#e0e0e0"></polyline><path d="M49.83,49.94A19.06,19.06,0,0,0,30.78,69H68.89A19.06,19.06,0,0,0,49.83,49.94Z" style="fill:#e0e0e0"></path><path d="M53.06,45.33a3.23,3.23,0,1,1-3.23-3.22A3.23,3.23,0,0,1,53.06,45.33Z" style="fill:#e0e0e0"></path></g><g id="freepik--Shadow--inject-132"><ellipse id="freepik--path--inject-132" cx="250" cy="416.24" rx="193.89" ry="11.32" style="fill:#f5f5f5"></ellipse></g><g id="freepik--Shop--inject-132"><rect x="97.89" y="107.08" width="304.22" height="306.24" style="fill:#407BFF"></rect><rect x="174.78" y="138.08" width="150.44" height="34.33" rx="3.24" style="fill:#fff"></rect><rect x="180.66" y="142.53" width="138.67" height="25.44" rx="1.61" style="fill:#407BFF"></rect><path d="M187.24,160.14l8-.5a6.09,6.09,0,0,0,1,3,4.46,4.46,0,0,0,3.71,1.65,4.14,4.14,0,0,0,2.78-.84,2.54,2.54,0,0,0,1-2,2.49,2.49,0,0,0-.92-1.89c-.62-.56-2.06-1.09-4.31-1.58-3.69-.83-6.31-1.93-7.89-3.3a6.67,6.67,0,0,1-2.37-5.26,7.16,7.16,0,0,1,1.21-4,8.12,8.12,0,0,1,3.66-2.93,17.11,17.11,0,0,1,6.69-1.07c3.47,0,6.13.65,8,1.94a8.42,8.42,0,0,1,3.26,6.17l-7.93.47a3.7,3.7,0,0,0-4.12-3.51,3.38,3.38,0,0,0-2.2.62,1.91,1.91,0,0,0-.75,1.51,1.5,1.5,0,0,0,.62,1.17,6.78,6.78,0,0,0,2.82,1,35.25,35.25,0,0,1,7.89,2.4,8.26,8.26,0,0,1,3.47,3,7.71,7.71,0,0,1,1.09,4,8.66,8.66,0,0,1-1.45,4.82,9,9,0,0,1-4.05,3.35,16.32,16.32,0,0,1-6.54,1.14q-6.94,0-9.62-2.67A10.5,10.5,0,0,1,187.24,160.14Z" style="fill:#fff"></path><path d="M219.6,141.94H228v9.52h9.18v-9.52h8.45v27.2h-8.45v-11H228v11H219.6Z" style="fill:#fff"></path><path d="M253.58,155.56q0-6.66,3.71-10.37t10.34-3.72q6.8,0,10.46,3.65t3.68,10.22a16.78,16.78,0,0,1-1.61,7.82,11.48,11.48,0,0,1-4.64,4.75A15.32,15.32,0,0,1,268,169.6a17.35,17.35,0,0,1-7.61-1.46,11.52,11.52,0,0,1-4.89-4.64A15.4,15.4,0,0,1,253.58,155.56Zm8.41,0q0,4.11,1.53,5.91a5.8,5.8,0,0,0,8.36,0q1.49-1.76,1.48-6.33c0-2.56-.51-4.43-1.55-5.61a5.29,5.29,0,0,0-4.2-1.77,5.11,5.11,0,0,0-4.08,1.8C262.5,150.84,262,152.82,262,155.6Z" style="fill:#fff"></path><path d="M289.68,141.94h14q4.56,0,6.84,2.17a8.17,8.17,0,0,1,2.27,6.18,8.41,8.41,0,0,1-2.48,6.44c-1.65,1.54-4.17,2.32-7.56,2.32h-4.6v10.09h-8.44Zm8.44,11.6h2.06a5.29,5.29,0,0,0,3.41-.85,2.7,2.7,0,0,0,1-2.16,3,3,0,0,0-.86-2.17c-.56-.6-1.63-.89-3.21-.89h-2.39Z" style="fill:#fff"></path><path d="M121.1,182.85H378.9a5.56,5.56,0,0,1,5.56,5.56v224.9a0,0,0,0,1,0,0H115.54a0,0,0,0,1,0,0V188.42A5.56,5.56,0,0,1,121.1,182.85Z" style="fill:#fff;opacity:0.5"></path><polygon points="412 208.95 412 226.49 376.57 230.7 343.68 234.62 317.38 237.74 293.64 240.56 291.1 233.85 288.38 226.68 288.03 237.46 287.91 241.24 284.48 241.65 258.18 244.78 225.29 248.69 198.98 251.81 166.09 255.72 139.78 258.85 106.89 262.76 88 265 88 247.47 123.43 243.26 156.32 239.35 182.61 236.22 205.69 233.48 215.52 232.32 241.82 229.19 241.82 229.18 274.71 225.28 301.02 222.14 333.91 218.23 360.22 215.11 393.11 211.2 412 208.95" style="fill:#407BFF;opacity:0.4"></polygon><polygon points="412 372.64 88 297.46 88 279.93 412 355.1 412 372.64" style="fill:#407BFF;opacity:0.4"></polygon><path d="M82.56,107.08H93.4a4.49,4.49,0,0,1,4.49,4.49V413.32a0,0,0,0,1,0,0H82.56a0,0,0,0,1,0,0V107.08A0,0,0,0,1,82.56,107.08Z" transform="translate(180.44 520.4) rotate(180)" style="fill:#263238"></path><path d="M406.6,107.08h10.84a0,0,0,0,1,0,0V413.32a0,0,0,0,1,0,0H402.11a0,0,0,0,1,0,0V111.58A4.49,4.49,0,0,1,406.6,107.08Z" transform="translate(819.56 520.4) rotate(180)" style="fill:#263238"></path><polygon points="319.81 182.85 285.35 182.85 225.48 413.32 259.93 413.32 319.81 182.85" style="fill:#fff;opacity:0.30000000000000004"></polygon><polygon points="345.19 182.85 330.5 182.85 270.62 413.32 285.32 413.32 345.19 182.85" style="fill:#fff;opacity:0.30000000000000004"></polygon><polygon points="224.03 182.85 209.33 182.85 149.45 413.32 164.15 413.32 224.03 182.85" style="fill:#fff;opacity:0.30000000000000004"></polygon><rect x="244.67" y="179.35" width="10.67" height="233.97" style="fill:#407BFF"></rect><path d="M437.78,116.21l-42-55.55H104.23l-42,55.55c-4.8,7.16-2.66,13.24,5,13.24s17.37-6.08,21.49-13.24h.36c-4.11,7.16-1.39,13.24,6.27,13.24s16.79-6.08,20.22-13.24h.36c-3.42,7.16-.12,13.24,7.54,13.24s16.2-6.08,19-13.24h.36c-2.74,7.16,1.15,13.24,8.81,13.24s15.62-6.08,17.69-13.24h.35c-2.05,7.16,2.42,13.24,10.08,13.24s15-6.08,16.42-13.24h.36c-1.37,7.16,3.68,13.24,11.34,13.24s14.46-6.08,15.15-13.24h.36c-.68,7.16,4.95,13.24,12.61,13.24s13.88-6.08,13.88-13.24h.36c0,7.16,6.22,13.24,13.88,13.24s13.29-6.08,12.61-13.24H277c.69,7.16,7.49,13.24,15.15,13.24s12.71-6.08,11.34-13.24h.36c1.38,7.16,8.76,13.24,16.42,13.24s12.13-6.08,10.08-13.24h.35c2.07,7.16,10,13.24,17.69,13.24s11.55-6.08,8.81-13.24h.36c2.75,7.16,11.29,13.24,19,13.24s11-6.08,7.54-13.24h.36c3.43,7.16,12.56,13.24,20.22,13.24s10.38-6.08,6.27-13.24h.36c4.12,7.16,13.83,13.24,21.49,13.24S442.58,123.37,437.78,116.21Z" style="fill:#407BFF"></path><path d="M437.78,116.21l-42-55.55H104.23l-42,55.55c-4.8,7.16-2.66,13.24,5,13.24s17.37-6.08,21.49-13.24h.36c-4.11,7.16-1.39,13.24,6.27,13.24s16.79-6.08,20.22-13.24h.36c-3.42,7.16-.12,13.24,7.54,13.24s16.2-6.08,19-13.24h.36c-2.74,7.16,1.15,13.24,8.81,13.24s15.62-6.08,17.69-13.24h.35c-2.05,7.16,2.42,13.24,10.08,13.24s15-6.08,16.42-13.24h.36c-1.37,7.16,3.68,13.24,11.34,13.24s14.46-6.08,15.15-13.24h.36c-.68,7.16,4.95,13.24,12.61,13.24s13.88-6.08,13.88-13.24h.36c0,7.16,6.22,13.24,13.88,13.24s13.29-6.08,12.61-13.24H277c.69,7.16,7.49,13.24,15.15,13.24s12.71-6.08,11.34-13.24h.36c1.38,7.16,8.76,13.24,16.42,13.24s12.13-6.08,10.08-13.24h.35c2.07,7.16,10,13.24,17.69,13.24s11.55-6.08,8.81-13.24h.36c2.75,7.16,11.29,13.24,19,13.24s11-6.08,7.54-13.24h.36c3.43,7.16,12.56,13.24,20.22,13.24s10.38-6.08,6.27-13.24h.36c4.12,7.16,13.83,13.24,21.49,13.24S442.58,123.37,437.78,116.21Z" style="fill:#fff;opacity:0.8"></path><g style="opacity:0.2"><polygon points="104.23 60.66 124.8 60.66 88.71 116.21 62.22 116.21 104.23 60.66" style="fill:#407BFF"></polygon><polygon points="145.92 60.66 166.49 60.66 142.41 116.21 115.92 116.21 145.92 60.66" style="fill:#407BFF"></polygon><polygon points="187.61 60.66 208.17 60.66 196.12 116.21 169.62 116.21 187.61 60.66" style="fill:#407BFF"></polygon><polygon points="229.3 60.66 249.86 60.66 249.82 116.21 223.33 116.21 229.3 60.66" style="fill:#407BFF"></polygon><polygon points="270.98 60.66 291.55 60.66 303.52 116.21 277.03 116.21 270.98 60.66" style="fill:#407BFF"></polygon><polygon points="312.67 60.66 333.24 60.66 357.23 116.21 330.74 116.21 312.67 60.66" style="fill:#407BFF"></polygon><polygon points="354.36 60.66 374.92 60.66 410.93 116.21 384.44 116.21 354.36 60.66" style="fill:#407BFF"></polygon><path d="M384.44,116.21c3.43,7.16,12.56,13.24,20.22,13.24s10.38-6.08,6.27-13.24" style="fill:#407BFF"></path><path d="M330.73,116.21c2.07,7.16,10,13.24,17.69,13.24s11.55-6.08,8.81-13.24" style="fill:#407BFF"></path><path d="M277,116.21c.69,7.16,7.49,13.24,15.15,13.24s12.71-6.08,11.34-13.24" style="fill:#407BFF"></path><path d="M223.33,116.21c-.68,7.16,4.95,13.24,12.61,13.24s13.88-6.08,13.88-13.24" style="fill:#407BFF"></path><path d="M169.62,116.21c-2.05,7.16,2.42,13.24,10.08,13.24s15-6.08,16.42-13.24" style="fill:#407BFF"></path><path d="M115.92,116.21c-3.42,7.16-.12,13.24,7.54,13.24s16.2-6.08,19-13.24" style="fill:#407BFF"></path><path d="M62.22,116.21c-4.8,7.16-2.66,13.24,5,13.24s17.37-6.08,21.49-13.24" style="fill:#407BFF"></path></g><polygon points="419.83 366.55 80.17 291.37 80.17 273.83 419.83 349.01 419.83 366.55" style="fill:#407BFF"></polygon><polygon points="419.83 366.55 80.17 291.37 80.17 273.83 419.83 349.01 419.83 366.55" style="fill:#fff;opacity:0.4"></polygon><g style="opacity:0.6000000000000001"><polygon points="134.46 303.38 99.98 295.75 117.31 282.05 151.79 289.68 134.46 303.38" style="fill:#407BFF"></polygon><polygon points="196.51 317.12 162.04 309.49 179.37 295.79 213.85 303.42 196.51 317.12" style="fill:#407BFF"></polygon><polygon points="258.57 330.85 224.09 323.22 241.43 309.52 275.91 317.15 258.57 330.85" style="fill:#407BFF"></polygon><polygon points="320.63 344.59 286.15 336.96 303.48 323.26 337.96 330.89 320.63 344.59" style="fill:#407BFF"></polygon><polygon points="382.69 358.32 348.21 350.69 365.54 336.99 400.02 344.62 382.69 358.32" style="fill:#407BFF"></polygon></g><polygon points="419.83 202.86 419.83 220.4 382.69 224.61 348.21 228.52 320.64 231.65 295.75 234.46 293.09 227.75 290.24 220.58 289.87 231.37 289.74 235.15 286.15 235.56 258.57 238.68 224.09 242.59 196.52 245.72 162.03 249.63 134.45 252.75 99.98 256.66 80.17 258.91 80.17 241.38 117.31 237.17 151.79 233.25 179.35 230.13 203.54 227.38 213.85 226.22 241.43 223.09 241.43 223.09 275.9 219.18 303.48 216.05 337.97 212.14 365.55 209.01 400.02 205.1 419.83 202.86" style="fill:#407BFF"></polygon><polygon points="419.83 202.86 419.83 220.4 382.69 224.61 348.21 228.52 320.64 231.65 295.75 234.46 293.09 227.75 290.24 220.58 289.87 231.37 289.74 235.15 286.15 235.56 258.57 238.68 224.09 242.59 196.52 245.72 162.03 249.63 134.45 252.75 99.98 256.66 80.17 258.91 80.17 241.38 117.31 237.17 151.79 233.25 179.35 230.13 203.54 227.38 213.85 226.22 241.43 223.09 241.43 223.09 275.9 219.18 303.48 216.05 337.97 212.14 365.55 209.01 400.02 205.1 419.83 202.86" style="fill:#fff;opacity:0.4"></polygon><g style="opacity:0.6000000000000001"><polygon points="134.45 252.75 99.97 256.67 117.31 237.16 151.79 233.25 134.45 252.75" style="fill:#407BFF"></polygon><polygon points="196.51 245.72 162.03 249.63 179.37 230.13 213.85 226.22 196.51 245.72" style="fill:#407BFF"></polygon><polygon points="258.57 238.68 224.09 242.59 241.43 223.09 275.91 219.18 258.57 238.68" style="fill:#407BFF"></polygon><polygon points="286.15 235.56 289.87 231.37 289.74 235.15 286.15 235.56" style="fill:#fff"></polygon><polygon points="337.97 212.14 320.64 231.65 295.75 234.46 293.09 227.75 303.48 216.05 337.97 212.14" style="fill:#407BFF"></polygon><polygon points="382.69 224.61 348.21 228.52 365.55 209.01 400.03 205.1 382.69 224.61" style="fill:#407BFF"></polygon></g></g><g id="freepik--Sign--inject-132"><path d="M149.44,304.8h50.95a7.09,7.09,0,0,1,6.93,6.38l8.34,95.32a5.75,5.75,0,0,1-5.82,6.38H158.9A7.11,7.11,0,0,1,152,406.5l-8.34-95.32A5.75,5.75,0,0,1,149.44,304.8Z" style="fill:#263238"></path><path d="M206.55,386.41h6a1.52,1.52,0,0,1,1.49,1.36l2.9,33.24a1.22,1.22,0,0,1-1.24,1.36h-6a1.5,1.5,0,0,1-1.48-1.36l-2.91-33.24A1.22,1.22,0,0,1,206.55,386.41Z" style="fill:#263238"></path><path d="M151.6,386.41h6a1.52,1.52,0,0,1,1.48,1.36L162,421a1.23,1.23,0,0,1-1.25,1.36h-6a1.51,1.51,0,0,1-1.48-1.36l-2.91-33.24A1.23,1.23,0,0,1,151.6,386.41Z" style="fill:#263238"></path><path d="M197.06,304.8H146.12a7.1,7.1,0,0,0-6.94,6.38l-8.34,95.32a5.75,5.75,0,0,0,5.82,6.38H187.6a7.1,7.1,0,0,0,6.94-6.38l8.34-95.32A5.75,5.75,0,0,0,197.06,304.8Z" style="fill:#407BFF"></path><path d="M140,386.41h-6a1.51,1.51,0,0,0-1.48,1.36L129.57,421a1.22,1.22,0,0,0,1.24,1.36h6a1.51,1.51,0,0,0,1.48-1.36l2.9-33.24A1.22,1.22,0,0,0,140,386.41Z" style="fill:#407BFF"></path><path d="M194.91,386.41h-6a1.52,1.52,0,0,0-1.49,1.36L184.53,421a1.22,1.22,0,0,0,1.24,1.36h6a1.5,1.5,0,0,0,1.48-1.36l2.91-33.24A1.22,1.22,0,0,0,194.91,386.41Z" style="fill:#407BFF"></path><path d="M136.89,410.32a3.45,3.45,0,0,1-3.49-3.82l8.34-95.32a4.25,4.25,0,0,1,4.15-3.82h50.94a3.44,3.44,0,0,1,3.49,3.82L192,406.5a4.26,4.26,0,0,1-4.15,3.82Z" style="fill:#fff"></path><path d="M145.71,332l3.28-.2a2.39,2.39,0,0,0,.33,1.21,1.64,1.64,0,0,0,1.45.67,1.84,1.84,0,0,0,1.16-.34,1.15,1.15,0,0,0,.47-.8.94.94,0,0,0-.31-.77,3.92,3.92,0,0,0-1.7-.65,6.72,6.72,0,0,1-3.1-1.34,2.53,2.53,0,0,1-.78-2.14,3.13,3.13,0,0,1,.64-1.62,3.69,3.69,0,0,1,1.59-1.19,7.26,7.26,0,0,1,2.77-.44,5.21,5.21,0,0,1,3.17.79,3.1,3.1,0,0,1,1.11,2.52l-3.25.19a1.57,1.57,0,0,0-.44-1.09,1.62,1.62,0,0,0-1.11-.34,1.49,1.49,0,0,0-.93.25.86.86,0,0,0-.35.62.53.53,0,0,0,.21.47,2.58,2.58,0,0,0,1.11.41,13.2,13.2,0,0,1,3.13,1,3,3,0,0,1,1.31,1.23,3,3,0,0,1,.3,1.64,3.84,3.84,0,0,1-.76,2,4.22,4.22,0,0,1-1.77,1.36,7,7,0,0,1-2.71.47c-1.89,0-3.16-.36-3.83-1.09A4,4,0,0,1,145.71,332Z" style="fill:#407BFF"></path><path d="M158.16,324.59h3.43l-.34,3.88H165l.34-3.88h3.45l-1,11.09h-3.45l.4-4.49H161l-.39,4.49h-3.43Z" style="fill:#407BFF"></path><path d="M170.14,330.14a5.8,5.8,0,0,1,6.22-5.74,5.36,5.36,0,0,1,4.14,1.49,5.2,5.2,0,0,1,1.13,4.16,7.19,7.19,0,0,1-.93,3.19,5.41,5.41,0,0,1-2.06,1.94,6.62,6.62,0,0,1-3.14.69,6.77,6.77,0,0,1-3.06-.6,4.12,4.12,0,0,1-1.82-1.89A5.86,5.86,0,0,1,170.14,330.14Zm3.42,0a3.52,3.52,0,0,0,.41,2.41,1.94,1.94,0,0,0,1.64.73,2.34,2.34,0,0,0,1.77-.71,4.38,4.38,0,0,0,.83-2.58,3.23,3.23,0,0,0-.43-2.29,2,2,0,0,0-1.65-.72,2.27,2.27,0,0,0-1.73.73A4,4,0,0,0,173.56,330.16Z" style="fill:#407BFF"></path><path d="M183.94,324.59h5.7a3.66,3.66,0,0,1,2.71.88,3.09,3.09,0,0,1,.7,2.52,3.72,3.72,0,0,1-1.24,2.63,4.68,4.68,0,0,1-3.16.94h-1.88l-.36,4.12H183Zm3,4.73h.84a2.29,2.29,0,0,0,1.42-.35,1.21,1.21,0,0,0,.48-.88,1.13,1.13,0,0,0-.27-.88,1.7,1.7,0,0,0-1.28-.37h-1Z" style="fill:#407BFF"></path><path d="M144,346.63l.67-7.68h4a5.45,5.45,0,0,1,1.67.19,1.57,1.57,0,0,1,.88.7,2,2,0,0,1,.24,1.24,2.15,2.15,0,0,1-.37,1.1,2.46,2.46,0,0,1-.81.76,3.28,3.28,0,0,1-.86.3,2.52,2.52,0,0,1,.59.28,2.47,2.47,0,0,1,.35.41,3.35,3.35,0,0,1,.29.48l.95,2.22h-2.68l-1.07-2.35a1.66,1.66,0,0,0-.37-.59.92.92,0,0,0-.57-.18h-.21l-.27,3.12Zm2.79-4.57h1a3.57,3.57,0,0,0,.64-.1.67.67,0,0,0,.4-.24.76.76,0,0,0,.19-.45.66.66,0,0,0-.18-.57,1.38,1.38,0,0,0-.87-.2h-1Z" style="fill:#407BFF"></path><path d="M153,339h6.36l-.14,1.64h-4l-.11,1.22h3.7l-.14,1.57H155l-.13,1.51h4.1l-.15,1.74H152.3Z" style="fill:#407BFF"></path><path d="M160.09,342.8a4,4,0,0,1,4.32-4,3.7,3.7,0,0,1,2.87,1,3.6,3.6,0,0,1,.78,2.88,5.06,5.06,0,0,1-.64,2.21,3.61,3.61,0,0,1-1.43,1.34,4.59,4.59,0,0,1-2.18.48,4.66,4.66,0,0,1-2.12-.41,2.86,2.86,0,0,1-1.26-1.31A4.14,4.14,0,0,1,160.09,342.8Zm2.38,0a2.42,2.42,0,0,0,.28,1.67,1.35,1.35,0,0,0,1.14.51,1.58,1.58,0,0,0,1.22-.5,3,3,0,0,0,.58-1.79,2.25,2.25,0,0,0-.3-1.58,1.35,1.35,0,0,0-1.14-.51,1.58,1.58,0,0,0-1.2.51A2.8,2.8,0,0,0,162.47,342.81Z" style="fill:#407BFF"></path><path d="M169.66,339h4a2.5,2.5,0,0,1,1.88.61,2.17,2.17,0,0,1,.49,1.75,2.64,2.64,0,0,1-.86,1.82,3.31,3.31,0,0,1-2.19.65h-1.3l-.25,2.85H169Zm2.1,3.27h.58a1.68,1.68,0,0,0,1-.23.86.86,0,0,0,.33-.62.78.78,0,0,0-.19-.61,1.14,1.14,0,0,0-.88-.25h-.68Z" style="fill:#407BFF"></path><path d="M177.42,339h6.37l-.15,1.64h-4l-.11,1.22h3.7l-.14,1.57h-3.7l-.13,1.51h4.1l-.15,1.74h-6.48Z" style="fill:#407BFF"></path><path d="M185.2,339h2.22l2.52,4.25.37-4.25h2.24l-.67,7.68h-2.24l-2.51-4.22-.37,4.22h-2.24Z" style="fill:#407BFF"></path><path d="M173.49,386.76l-5.6-2.33c.81,3.24-2.36,5.58-5,6.92-1.26.64-1,2.29.53,2.9l3.65,1.52C171.49,397.61,173.49,386.76,173.49,386.76Z" style="fill:#407BFF"></path><path d="M174.63,387.23,164.36,383a6.32,6.32,0,0,1-3-8.79h0a7.33,7.33,0,0,1,9.13-3.77l10.26,4.27a6.33,6.33,0,0,1,3,8.8h0A7.32,7.32,0,0,1,174.63,387.23Z" style="fill:#407BFF"></path><path d="M174.63,387.23,164.36,383a6.32,6.32,0,0,1-3-8.79h0a7.33,7.33,0,0,1,9.13-3.77l10.26,4.27a6.33,6.33,0,0,1,3,8.8h0A7.32,7.32,0,0,1,174.63,387.23Z" style="opacity:0.30000000000000004"></path><path d="M145.54,381.5l18.83,4.15c1.57.65,9.89-16.37,8.32-17l-15.85-10.26C154.59,357.43,143.29,380.57,145.54,381.5Z" style="fill:#407BFF"></path></g></svg>