<svg xmlns="http://www.w3.org/2000/svg" viewBox="0 0 500 500">
    <g id="freepik--background-simple--inject-120">
        <path d="M391.31,163c-13.26,20.82-.43,29-4.24,47.91-5,24.7-32.35,36.45-49.12,56.66-13.56,16.33-13,30-22,46.78-12.37,23-31.79,30.52-56.5,40.62-45.37,18.54-81.13,39.82-96.8-1.6-3.44-9.1-2.54-18.1-10.14-25.21-6.77-6.35-18.72-7.38-25.49-13.55-16.92-15.4-2.05-37.16-8-56.05-5.14-16.23-18.69-16.21-2.09-39.56,12.91-18.15,36-33.49,50.84-51.46,15.79-19.16,25-38.11,51.44-46.74,19.69-6.42,37.4-4.26,57.93-12.71C306.42,96.05,362.49,45,378.5,75.5c3.36,6.43-3.2,18,.2,25.22,3,6.41,10.78,9.33,14.85,14.94C403.31,129.11,403.59,143.74,391.31,163Z"
              style="fill:#FFA113"></path>
        <path d="M391.31,163c-13.26,20.82-.43,29-4.24,47.91-5,24.7-32.35,36.45-49.12,56.66-13.56,16.33-13,30-22,46.78-12.37,23-31.79,30.52-56.5,40.62-45.37,18.54-81.13,39.82-96.8-1.6-3.44-9.1-2.54-18.1-10.14-25.21-6.77-6.35-18.72-7.38-25.49-13.55-16.92-15.4-2.05-37.16-8-56.05-5.14-16.23-18.69-16.21-2.09-39.56,12.91-18.15,36-33.49,50.84-51.46,15.79-19.16,25-38.11,51.44-46.74,19.69-6.42,37.4-4.26,57.93-12.71C306.42,96.05,362.49,45,378.5,75.5c3.36,6.43-3.2,18,.2,25.22,3,6.41,10.78,9.33,14.85,14.94C403.31,129.11,403.59,143.74,391.31,163Z"
              style="fill:#fff;opacity:0.9"></path>
    </g>
    <g id="freepik--Shadow--inject-120">
        <ellipse id="freepik--path--inject-120" cx="250" cy="416.24" rx="193.89" ry="11.32"
                 style="fill:#f5f5f5"></ellipse>
    </g>
    <g id="freepik--OK--inject-120">
        <path d="M280.92,154.5a105,105,0,0,0-210,0c0,45.53,28.12,82.75,69.49,98.84l72.15,28L198.87,257A105.05,105.05,0,0,0,280.92,154.5Z"
              style="fill:#FFA113"></path>
        <path d="M173.57,250a97.84,97.84,0,1,1,97.85-97.84A97.95,97.95,0,0,1,173.57,250Zm0-194.68a96.84,96.84,0,1,0,96.85,96.84A97,97,0,0,0,173.57,55.32Z"
              style="fill:#fff"></path>
        <path d="M104.92,159.27q0-20.34,8.27-32.57a30.58,30.58,0,0,1,23.05-13.83q15.13-1.64,23.33,8.61t8.19,30.3q0,14.57-3.58,24.27a37.41,37.41,0,0,1-10.34,15.62,29.75,29.75,0,0,1-16.86,7q-10.26,1.11-17-2.64t-10.9-13Q104.92,173.83,104.92,159.27Zm18.74-1.92q0,12.59,3.41,17.71a9.31,9.31,0,0,0,9.29,4.49,11.9,11.9,0,0,0,9.35-6.4Q149,167.4,149,153.47q0-11.73-3.45-16.76a9.44,9.44,0,0,0-9.38-4.4q-5.66.62-9.1,6.48T123.66,157.35Z"
              style="fill:#fff"></path>
        <path d="M177.94,109.77l18.74-2v31.39l19.63-33.51,24.93-2.71-22.13,33.75,23.12,49.21-23.08,2.5-12.79-32.77-9.68,14.94V190.8l-18.74,2Z"
              style="fill:#fff"></path>
        <path d="M85.62,74.46a7.63,7.63,0,1,1,7.62-7.63A7.64,7.64,0,0,1,85.62,74.46Zm0-14.25a6.63,6.63,0,1,0,6.62,6.62A6.63,6.63,0,0,0,85.62,60.21Z"
              style="fill:#FFA113"></path>
        <path d="M159.79,277.6a5.1,5.1,0,1,1,5.1-5.09A5.1,5.1,0,0,1,159.79,277.6Zm0-9.19a4.1,4.1,0,1,0,4.1,4.1A4.1,4.1,0,0,0,159.79,268.41Z"
              style="fill:#FFA113"></path>
        <path d="M254.82,72.12A1.84,1.84,0,1,1,253,70.28,1.84,1.84,0,0,1,254.82,72.12Z" style="fill:#FFA113"></path>
        <path d="M141.22,270.67a1.84,1.84,0,1,1-1.83-1.84A1.84,1.84,0,0,1,141.22,270.67Z" style="fill:#FFA113"></path>
    </g>
    <g id="freepik--Character--inject-120">
        <polygon points="328.42 386.28 334.44 409.84 345.73 407.07 339.7 383.5 328.42 386.28"
                 style="fill:#ff8b7b"></polygon>
        <path d="M346,402.26,333.21,405a.81.81,0,0,0-.65.88l.88,9.36a1.7,1.7,0,0,0,2.05,1.46c4-1,5.21-1.54,10.27-2.64,5.92-1.3,8-.95,15-2.47,4.2-.92,4-5.32,2.13-5.33a28.34,28.34,0,0,1-14.18-3.78A3.66,3.66,0,0,0,346,402.26Z"
              style="fill:#263238"></path>
        <polygon points="328.41 386.29 331.52 398.43 342.81 395.66 339.7 383.51 328.41 386.29"
                 style="opacity:0.2"></polygon>
        <path d="M308.3,295.52c-13.44-39.55-24.09-86.2-24.09-86.2l38.35-2.42s5.65,60.56,8.6,88.48c3.06,29,12.59,94.55,12.59,94.55l-17.3,3.51S310.22,331.71,308.3,295.52Z"
              style="fill:#FFA113"></path>
        <path d="M301.9,231.3l-9.31,11.51c2.37,8.88,5.15,18.86,8.19,29.07A200.08,200.08,0,0,0,301.9,231.3Z"
              style="opacity:0.2"></path>
        <path d="M343.49,392.36l-15.86,3.48a1.33,1.33,0,0,1-1.53-.86l-1.75-5.12a1.32,1.32,0,0,1,.94-1.7l17.22-4.05a1.31,1.31,0,0,1,1.61,1.19l.4,5.69A1.3,1.3,0,0,1,343.49,392.36Z"
              style="fill:#263238"></path>
        <path d="M343.49,392.36l-15.86,3.48a1.33,1.33,0,0,1-1.53-.86l-1.75-5.12a1.32,1.32,0,0,1,.94-1.7l17.22-4.05a1.31,1.31,0,0,1,1.61,1.19l.4,5.69A1.3,1.3,0,0,1,343.49,392.36Z"
              style="fill:#fff;opacity:0.1"></path>
        <polygon points="265.16 385.46 264.45 409.77 276.08 409.61 276.79 385.3 265.16 385.46"
                 style="fill:#ff8b7b"></polygon>
        <path d="M276.36,404.62,264,404.8a.81.81,0,0,0-.81.73l-1,9.35a1.71,1.71,0,0,0,1.72,1.84c4.11-.13,5.41-.47,10.59-.55,6.06-.1,7.37.66,14.47.55,4.3-.07,5-4.42,3.15-4.8A28.4,28.4,0,0,1,279,405.4,3.7,3.7,0,0,0,276.36,404.62Z"
              style="fill:#263238"></path>
        <polygon points="265.16 385.47 264.79 398 276.43 397.83 276.79 385.3 265.16 385.47"
                 style="opacity:0.2"></polygon>
        <path d="M268.06,294.72c3.28-41.61.51-64.05,5.34-84.72l34.9-2.16S297.47,269,291.48,296.66s-12.41,94.85-12.41,94.85l-17.15.21S259.82,327.18,268.06,294.72Z"
              style="fill:#FFA113"></path>
        <path d="M279,394.59l-16.22.25a1.33,1.33,0,0,1-1.34-1.23l-.35-5.36a1.32,1.32,0,0,1,1.27-1.4l17.67-.55a1.32,1.32,0,0,1,1.33,1.57l-1.09,5.65A1.31,1.31,0,0,1,279,394.59Z"
              style="fill:#263238"></path>
        <path d="M279,394.59l-16.22.25a1.33,1.33,0,0,1-1.34-1.23l-.35-5.36a1.32,1.32,0,0,1,1.27-1.4l17.67-.55a1.32,1.32,0,0,1,1.33,1.57l-1.09,5.65A1.31,1.31,0,0,1,279,394.59Z"
              style="fill:#fff;opacity:0.1"></path>
        <path d="M321.79,137.35l2,3.28L326,144c1.43,2.21,2.92,4.37,4.41,6.48s3.07,4.11,4.66,6a32.13,32.13,0,0,0,4.72,4.58l-4.89-.73a30.8,30.8,0,0,0,5.79-1.8,64,64,0,0,0,6-2.94c2-1.09,4-2.3,6-3.56s4-2.63,5.89-3.91l.16-.1a3.49,3.49,0,0,1,4.76,5,60.25,60.25,0,0,1-5.11,6,68.19,68.19,0,0,1-5.77,5.33,54.85,54.85,0,0,1-6.63,4.67,36.92,36.92,0,0,1-7.93,3.6,5.68,5.68,0,0,1-4.51-.51l-.38-.22a37.93,37.93,0,0,1-7.82-6.19q-1.63-1.64-3.13-3.32t-2.85-3.43c-1.84-2.3-3.53-4.66-5.14-7.07-.8-1.2-1.59-2.41-2.34-3.65s-1.47-2.44-2.23-3.82a7,7,0,0,1,12-7.07Z"
              style="fill:#ff8b7b"></path>
        <path d="M306.63,124c13.55,1.54,23.8,22.52,23.8,22.52l-14,14.87s-6.22-7.42-12.91-16.81C296.25,134.38,295.91,122.79,306.63,124Z"
              style="fill:#263238"></path>
        <path d="M305.56,127.17c-5.21-1.85-21.53.92-21.53.92,4.57,5.85,7.61,54.31,8,82.18,4.95.68,16.71.59,21.12-.43C312.6,198.9,309,146.62,305.56,127.17Z"
              style="fill:#fff"></path>
        <path d="M323.36,141.85a20.73,20.73,0,0,0-20.66-18.22,143.9,143.9,0,0,0-29,3.2,11.37,11.37,0,0,0-8.65,13.76c7.18,30.13,5.29,58.71,7.21,72a93.12,93.12,0,0,0,23.93,2.75s-.29-3.7-.65-9.69c-.13-2.34-3.14-72.48-7.83-78.51,0,0,10.06-1,15.27.82,3.87,21.84,7.49,87.41,7.49,87.42,8.23-.59,14-5.39,13.89-6.76C326,181.81,325.2,157.54,323.36,141.85Z"
              style="fill:#263238"></path>
        <path d="M282.35,102.48c1.53,5.89,3.32,16.25.51,21.91a2.69,2.69,0,0,0,.7,3.34c3.61,2.79,8.25,5.38,15,5,7.09-.43,6.56-4.67,4.76-7.5a2.59,2.59,0,0,0-1.67-1.18c-6.7-1.38-6.78-6.71-5.82-11.83Z"
              style="fill:#ff8b7b"></path>
        <path d="M287.84,106.44l8,5.74a21.33,21.33,0,0,0-.42,3.76c-2.89-.13-7-2.89-7.5-5.86A10.16,10.16,0,0,1,287.84,106.44Z"
              style="opacity:0.2"></path>
        <path d="M304.47,95c1.81-1.2,2.77-9.47,0-12.15,2.86-2.52,1.21-8.13-2.71-9.08s-6.8,1.63-11.85-1.61c-.87,1.18-.37,2.69,1.14,3.57C293.23,77,304.47,95,304.47,95Z"
              style="fill:#263238"></path>
        <path d="M279.89,92.48c1.36,9,1.69,14.39,6.69,18.61,7.53,6.35,18.38,1.1,19.75-8.18,1.24-8.35-1.19-21.72-10.4-24.48A12.59,12.59,0,0,0,279.89,92.48Z"
              style="fill:#ff8b7b"></path>
        <path d="M282.65,100.12c2.41-1.13,1.09-10.79.5-12.69,6.33.88,24.13-3.87,18.27-10.79-4.28-5-16.77.72-22.09-3.59-1.58,1.69.62,3.69.62,3.69s-8.45,2-5,8C268.09,84.43,272.79,101.12,282.65,100.12Z"
              style="fill:#263238"></path>
        <path d="M276.54,80.92c-3.33,2.61-4.64,1.44-6.57-.32-.46,5.13,3.62,5.79,5.51,5.26C276.72,84.26,276.54,80.92,276.54,80.92Z"
              style="fill:#263238"></path>
        <path d="M276.93,100.78a8.58,8.58,0,0,0,5,3.87c2.65.69,3.65-2,2.64-4.65-.91-2.43-3.39-5.71-5.92-5.2S275.49,98.4,276.93,100.78Z"
              style="fill:#ff8b7b"></path>
        <path d="M292.31,93.28c.07.74.51,1.3,1,1.25s.82-.68.75-1.42-.51-1.3-1-1.25S292.25,92.54,292.31,93.28Z"
              style="fill:#263238"></path>
        <path d="M300.64,91.85c.07.74.51,1.3,1,1.26s.82-.69.75-1.43-.51-1.3-1-1.25S300.58,91.11,300.64,91.85Z"
              style="fill:#263238"></path>
        <path d="M297.67,92.72s2.06,4.11,4.09,6c-1.2,1.35-3.48,1-3.48,1Z" style="fill:#ff5652"></path>
        <path d="M296,103.32a6,6,0,0,1-4.57-1.57.22.22,0,1,1,.31-.3,5.87,5.87,0,0,0,5.14,1.32.22.22,0,0,1,.26.17.23.23,0,0,1-.18.26A8.39,8.39,0,0,1,296,103.32Z"
              style="fill:#263238"></path>
        <path d="M289.19,92.06a.41.41,0,0,1-.22,0,.45.45,0,0,1-.23-.58,4.4,4.4,0,0,1,3.05-2.6.43.43,0,0,1,.5.36.45.45,0,0,1-.36.51h0a3.48,3.48,0,0,0-2.39,2.08A.43.43,0,0,1,289.19,92.06Z"
              style="fill:#263238"></path>
        <path d="M303.81,87.88a.46.46,0,0,1-.4-.09,3.41,3.41,0,0,0-3-.83.44.44,0,0,1-.54-.3.45.45,0,0,1,.3-.54,4.31,4.31,0,0,1,3.84,1,.45.45,0,0,1,0,.62A.52.52,0,0,1,303.81,87.88Z"
              style="fill:#263238"></path>
        <path d="M274.83,146.2l-1.58,3.54-1.57,3.67c-1,2.46-2,4.93-2.95,7.42a136.9,136.9,0,0,0-4.79,15l-.43,1.87-.21.94-.05.23c0,.09,0,0,0,0a.09.09,0,0,0,0,0,6.15,6.15,0,0,0,.2,2.15,27.7,27.7,0,0,0,1,3.34c.4,1.17.86,2.37,1.36,3.57,2,4.82,4.48,9.77,6.82,14.66l.05.09a3.5,3.5,0,0,1-5.66,4,88,88,0,0,1-10.78-13.69,45,45,0,0,1-4.28-8.38,17.79,17.79,0,0,1-1.22-6c0-.35,0-.72.06-1.08l0-.5,0-.28.16-1.12.31-2.23a112.06,112.06,0,0,1,4.33-17.1q1.39-4.14,3-8.16c.55-1.34,1.12-2.67,1.73-4s1.2-2.59,1.93-4a7,7,0,0,1,12.61,6Z"
              style="fill:#ff8b7b"></path>
        <path d="M272.54,127.15c-15.11,3.81-19.31,23.13-19.31,23.13L272,163.74s4.65-4.87,6.05-16.3C278.72,142,275.6,127,272.54,127.15Z"
              style="fill:#263238"></path>
        <path d="M270.21,200.37l8.73,3.26-6.68,9s-7.55-3.91-6.13-8.26Z" style="fill:#ff8b7b"></path>
        <path d="M283,212.4l-2.87,2.75a3.23,3.23,0,0,1-4.17.25l-3.73-2.81,6.68-9,4.15,4.16A3.22,3.22,0,0,1,283,212.4Z"
              style="fill:#ff8b7b"></path>
        <path d="M369.43,151.32l-1.07-4.88a2.13,2.13,0,0,0-2.26-1.66h0a10.35,10.35,0,0,0-4.39,1.4l-6,3.56.53,5.66c2.49,3.84,10.27.4,10.27.4l.64-.25A3.69,3.69,0,0,0,369.43,151.32Z"
              style="fill:#ff8b7b"></path>
        <path d="M354.94,151.92c-.37-1.91.46-3.45.27-5.25-.16-1.57.26-3.33-.24-5.47.6-1,2.77-.18,2.8,2.47.67,2.72,3.66,2.33,4.85,2C362.62,145.7,358.58,152.73,354.94,151.92Z"
              style="fill:#ff8b7b"></path>
    </g>
</svg>